<?xml version="1.0" encoding="UTF-8" standalone="no"?>
<svg
   xmlns:dc="http://purl.org/dc/elements/1.1/"
   xmlns:cc="http://creativecommons.org/ns#"
   xmlns:rdf="http://www.w3.org/1999/02/22-rdf-syntax-ns#"
   xmlns:svg="http://www.w3.org/2000/svg"
   xmlns="http://www.w3.org/2000/svg"
   xmlns:sodipodi="http://sodipodi.sourceforge.net/DTD/sodipodi-0.dtd"
   xmlns:inkscape="http://www.inkscape.org/namespaces/inkscape"
   version="1.1"
   id="svg2"
   xml:space="preserve"
   width="4305.6665"
   height="2666.6667"
   viewBox="0 0 4305.6665 2666.6667"
   sodipodi:docname="19836.eps"><metadata
     id="metadata8"><rdf:RDF><cc:Work
         rdf:about=""><dc:format>image/svg+xml</dc:format><dc:type
           rdf:resource="http://purl.org/dc/dcmitype/StillImage" /></cc:Work></rdf:RDF></metadata><defs
     id="defs6"><clipPath
       clipPathUnits="userSpaceOnUse"
       id="clipPath22"><path
         d="m 19534.2,16688.8 c 675.4,96.4 1301.2,-373 1397.6,-1048.4 96.5,-675.5 -372.9,-1301.2 -1048.3,-1397.7 -675.5,-96.4 -1301.3,372.9 -1397.7,1048.4 -96.4,675.5 372.9,1301.2 1048.4,1397.7 z M 18176,14826.1 c 60.1,-144.3 139.7,-277.3 234.9,-396.4 l -139.7,-292.9 282.1,-211.6 282,-211.5 242.2,216.1 c 141,-58.2 290.9,-97.3 446.2,-114.6 l 108.3,-305.7 349,49.8 349.1,49.9 18.4,323.7 c 144.2,60.1 277.2,139.7 396.3,234.9 l 293,-139.7 211.5,282.1 211.6,282 -216.1,242.2 c 58.1,141 97.3,290.9 114.6,446.2 l 305.7,108.3 -49.9,349 -49.8,349.1 -323.8,18.4 c -60.1,144.3 -139.6,277.2 -234.9,396.3 l 139.7,293 -282,211.5 -282.1,211.6 -242.1,-216.1 c -141,58.1 -290.9,97.3 -446.3,114.6 l -108.3,305.7 -349,-49.9 -349,-49.8 -18.4,-323.8 c -144.3,-60.1 -277.3,-139.6 -396.4,-234.9 l -292.9,139.7 -211.6,-282 -211.5,-282.1 216.1,-242.1 c -58.2,-141 -97.3,-290.9 -114.6,-446.3 l -305.7,-108.2 49.8,-349.1 49.9,-349 z"
         id="path20" /></clipPath><linearGradient
       x1="0"
       y1="0"
       x2="1"
       y2="0"
       gradientUnits="userSpaceOnUse"
       gradientTransform="matrix(3912.47,0,0,-3912.47,17752.6,15465.7)"
       spreadMethod="pad"
       id="linearGradient28"><stop
         style="stop-opacity:1;stop-color:#ff9f55"
         offset="0"
         id="stop24" /><stop
         style="stop-opacity:1;stop-color:#ffd255"
         offset="1"
         id="stop26" /></linearGradient><clipPath
       clipPathUnits="userSpaceOnUse"
       id="clipPath38"><path
         d="m 21960.3,17650.8 c 253,36.1 487.3,-139.7 523.4,-392.7 36.1,-252.9 -139.6,-487.3 -392.6,-523.4 -253,-36.1 -487.3,139.7 -523.4,392.6 -36.2,253 139.6,487.4 392.6,523.5 z m -508.6,-697.6 c 22.5,-54 52.3,-103.8 87.9,-148.4 l -52.3,-109.8 105.6,-79.2 105.7,-79.2 90.6,80.9 c 52.9,-21.8 109,-36.4 167.2,-42.9 l 40.5,-114.5 130.7,18.7 130.8,18.6 6.8,121.3 c 54.1,22.5 103.9,52.3 148.5,88 l 109.7,-52.3 79.2,105.6 79.3,105.6 -81,90.7 c 21.8,52.8 36.5,108.9 42.9,167.1 l 114.5,40.6 -18.6,130.7 -18.7,130.7 -121.3,6.9 c -22.5,54 -52.3,103.8 -87.9,148.4 l 52.3,109.7 -105.6,79.3 -105.7,79.2 -90.7,-80.9 c -52.8,21.7 -108.9,36.4 -167.1,42.9 l -40.5,114.5 -130.7,-18.7 -130.8,-18.7 -6.9,-121.2 c -54,-22.5 -103.8,-52.3 -148.4,-88 l -109.7,52.3 -79.2,-105.6 -79.3,-105.6 81,-90.7 c -21.8,-52.8 -36.5,-109 -43,-167.1 l -114.4,-40.6 18.6,-130.7 18.7,-130.7 z"
         id="path36" /></clipPath><linearGradient
       x1="0"
       y1="0"
       x2="1"
       y2="0"
       gradientUnits="userSpaceOnUse"
       gradientTransform="matrix(1465.25,0,0,-1465.25,21293.1,17192.7)"
       spreadMethod="pad"
       id="linearGradient44"><stop
         style="stop-opacity:1;stop-color:#ff9f55"
         offset="0"
         id="stop40" /><stop
         style="stop-opacity:1;stop-color:#ffd255"
         offset="1"
         id="stop42" /></linearGradient><clipPath
       clipPathUnits="userSpaceOnUse"
       id="clipPath62"><path
         d="m 18289.6,14230.3 c 0,0 1460.2,-1731.4 533.9,-2852.5 -926.2,-1121.1 -1181.1,-21.8 -1181.1,-21.8 0,0 -554.3,-103 405.9,1299.3 452.5,660.9 241.3,1575 241.3,1575"
         id="path60" /></clipPath><linearGradient
       x1="0"
       y1="0"
       x2="1"
       y2="0"
       gradientUnits="userSpaceOnUse"
       gradientTransform="matrix(921.969,-3036.94,-3036.94,-921.969,17689.6,14048.1)"
       spreadMethod="pad"
       id="linearGradient68"><stop
         style="stop-opacity:1;stop-color:#40d5e6"
         offset="0"
         id="stop64" /><stop
         style="stop-opacity:1;stop-color:#5577ff"
         offset="1"
         id="stop66" /></linearGradient><clipPath
       clipPathUnits="userSpaceOnUse"
       id="clipPath78"><path
         d="m 19964.9,12523.9 v 1677.4 c 0,69.5 -11.8,136.2 -33.6,198.3 403.9,408.2 915.2,806.9 1558.8,1181.6 0,0 768.7,-1134.9 -114.9,-2594.2 -432.2,-110.5 -905.3,-236.5 -1410.3,-463.1"
         id="path76" /></clipPath><linearGradient
       x1="0"
       y1="0"
       x2="1"
       y2="0"
       gradientUnits="userSpaceOnUse"
       gradientTransform="matrix(1940.99,3222.04,3222.04,-1940.99,19440.1,11828)"
       spreadMethod="pad"
       id="linearGradient84"><stop
         style="stop-opacity:1;stop-color:#602f80"
         offset="0"
         id="stop80" /><stop
         style="stop-opacity:1;stop-color:#5770ff"
         offset="1"
         id="stop82" /></linearGradient><clipPath
       clipPathUnits="userSpaceOnUse"
       id="clipPath94"><path
         d="m 21536.6,11084 c -94.1,305 -378.2,526.6 -714.1,526.6 h -857.6 v 913.3 c 505,226.6 978.1,352.6 1410.3,463.1 621.7,159 1158.8,285.6 1584.2,632.4 0,0 -200.8,-1437.6 -1422.8,-2535.4"
         id="path92" /></clipPath><linearGradient
       x1="0"
       y1="0"
       x2="1"
       y2="0"
       gradientUnits="userSpaceOnUse"
       gradientTransform="matrix(739.927,569.47,569.47,-739.927,-25547.7,-23800.6)"
       spreadMethod="pad"
       id="linearGradient100"><stop
         style="stop-opacity:1;stop-color:#602f80"
         offset="0"
         id="stop96" /><stop
         style="stop-opacity:1;stop-color:#5770ff"
         offset="1"
         id="stop98" /></linearGradient><clipPath
       clipPathUnits="userSpaceOnUse"
       id="clipPath110"><path
         d="m 8920.7,4787.5 h -66.74 v 2014 c 21.76,-17.7 44.08,-35.5 66.74,-53.3 V 4787.5 m 0,3757.3 c -24.75,17.2 -46.32,30.5 -66.74,39.4 v 3204.9 h 66.74 V 9577 c -20.27,-21.9 -30.86,-35.6 -33.42,-38.9 v -465.9 c 1.01,1.2 12.17,15.4 33.42,39.5 v -566.9"
         id="path108" /></clipPath><linearGradient
       x1="0"
       y1="0"
       x2="1"
       y2="0"
       gradientUnits="userSpaceOnUse"
       gradientTransform="matrix(1.604e-4,3668.94,-3668.94,1.604e-4,8887.33,5088.9)"
       spreadMethod="pad"
       id="linearGradient116"><stop
         style="stop-opacity:1;stop-color:#602f80"
         offset="0"
         id="stop112" /><stop
         style="stop-opacity:1;stop-color:#5770ff"
         offset="1"
         id="stop114" /></linearGradient><clipPath
       clipPathUnits="userSpaceOnUse"
       id="clipPath146"><path
         d="m 8887.28,9072.2 v 465.9 c 2.56,3.3 13.15,17 33.42,38.9 81.2,88 317.72,308.8 814.61,521.9 315.79,135.4 751.59,255.4 1302.89,255.4 183.9,0 380.5,-13.3 590,-43.9 v -321 c -186.8,28 -364.1,40.6 -532,40.6 -1285.87,0 -2015.87,-737.7 -2175.5,-918.3 -21.25,-24.1 -32.41,-38.3 -33.42,-39.5 m 12682.42,263.7 v 391 c 713.6,461.9 1414.1,830.7 2109.1,1030.1 374.2,107.5 752.8,164.9 1132.6,164.9 548.8,0 1100.3,-119.8 1645.7,-381.2 272.3,-130.1 543.1,-295.9 810.8,-499.4 v -418.2 c -351.2,279.8 -696.8,491.6 -1039,642.7 -473.4,209.3 -940.1,303.2 -1405.3,303.2 -1071.3,0 -2134.7,-498.3 -3253.9,-1233.1"
         id="path144" /></clipPath><linearGradient
       x1="0"
       y1="0"
       x2="1"
       y2="0"
       gradientUnits="userSpaceOnUse"
       gradientTransform="matrix(18380.7,0,0,-18380.7,8887.29,8934.5)"
       spreadMethod="pad"
       id="linearGradient152"><stop
         style="stop-opacity:1;stop-color:#ff9f55"
         offset="0"
         id="stop148" /><stop
         style="stop-opacity:1;stop-color:#ffd255"
         offset="1"
         id="stop150" /></linearGradient><clipPath
       clipPathUnits="userSpaceOnUse"
       id="clipPath170"><path
         d="m 6366.86,8817.6 h -228.01 v -617.7 h 228.01 z"
         id="path168" /></clipPath><linearGradient
       x1="0"
       y1="0"
       x2="1"
       y2="0"
       gradientUnits="userSpaceOnUse"
       gradientTransform="matrix(-1.004e-4,2297,2297,1.004e-4,6252.86,7348.3)"
       spreadMethod="pad"
       id="linearGradient176"><stop
         style="stop-opacity:1;stop-color:#ff9f55"
         offset="0"
         id="stop172" /><stop
         style="stop-opacity:1;stop-color:#ffd255"
         offset="1"
         id="stop174" /></linearGradient><clipPath
       clipPathUnits="userSpaceOnUse"
       id="clipPath186"><path
         d="m 6933.04,9068.5 h -228.02 v -868.6 h 228.02 z"
         id="path184" /></clipPath><linearGradient
       x1="0"
       y1="0"
       x2="1"
       y2="0"
       gradientUnits="userSpaceOnUse"
       gradientTransform="matrix(-1.004e-4,2297,2297,1.004e-4,6819.03,7348.4)"
       spreadMethod="pad"
       id="linearGradient192"><stop
         style="stop-opacity:1;stop-color:#ff9f55"
         offset="0"
         id="stop188" /><stop
         style="stop-opacity:1;stop-color:#ffd255"
         offset="1"
         id="stop190" /></linearGradient><clipPath
       clipPathUnits="userSpaceOnUse"
       id="clipPath202"><path
         d="m 7499.21,9199.5 h -228.02 v -999.6 h 228.02 z"
         id="path200" /></clipPath><linearGradient
       x1="0"
       y1="0"
       x2="1"
       y2="0"
       gradientUnits="userSpaceOnUse"
       gradientTransform="matrix(-1.004e-4,2296.99,2296.99,1.004e-4,7385.2,7348.4)"
       spreadMethod="pad"
       id="linearGradient208"><stop
         style="stop-opacity:1;stop-color:#ff9f55"
         offset="0"
         id="stop204" /><stop
         style="stop-opacity:1;stop-color:#ffd255"
         offset="1"
         id="stop206" /></linearGradient><clipPath
       clipPathUnits="userSpaceOnUse"
       id="clipPath218"><path
         d="M 8065.38,9254 H 7837.37 V 8199.9 h 228.01 z"
         id="path216" /></clipPath><linearGradient
       x1="0"
       y1="0"
       x2="1"
       y2="0"
       gradientUnits="userSpaceOnUse"
       gradientTransform="matrix(-1.004e-4,2296.98,2296.98,1.004e-4,7951.38,7348.4)"
       spreadMethod="pad"
       id="linearGradient224"><stop
         style="stop-opacity:1;stop-color:#ff9f55"
         offset="0"
         id="stop220" /><stop
         style="stop-opacity:1;stop-color:#ffd255"
         offset="1"
         id="stop222" /></linearGradient><clipPath
       clipPathUnits="userSpaceOnUse"
       id="clipPath234"><path
         d="m 19365.5,3770.8 h -7137.9 c -331,0 -599.4,268.4 -599.4,599.4 v 3156.6 c 170.8,44.4 334.4,101.4 493.3,168.2 V 4236.9 h 4732.4 c 130.9,-113 301.4,-181.3 487.9,-181.3 h 2534 c -105.6,-170.9 -294.6,-284.8 -510.3,-284.8 m -7737.3,4071.6 v 2147 321 3890.9 c 0,294.8 212.8,539.9 493.3,590.1 V 8031 c -160.3,-75.9 -323.6,-140.2 -493.3,-188.6 m 8336.7,3768.2 h -493.3 v 3180.8 c 214.4,-38.3 389.2,-190.5 459.7,-391.8 21.8,-62.1 33.6,-128.8 33.6,-198.3 v -1677.4 -913.3"
         id="path232" /></clipPath><linearGradient
       x1="0"
       y1="0"
       x2="1"
       y2="0"
       gradientUnits="userSpaceOnUse"
       gradientTransform="matrix(291.143,16537.2,16537.2,-291.143,15628.4,-263.4)"
       spreadMethod="pad"
       id="linearGradient240"><stop
         style="stop-opacity:1;stop-color:#40d5e6"
         offset="0"
         id="stop236" /><stop
         style="stop-opacity:1;stop-color:#5577ff"
         offset="1"
         id="stop238" /></linearGradient><clipPath
       clipPathUnits="userSpaceOnUse"
       id="clipPath252"><path
         d="m 18786.7,13535.4 h -2167.2 v 274.1 h 2167.2 z"
         id="path250" /></clipPath><linearGradient
       x1="0"
       y1="0"
       x2="1"
       y2="0"
       gradientUnits="userSpaceOnUse"
       gradientTransform="matrix(2167.25,0,0,-2167.25,16619.5,13672.4)"
       spreadMethod="pad"
       id="linearGradient258"><stop
         style="stop-opacity:1;stop-color:#40d5e6"
         offset="0"
         id="stop254" /><stop
         style="stop-opacity:1;stop-color:#5577ff"
         offset="1"
         id="stop256" /></linearGradient><clipPath
       clipPathUnits="userSpaceOnUse"
       id="clipPath268"><path
         d="m 18608.9,12386.3 h -1989.4 v 274.1 h 1989.4 z"
         id="path266" /></clipPath><linearGradient
       x1="0"
       y1="0"
       x2="1"
       y2="0"
       gradientUnits="userSpaceOnUse"
       gradientTransform="matrix(1989.41,0,0,-1989.41,16619.5,12523.4)"
       spreadMethod="pad"
       id="linearGradient274"><stop
         style="stop-opacity:1;stop-color:#40d5e6"
         offset="0"
         id="stop270" /><stop
         style="stop-opacity:1;stop-color:#5577ff"
         offset="1"
         id="stop272" /></linearGradient><clipPath
       clipPathUnits="userSpaceOnUse"
       id="clipPath284"><path
         d="m 18340.8,12960.8 h -1721.3 v 274.1 h 1721.3 z"
         id="path282" /></clipPath><linearGradient
       x1="0"
       y1="0"
       x2="1"
       y2="0"
       gradientUnits="userSpaceOnUse"
       gradientTransform="matrix(1721.29,0,0,-1721.29,16619.5,13097.9)"
       spreadMethod="pad"
       id="linearGradient290"><stop
         style="stop-opacity:1;stop-color:#40d5e6"
         offset="0"
         id="stop286" /><stop
         style="stop-opacity:1;stop-color:#5577ff"
         offset="1"
         id="stop288" /></linearGradient><clipPath
       clipPathUnits="userSpaceOnUse"
       id="clipPath300"><path
         d="m 14294.2,15375.6 c -891.6,0 -1617,-725.4 -1617,-1616.9 0,-632.9 372.4,-1211 948.8,-1472.9 210.2,-95.6 435,-144.1 668.2,-144.1 233.2,0 458,48.5 668.2,144.1 576.4,261.9 948.8,840 948.8,1472.9 0,891.5 -725.4,1616.9 -1617,1616.9 z m 0,-3324 c -246.2,0 -483.6,51.2 -705.5,152.1 -608.4,276.5 -1001.6,886.9 -1001.6,1555 0,941.2 765.8,1707 1707.1,1707 941.3,0 1707.1,-765.8 1707.1,-1707 0,-668.1 -393.2,-1278.5 -1001.6,-1555 -221.9,-100.9 -459.3,-152.1 -705.5,-152.1 z"
         id="path298" /></clipPath><linearGradient
       x1="0"
       y1="0"
       x2="1"
       y2="0"
       gradientUnits="userSpaceOnUse"
       gradientTransform="matrix(-1.04e-4,2379.95,2379.95,1.04e-4,14294.2,11432.9)"
       spreadMethod="pad"
       id="linearGradient306"><stop
         style="stop-opacity:1;stop-color:#7db3e0"
         offset="0"
         id="stop302" /><stop
         style="stop-opacity:1;stop-color:#ffffff"
         offset="1"
         id="stop304" /></linearGradient><clipPath
       clipPathUnits="userSpaceOnUse"
       id="clipPath328"><path
         d="m 26223.2,6867.7 c -1404.6,0 -2634.7,576.5 -3902.8,1204.9 -68.1,33.9 -136.5,67.7 -205,101.9 -181,90 -362.6,180.4 -545.7,269.7 v 353.4 c 231,-111.5 459.6,-225.2 687.1,-338.4 169.7,-84.2 338.5,-168.1 507.4,-250.1 1125.1,-547.6 2237.9,-1014.9 3475.2,-1014.9 333,-0.1 674.8,33.8 1028.5,109 v -338.9 c -357.2,-73.3 -688.5,-96.6 -1044.7,-96.6 M 10743.8,7421 c -940.37,0 -1461.57,280.3 -1698.01,467.6 2.53,165.6 11.49,291.2 11.49,291.2 0,0 10.25,23.4 17.2,58.9 241.5,-211.9 764.06,-496.3 1827.02,-496.3 h 29 c 249.1,1.4 478.9,37.5 697.7,100 169.7,48.4 333,112.7 493.3,188.6 331.8,157.2 651.5,364.7 993.5,586.5 837.2,543.1 1785.6,1158.3 3318.8,1315.1 53.9,5.5 107.5,10.5 160.7,14.8 v -319 c -42.6,-3.6 -85.3,-7.6 -128.3,-12 -1456.9,-149 -2371.1,-742.4 -3177.8,-1265.5 -386.2,-250.6 -761.2,-485.2 -1166.9,-655.9 -158.9,-66.8 -322.5,-123.8 -493.3,-168.2 -218.5,-56.8 -448.8,-92.8 -696.2,-102.2 -64.5,-2.4 -127.2,-3.6 -188.2,-3.6"
         id="path326" /></clipPath><radialGradient
       fx="0"
       fy="0"
       cx="0"
       cy="0"
       r="1"
       gradientUnits="userSpaceOnUse"
       gradientTransform="matrix(6590.68,0,0,-6590.68,18077.6,8420.8)"
       spreadMethod="pad"
       id="radialGradient338"><stop
         style="stop-opacity:1;stop-color:#90c2e8"
         offset="0"
         id="stop330" /><stop
         style="stop-opacity:1;stop-color:#90c2e8"
         offset="0.160246"
         id="stop332" /><stop
         style="stop-opacity:1;stop-color:#47afff"
         offset="0.58057"
         id="stop334" /><stop
         style="stop-opacity:1;stop-color:#6783f5"
         offset="1"
         id="stop336" /></radialGradient><clipPath
       clipPathUnits="userSpaceOnUse"
       id="clipPath350"><path
         d="m 19964.9,8182.9 v 399.8 c 165.3,125 329.6,248.1 493,368.6 115.4,-47.8 229.6,-96.9 343.2,-147.3 -274.5,-198.1 -552.7,-406.2 -836.2,-621.1"
         id="path348" /></clipPath><linearGradient
       x1="0"
       y1="0"
       x2="1"
       y2="0"
       gradientUnits="userSpaceOnUse"
       gradientTransform="matrix(18380.7,0,0,-18380.7,8887.29,8934.5)"
       spreadMethod="pad"
       id="linearGradient356"><stop
         style="stop-opacity:1;stop-color:#fff8f2"
         offset="0"
         id="stop352" /><stop
         style="stop-opacity:1;stop-color:#fffcf2"
         offset="1"
         id="stop354" /></linearGradient><clipPath
       clipPathUnits="userSpaceOnUse"
       id="clipPath368"><path
         d="m 19964.9,10172.5 v 1438.1 h 857.6 c 335.9,0 620,-221.6 714.1,-526.6 -403,-362.1 -917.1,-687.2 -1571.7,-911.5"
         id="path366" /></clipPath><linearGradient
       x1="0"
       y1="0"
       x2="1"
       y2="0"
       gradientUnits="userSpaceOnUse"
       gradientTransform="matrix(739.927,569.47,569.47,-739.927,-25547.7,-23800.6)"
       spreadMethod="pad"
       id="linearGradient374"><stop
         style="stop-opacity:1;stop-color:#f3eff6"
         offset="0"
         id="stop370" /><stop
         style="stop-opacity:1;stop-color:#f2f4ff"
         offset="1"
         id="stop372" /></linearGradient><clipPath
       clipPathUnits="userSpaceOnUse"
       id="clipPath384"><path
         d="m 21101.6,9017.8 c -113.5,51.9 -227.9,102.8 -343.2,152.4 272.6,196 542.9,383 811.3,556.7 v -391 c -155,-101.8 -310.8,-207.9 -468.1,-318.1"
         id="path382" /></clipPath><linearGradient
       x1="0"
       y1="0"
       x2="1"
       y2="0"
       gradientUnits="userSpaceOnUse"
       gradientTransform="matrix(18380.7,0,0,-18380.7,8887.29,8934.5)"
       spreadMethod="pad"
       id="linearGradient390"><stop
         style="stop-opacity:1;stop-color:#fff8f2"
         offset="0"
         id="stop386" /><stop
         style="stop-opacity:1;stop-color:#fffcf2"
         offset="1"
         id="stop388" /></linearGradient><clipPath
       clipPathUnits="userSpaceOnUse"
       id="clipPath400"><path
         d="m 19875.8,4055.6 h -2534 c -186.5,0 -357,68.3 -487.9,181.3 h 2617.7 v 5071.4 c 166.9,-50.9 331.2,-106.2 493.3,-165.1 V 8582.7 8182.9 4370.2 c 0,-115.3 -32.6,-223.1 -89.1,-314.6 m 89.1,5426.6 c -162,57 -326.2,110.5 -493.3,159.6 v 1968.8 h 493.3 v -1438.1 -690.3"
         id="path398" /></clipPath><linearGradient
       x1="0"
       y1="0"
       x2="1"
       y2="0"
       gradientUnits="userSpaceOnUse"
       gradientTransform="matrix(291.143,16537.2,16537.2,-291.143,15628.4,-263.4)"
       spreadMethod="pad"
       id="linearGradient406"><stop
         style="stop-opacity:1;stop-color:#f1fcfe"
         offset="0"
         id="stop402" /><stop
         style="stop-opacity:1;stop-color:#f2f5ff"
         offset="1"
         id="stop404" /></linearGradient><clipPath
       clipPathUnits="userSpaceOnUse"
       id="clipPath418"><path
         d="m 21569.7,8444.2 c -253,123.3 -508.7,244.6 -768.6,359.8 -113.6,50.4 -227.8,99.5 -343.2,147.3 -162.2,67.1 -326.5,131.4 -493,191.9 -162.1,58.9 -326.4,114.2 -493.3,165.1 -694.4,211.7 -1434,347.2 -2245.6,347.2 -205.7,0 -416,-8.7 -631.5,-27.1 v 319 c 217.8,17.9 430.8,26.4 638.6,26.4 810,0 1547.1,-128.7 2238.5,-332 167.1,-49.1 331.3,-102.6 493.3,-159.6 270.4,-95.2 534.3,-200.4 793.5,-312 115.3,-49.6 229.7,-100.5 343.2,-152.4 157.4,-71.8 313.3,-145.5 468.1,-220.2 v -353.4"
         id="path416" /></clipPath><radialGradient
       fx="0"
       fy="0"
       cx="0"
       cy="0"
       r="1"
       gradientUnits="userSpaceOnUse"
       gradientTransform="matrix(6590.68,0,0,-6590.68,18077.6,8420.8)"
       spreadMethod="pad"
       id="radialGradient428"><stop
         style="stop-opacity:1;stop-color:#f7fbfe"
         offset="0"
         id="stop420" /><stop
         style="stop-opacity:1;stop-color:#f7fbfe"
         offset="0.160246"
         id="stop422" /><stop
         style="stop-opacity:1;stop-color:#f1f9ff"
         offset="0.58057"
         id="stop424" /><stop
         style="stop-opacity:1;stop-color:#f4f6ff"
         offset="1"
         id="stop426" /></radialGradient><clipPath
       clipPathUnits="userSpaceOnUse"
       id="clipPath460"><path
         d="m 7169.3,6548.8 h 502.58 l -153.83,319 h -502.58 z"
         id="path458" /></clipPath><linearGradient
       x1="0"
       y1="0"
       x2="1"
       y2="0"
       gradientUnits="userSpaceOnUse"
       gradientTransform="matrix(-87.3469,3508.32,3508.32,87.3469,7381.26,5198.3)"
       spreadMethod="pad"
       id="linearGradient466"><stop
         style="stop-opacity:1;stop-color:#ff9f55"
         offset="0"
         id="stop462" /><stop
         style="stop-opacity:1;stop-color:#ffd255"
         offset="1"
         id="stop464" /></linearGradient><clipPath
       clipPathUnits="userSpaceOnUse"
       id="clipPath476"><path
         d="m 6934.13,6548.8 h 119.76 l -153.83,319 h -119.77 z"
         id="path474" /></clipPath><linearGradient
       x1="0"
       y1="0"
       x2="1"
       y2="0"
       gradientUnits="userSpaceOnUse"
       gradientTransform="matrix(-87.3466,3508.31,3508.31,87.3466,6954.94,5187.8)"
       spreadMethod="pad"
       id="linearGradient482"><stop
         style="stop-opacity:1;stop-color:#ff9f55"
         offset="0"
         id="stop478" /><stop
         style="stop-opacity:1;stop-color:#ffd255"
         offset="1"
         id="stop480" /></linearGradient><clipPath
       clipPathUnits="userSpaceOnUse"
       id="clipPath492"><path
         d="m 15700.1,16808.5 h 995 v 180.2 h -995 z"
         id="path490" /></clipPath><linearGradient
       x1="0"
       y1="0"
       x2="1"
       y2="0"
       gradientUnits="userSpaceOnUse"
       gradientTransform="matrix(-786.07,-2940.49,-2940.49,786.07,16573.8,18305.8)"
       spreadMethod="pad"
       id="linearGradient498"><stop
         style="stop-opacity:1;stop-color:#ff9f55"
         offset="0"
         id="stop494" /><stop
         style="stop-opacity:1;stop-color:#ffd255"
         offset="1"
         id="stop496" /></linearGradient><clipPath
       clipPathUnits="userSpaceOnUse"
       id="clipPath508"><path
         d="m 15700.1,17038.9 h 995 v 33.9 h -995 z"
         id="path506" /></clipPath><linearGradient
       x1="0"
       y1="0"
       x2="1"
       y2="0"
       gradientUnits="userSpaceOnUse"
       gradientTransform="matrix(-786.106,-2940.62,-2940.62,786.106,16534.6,18316.4)"
       spreadMethod="pad"
       id="linearGradient514"><stop
         style="stop-opacity:1;stop-color:#ff9f55"
         offset="0"
         id="stop510" /><stop
         style="stop-opacity:1;stop-color:#ffd255"
         offset="1"
         id="stop512" /></linearGradient><clipPath
       clipPathUnits="userSpaceOnUse"
       id="clipPath524"><path
         d="m 14516.6,12823.3 h -444.8 V 14694 h 444.8 z"
         id="path522" /></clipPath><linearGradient
       x1="0"
       y1="0"
       x2="1"
       y2="0"
       gradientUnits="userSpaceOnUse"
       gradientTransform="matrix(189.245,-2896.93,-2896.93,-189.245,14215.2,14967.8)"
       spreadMethod="pad"
       id="linearGradient530"><stop
         style="stop-opacity:1;stop-color:#40d5e6"
         offset="0"
         id="stop526" /><stop
         style="stop-opacity:1;stop-color:#5577ff"
         offset="1"
         id="stop528" /></linearGradient><clipPath
       clipPathUnits="userSpaceOnUse"
       id="clipPath540"><path
         d="m 13358.8,13536.2 v 444.9 h 1870.8 v -444.9 z"
         id="path538" /></clipPath><linearGradient
       x1="0"
       y1="0"
       x2="1"
       y2="0"
       gradientUnits="userSpaceOnUse"
       gradientTransform="matrix(189.244,-2896.92,-2896.92,-189.244,14215.2,14967.8)"
       spreadMethod="pad"
       id="linearGradient546"><stop
         style="stop-opacity:1;stop-color:#40d5e6"
         offset="0"
         id="stop542" /><stop
         style="stop-opacity:1;stop-color:#5577ff"
         offset="1"
         id="stop544" /></linearGradient><clipPath
       clipPathUnits="userSpaceOnUse"
       id="clipPath580"><path
         d="m 8920.7,6748.2 c -22.66,17.8 -44.98,35.6 -66.74,53.3 v 1782.7 c 20.42,-8.9 41.99,-22.2 66.74,-39.4 v -136.9 c -23.61,34.5 -33.1,55.7 -33.42,56.9 v -413.6 c 1.18,-5.4 11.92,-22 33.42,-46.5 V 6748.2"
         id="path578" /></clipPath><linearGradient
       x1="0"
       y1="0"
       x2="1"
       y2="0"
       gradientUnits="userSpaceOnUse"
       gradientTransform="matrix(1.604e-4,3668.94,-3668.94,1.604e-4,8887.33,5088.9)"
       spreadMethod="pad"
       id="linearGradient586"><stop
         style="stop-opacity:1;stop-color:#f3eff6"
         offset="0"
         id="stop582" /><stop
         style="stop-opacity:1;stop-color:#f2f4ff"
         offset="1"
         id="stop584" /></linearGradient><clipPath
       clipPathUnits="userSpaceOnUse"
       id="clipPath596"><path
         d="m 9045.79,7888.6 c -58.41,46.2 -99.41,86.8 -125.09,116.1 -21.5,24.5 -32.24,41.1 -33.42,46.5 v 413.6 c 0.32,-1.2 9.81,-22.4 33.42,-56.9 28.25,-41.3 76.68,-101.5 153.78,-169.2 -6.95,-35.5 -17.2,-58.9 -17.2,-58.9 0,0 -8.96,-125.6 -11.49,-291.2"
         id="path594" /></clipPath><radialGradient
       fx="0"
       fy="0"
       cx="0"
       cy="0"
       r="1"
       gradientUnits="userSpaceOnUse"
       gradientTransform="matrix(6590.68,0,0,-6590.68,18077.6,8420.8)"
       spreadMethod="pad"
       id="radialGradient606"><stop
         style="stop-opacity:1;stop-color:#f7fbfe"
         offset="0"
         id="stop598" /><stop
         style="stop-opacity:1;stop-color:#f7fbfe"
         offset="0.160246"
         id="stop600" /><stop
         style="stop-opacity:1;stop-color:#f1f9ff"
         offset="0.58057"
         id="stop602" /><stop
         style="stop-opacity:1;stop-color:#f4f6ff"
         offset="1"
         id="stop604" /></radialGradient></defs><sodipodi:namedview
     pagecolor="#ffffff"
     bordercolor="#666666"
     borderopacity="1"
     objecttolerance="10"
     gridtolerance="10"
     guidetolerance="10"
     inkscape:pageopacity="0"
     inkscape:pageshadow="2"
     inkscape:window-width="640"
     inkscape:window-height="480"
     id="namedview4" /><g
     id="g10"
     inkscape:groupmode="layer"
     inkscape:label="ink_ext_XXXXXX"
     transform="matrix(1.3333333,0,0,-1.3333333,0,2666.6667)"><g
       id="g12"
       transform="scale(0.1)"><path
         d="M 0,0 H 32292.5 V 20000 H 0 Z"
         style="fill:#fff;fill-opacity:1;fill-rule:nonzero;stroke:none"
         id="path14" /><g
         id="g16"><g
           id="g18"
           clip-path="url(#clipPath22)"><path
             d="m 19534.2,16688.8 c 675.4,96.4 1301.2,-373 1397.6,-1048.4 96.5,-675.5 -372.9,-1301.2 -1048.3,-1397.7 -675.5,-96.4 -1301.3,372.9 -1397.7,1048.4 -96.4,675.5 372.9,1301.2 1048.4,1397.7 z M 18176,14826.1 c 60.1,-144.3 139.7,-277.3 234.9,-396.4 l -139.7,-292.9 282.1,-211.6 282,-211.5 242.2,216.1 c 141,-58.2 290.9,-97.3 446.2,-114.6 l 108.3,-305.7 349,49.8 349.1,49.9 18.4,323.7 c 144.2,60.1 277.2,139.7 396.3,234.9 l 293,-139.7 211.5,282.1 211.6,282 -216.1,242.2 c 58.1,141 97.3,290.9 114.6,446.2 l 305.7,108.3 -49.9,349 -49.8,349.1 -323.8,18.4 c -60.1,144.3 -139.6,277.2 -234.9,396.3 l 139.7,293 -282,211.5 -282.1,211.6 -242.1,-216.1 c -141,58.1 -290.9,97.3 -446.3,114.6 l -108.3,305.7 -349,-49.9 -349,-49.8 -18.4,-323.8 c -144.3,-60.1 -277.3,-139.6 -396.4,-234.9 l -292.9,139.7 -211.6,-282 -211.5,-282.1 216.1,-242.1 c -58.2,-141 -97.3,-290.9 -114.6,-446.3 l -305.7,-108.2 49.8,-349.1 49.9,-349 323.7,-18.4"
             style="fill:url(#linearGradient28);fill-opacity:1;fill-rule:nonzero;stroke:none"
             id="path30" /></g></g><g
         id="g32"><g
           id="g34"
           clip-path="url(#clipPath38)"><path
             d="m 21960.3,17650.8 c 253,36.1 487.3,-139.7 523.4,-392.7 36.1,-252.9 -139.6,-487.3 -392.6,-523.4 -253,-36.1 -487.3,139.7 -523.4,392.6 -36.2,253 139.6,487.4 392.6,523.5 z m -508.6,-697.6 c 22.5,-54 52.3,-103.8 87.9,-148.4 l -52.3,-109.8 105.6,-79.2 105.7,-79.2 90.6,80.9 c 52.9,-21.8 109,-36.4 167.2,-42.9 l 40.5,-114.5 130.7,18.7 130.8,18.6 6.8,121.3 c 54.1,22.5 103.9,52.3 148.5,88 l 109.7,-52.3 79.2,105.6 79.3,105.6 -81,90.7 c 21.8,52.8 36.5,108.9 42.9,167.1 l 114.5,40.6 -18.6,130.7 -18.7,130.7 -121.3,6.9 c -22.5,54 -52.3,103.8 -87.9,148.4 l 52.3,109.7 -105.6,79.3 -105.7,79.2 -90.7,-80.9 c -52.8,21.7 -108.9,36.4 -167.1,42.9 l -40.5,114.5 -130.7,-18.7 -130.8,-18.7 -6.9,-121.2 c -54,-22.5 -103.8,-52.3 -148.4,-88 l -109.7,52.3 -79.2,-105.6 -79.3,-105.6 81,-90.7 c -21.8,-52.8 -36.5,-109 -43,-167.1 l -114.4,-40.6 18.6,-130.7 18.7,-130.7 121.3,-6.9"
             style="fill:url(#linearGradient44);fill-opacity:1;fill-rule:nonzero;stroke:none"
             id="path46" /></g></g><path
         d="m 15551.8,4787.5 h -66.8 v 7001.6 h 66.8 V 4787.5"
         style="fill:#f3f3f3;fill-opacity:1;fill-rule:nonzero;stroke:none"
         id="path48" /><path
         d="m 16237.8,12469.3 h -719.4 v 182.5 h 719.4 v -182.5"
         style="fill:#fff;fill-opacity:1;fill-rule:nonzero;stroke:none"
         id="path50" /><path
         d="m 16094,12132 h -575.6 v 182.5 H 16094 V 12132"
         style="fill:#fff;fill-opacity:1;fill-rule:nonzero;stroke:none"
         id="path52" /><path
         d="m 16306.7,4129.4 h -754.9 v 243.4 h 754.9 v -243.4"
         style="fill:#fafafa;fill-opacity:1;fill-rule:nonzero;stroke:none"
         id="path54" /><g
         id="g56"><g
           id="g58"
           clip-path="url(#clipPath62)"><path
             d="m 18289.6,14230.3 c 0,0 1460.2,-1731.4 533.9,-2852.5 -926.2,-1121.1 -1181.1,-21.8 -1181.1,-21.8 0,0 -554.3,-103 405.9,1299.3 452.5,660.9 241.3,1575 241.3,1575"
             style="fill:url(#linearGradient68);fill-opacity:1;fill-rule:nonzero;stroke:none"
             id="path70" /></g></g><g
         id="g72"><g
           id="g74"
           clip-path="url(#clipPath78)"><path
             d="m 19964.9,12523.9 v 1677.4 c 0,69.5 -11.8,136.2 -33.6,198.3 403.9,408.2 915.2,806.9 1558.8,1181.6 0,0 768.7,-1134.9 -114.9,-2594.2 -432.2,-110.5 -905.3,-236.5 -1410.3,-463.1"
             style="fill:url(#linearGradient84);fill-opacity:1;fill-rule:nonzero;stroke:none"
             id="path86" /></g></g><g
         id="g88"><g
           id="g90"
           clip-path="url(#clipPath94)"><path
             d="m 21536.6,11084 c -94.1,305 -378.2,526.6 -714.1,526.6 h -857.6 v 913.3 c 505,226.6 978.1,352.6 1410.3,463.1 621.7,159 1158.8,285.6 1584.2,632.4 0,0 -200.8,-1437.6 -1422.8,-2535.4"
             style="fill:url(#linearGradient100);fill-opacity:1;fill-rule:nonzero;stroke:none"
             id="path102" /></g></g><g
         id="g104"><g
           id="g106"
           clip-path="url(#clipPath110)"><path
             d="m 8920.7,4787.5 h -66.74 v 2014 c 21.76,-17.7 44.08,-35.5 66.74,-53.3 V 4787.5 m 0,3757.3 c -24.75,17.2 -46.32,30.5 -66.74,39.4 v 3204.9 h 66.74 V 9577 c -20.27,-21.9 -30.86,-35.6 -33.42,-38.9 v -465.9 c 1.01,1.2 12.17,15.4 33.42,39.5 v -566.9"
             style="fill:url(#linearGradient116);fill-opacity:1;fill-rule:nonzero;stroke:none"
             id="path118" /></g></g><path
         d="m 13665.7,4787.5 h -66.7 v 7001.6 h 66.7 V 4787.5"
         style="fill:#f3f3f3;fill-opacity:1;fill-rule:nonzero;stroke:none"
         id="path120" /><path
         d="m 18344,4787.5 h 66.699 v 7001.59 H 18344 Z"
         style="fill:#f3f3f3;fill-opacity:1;fill-rule:nonzero;stroke:none"
         id="path122" /><path
         d="M 10023.9,12469.3 H 8887.33 v 182.5 h 1136.57 v -182.5"
         style="fill:#e0e0e0;fill-opacity:1;fill-rule:nonzero;stroke:none"
         id="path124" /><path
         d="M 10499.5,12132 H 8887.33 v 182.5 H 10499.5 V 12132"
         style="fill:#e0e0e0;fill-opacity:1;fill-rule:nonzero;stroke:none"
         id="path126" /><path
         d="m 14915.5,12469.3 h -1334.3 v 182.5 h 1334.3 v -182.5"
         style="fill:#fafafa;fill-opacity:1;fill-rule:nonzero;stroke:none"
         id="path128" /><path
         d="m 14434.4,12132 h -853.2 v 182.5 h 853.2 V 12132"
         style="fill:#fafafa;fill-opacity:1;fill-rule:nonzero;stroke:none"
         id="path130" /><path
         d="m 19237.6,12469.3 h -826.9 v 182.5 h 826.9 v -182.5"
         style="fill:#fafafa;fill-opacity:1;fill-rule:nonzero;stroke:none"
         id="path132" /><path
         d="m 19374.5,12132 h -963.8 v 182.5 h 963.8 V 12132"
         style="fill:#fafafa;fill-opacity:1;fill-rule:nonzero;stroke:none"
         id="path134" /><path
         d="m 14387.3,4129.4 h -754.9 v 243.4 h 754.9 v -243.4"
         style="fill:#fafafa;fill-opacity:1;fill-rule:nonzero;stroke:none"
         id="path136" /><path
         d="m 18410.7,4129.4 h 755 v 243.402 h -755 z"
         style="fill:#fafafa;fill-opacity:1;fill-rule:nonzero;stroke:none"
         id="path138" /><g
         id="g140"><g
           id="g142"
           clip-path="url(#clipPath146)"><path
             d="m 8887.28,9072.2 v 465.9 c 2.56,3.3 13.15,17 33.42,38.9 81.2,88 317.72,308.8 814.61,521.9 315.79,135.4 751.59,255.4 1302.89,255.4 183.9,0 380.5,-13.3 590,-43.9 v -321 c -186.8,28 -364.1,40.6 -532,40.6 -1285.87,0 -2015.87,-737.7 -2175.5,-918.3 -21.25,-24.1 -32.41,-38.3 -33.42,-39.5 m 12682.42,263.7 v 391 c 713.6,461.9 1414.1,830.7 2109.1,1030.1 374.2,107.5 752.8,164.9 1132.6,164.9 548.8,0 1100.3,-119.8 1645.7,-381.2 272.3,-130.1 543.1,-295.9 810.8,-499.4 v -418.2 c -351.2,279.8 -696.8,491.6 -1039,642.7 -473.4,209.3 -940.1,303.2 -1405.3,303.2 -1071.3,0 -2134.7,-498.3 -3253.9,-1233.1"
             style="fill:url(#linearGradient152);fill-opacity:1;fill-rule:nonzero;stroke:none"
             id="path154" /></g></g><path
         d="m 6366.86,9184.5 h -228.01 v -984.6 h 228.01 v 984.6"
         style="fill:#e0e0e0;fill-opacity:1;fill-rule:nonzero;stroke:none"
         id="path156" /><path
         d="M 6933.04,9584.5 H 6705.02 V 8199.9 h 228.02 v 1384.6"
         style="fill:#e0e0e0;fill-opacity:1;fill-rule:nonzero;stroke:none"
         id="path158" /><path
         d="M 7499.21,9793.1 H 7271.19 V 8199.9 h 228.02 v 1593.2"
         style="fill:#e0e0e0;fill-opacity:1;fill-rule:nonzero;stroke:none"
         id="path160" /><path
         d="M 8065.38,9880.1 H 7837.37 V 8199.9 h 228.01 v 1680.2"
         style="fill:#e0e0e0;fill-opacity:1;fill-rule:nonzero;stroke:none"
         id="path162" /><g
         id="g164"><g
           id="g166"
           clip-path="url(#clipPath170)"><path
             d="m 6366.86,8817.6 h -228.01 v -617.7 h 228.01 v 617.7"
             style="fill:url(#linearGradient176);fill-opacity:1;fill-rule:nonzero;stroke:none"
             id="path178" /></g></g><g
         id="g180"><g
           id="g182"
           clip-path="url(#clipPath186)"><path
             d="m 6933.04,9068.5 h -228.02 v -868.6 h 228.02 v 868.6"
             style="fill:url(#linearGradient192);fill-opacity:1;fill-rule:nonzero;stroke:none"
             id="path194" /></g></g><g
         id="g196"><g
           id="g198"
           clip-path="url(#clipPath202)"><path
             d="m 7499.21,9199.5 h -228.02 v -999.6 h 228.02 v 999.6"
             style="fill:url(#linearGradient208);fill-opacity:1;fill-rule:nonzero;stroke:none"
             id="path210" /></g></g><g
         id="g212"><g
           id="g214"
           clip-path="url(#clipPath218)"><path
             d="M 8065.38,9254 H 7837.37 V 8199.9 h 228.01 V 9254"
             style="fill:url(#linearGradient224);fill-opacity:1;fill-rule:nonzero;stroke:none"
             id="path226" /></g></g><g
         id="g228"><g
           id="g230"
           clip-path="url(#clipPath234)"><path
             d="m 19365.5,3770.8 h -7137.9 c -331,0 -599.4,268.4 -599.4,599.4 v 3156.6 c 170.8,44.4 334.4,101.4 493.3,168.2 V 4236.9 h 4732.4 c 130.9,-113 301.4,-181.3 487.9,-181.3 h 2534 c -105.6,-170.9 -294.6,-284.8 -510.3,-284.8 m -7737.3,4071.6 v 2147 321 3890.9 c 0,294.8 212.8,539.9 493.3,590.1 V 8031 c -160.3,-75.9 -323.6,-140.2 -493.3,-188.6 m 8336.7,3768.2 h -493.3 v 3180.8 c 214.4,-38.3 389.2,-190.5 459.7,-391.8 21.8,-62.1 33.6,-128.8 33.6,-198.3 v -1677.4 -913.3"
             style="fill:url(#linearGradient240);fill-opacity:1;fill-rule:nonzero;stroke:none"
             id="path242" /></g></g><path
         d="M 19471.6,16014.5 H 12524 c -222.3,0 -402.5,-180.2 -402.5,-402.6 v -11375 h 7350.1 v 11777.6"
         style="fill:#f5f5f5;fill-opacity:1;fill-rule:nonzero;stroke:none"
         id="path244" /><g
         id="g246"><g
           id="g248"
           clip-path="url(#clipPath252)"><path
             d="m 18786.7,13535.4 h -2167.2 v 274.1 h 2167.2 v -274.1"
             style="fill:url(#linearGradient258);fill-opacity:1;fill-rule:nonzero;stroke:none"
             id="path260" /></g></g><g
         id="g262"><g
           id="g264"
           clip-path="url(#clipPath268)"><path
             d="m 18608.9,12386.3 h -1989.4 v 274.1 h 1989.4 v -274.1"
             style="fill:url(#linearGradient274);fill-opacity:1;fill-rule:nonzero;stroke:none"
             id="path276" /></g></g><g
         id="g278"><g
           id="g280"
           clip-path="url(#clipPath284)"><path
             d="m 18340.8,12960.8 h -1721.3 v 274.1 h 1721.3 v -274.1"
             style="fill:url(#linearGradient290);fill-opacity:1;fill-rule:nonzero;stroke:none"
             id="path292" /></g></g><g
         id="g294"><g
           id="g296"
           clip-path="url(#clipPath300)"><path
             d="m 14294.2,15375.6 c -891.6,0 -1617,-725.4 -1617,-1616.9 0,-632.9 372.4,-1211 948.8,-1472.9 210.2,-95.6 435,-144.1 668.2,-144.1 233.2,0 458,48.5 668.2,144.1 576.4,261.9 948.8,840 948.8,1472.9 0,891.5 -725.4,1616.9 -1617,1616.9 z m 0,-3324 c -246.2,0 -483.6,51.2 -705.5,152.1 -608.4,276.5 -1001.6,886.9 -1001.6,1555 0,941.2 765.8,1707 1707.1,1707 941.3,0 1707.1,-765.8 1707.1,-1707 0,-668.1 -393.2,-1278.5 -1001.6,-1555 -221.9,-100.9 -459.3,-152.1 -705.5,-152.1"
             style="fill:url(#linearGradient306);fill-opacity:1;fill-rule:nonzero;stroke:none"
             id="path308" /></g></g><path
         d="m 15077.3,11120 h -2490.2 v 244.4 h 2490.2 V 11120"
         style="fill:#e0e0e0;fill-opacity:1;fill-rule:nonzero;stroke:none"
         id="path310" /><path
         d="m 15077.3,10462.4 h -2490.2 v 244.5 h 2490.2 v -244.5"
         style="fill:#e0e0e0;fill-opacity:1;fill-rule:nonzero;stroke:none"
         id="path312" /><path
         d="m 15077.3,9804.9 h -2490.2 v 244.4 h 2490.2 v -244.4"
         style="fill:#e0e0e0;fill-opacity:1;fill-rule:nonzero;stroke:none"
         id="path314" /><path
         d="m 16001.3,11120 h -415.7 v 244.4 h 415.7 V 11120"
         style="fill:#4e7ed6;fill-opacity:1;fill-rule:nonzero;stroke:none"
         id="path316" /><path
         d="m 16001.3,10462.4 h -415.7 v 244.5 h 415.7 v -244.5"
         style="fill:#4e7ed6;fill-opacity:1;fill-rule:nonzero;stroke:none"
         id="path318" /><path
         d="m 16001.3,9804.9 h -415.7 v 244.4 h 415.7 v -244.4"
         style="fill:#4e7ed6;fill-opacity:1;fill-rule:nonzero;stroke:none"
         id="path320" /><g
         id="g322"><g
           id="g324"
           clip-path="url(#clipPath328)"><path
             d="m 26223.2,6867.7 c -1404.6,0 -2634.7,576.5 -3902.8,1204.9 -68.1,33.9 -136.5,67.7 -205,101.9 -181,90 -362.6,180.4 -545.7,269.7 v 353.4 c 231,-111.5 459.6,-225.2 687.1,-338.4 169.7,-84.2 338.5,-168.1 507.4,-250.1 1125.1,-547.6 2237.9,-1014.9 3475.2,-1014.9 333,-0.1 674.8,33.8 1028.5,109 v -338.9 c -357.2,-73.3 -688.5,-96.6 -1044.7,-96.6 M 10743.8,7421 c -940.37,0 -1461.57,280.3 -1698.01,467.6 2.53,165.6 11.49,291.2 11.49,291.2 0,0 10.25,23.4 17.2,58.9 241.5,-211.9 764.06,-496.3 1827.02,-496.3 h 29 c 249.1,1.4 478.9,37.5 697.7,100 169.7,48.4 333,112.7 493.3,188.6 331.8,157.2 651.5,364.7 993.5,586.5 837.2,543.1 1785.6,1158.3 3318.8,1315.1 53.9,5.5 107.5,10.5 160.7,14.8 v -319 c -42.6,-3.6 -85.3,-7.6 -128.3,-12 -1456.9,-149 -2371.1,-742.4 -3177.8,-1265.5 -386.2,-250.6 -761.2,-485.2 -1166.9,-655.9 -158.9,-66.8 -322.5,-123.8 -493.3,-168.2 -218.5,-56.8 -448.8,-92.8 -696.2,-102.2 -64.5,-2.4 -127.2,-3.6 -188.2,-3.6"
             style="fill:url(#radialGradient338);fill-opacity:1;fill-rule:nonzero;stroke:none"
             id="path340" /></g></g><path
         d="m 20822.5,4055.6 h -946.7 c 56.5,91.5 89.1,199.3 89.1,314.6 v 3812.7 c 283.5,214.9 561.7,423 836.2,621.1 259.9,-115.2 515.6,-236.5 768.6,-359.8 V 4802.9 c 0,-412.7 -334.5,-747.3 -747.2,-747.3 m -857.6,4527.1 v 560.5 c 166.5,-60.5 330.8,-124.8 493,-191.9 -163.4,-120.5 -327.7,-243.6 -493,-368.6"
         style="fill:#fafafa;fill-opacity:1;fill-rule:nonzero;stroke:none"
         id="path342" /><g
         id="g344"><g
           id="g346"
           clip-path="url(#clipPath350)"><path
             d="m 19964.9,8182.9 v 399.8 c 165.3,125 329.6,248.1 493,368.6 115.4,-47.8 229.6,-96.9 343.2,-147.3 -274.5,-198.1 -552.7,-406.2 -836.2,-621.1"
             style="fill:url(#linearGradient356);fill-opacity:1;fill-rule:nonzero;stroke:none"
             id="path358" /></g></g><path
         d="m 21569.7,8797.6 c -154.8,74.7 -310.7,148.4 -468.1,220.2 157.3,110.2 313.1,216.3 468.1,318.1 v -538.3 m -811.3,372.6 c -259.2,111.6 -523.1,216.8 -793.5,312 v 690.3 c 654.6,224.3 1168.7,549.4 1571.7,911.5 21.5,-69.7 33.1,-143.9 33.1,-220.7 V 9726.9 c -268.4,-173.7 -538.7,-360.7 -811.3,-556.7"
         style="fill:#fafafa;fill-opacity:1;fill-rule:nonzero;stroke:none"
         id="path360" /><g
         id="g362"><g
           id="g364"
           clip-path="url(#clipPath368)"><path
             d="m 19964.9,10172.5 v 1438.1 h 857.6 c 335.9,0 620,-221.6 714.1,-526.6 -403,-362.1 -917.1,-687.2 -1571.7,-911.5"
             style="fill:url(#linearGradient374);fill-opacity:1;fill-rule:nonzero;stroke:none"
             id="path376" /></g></g><g
         id="g378"><g
           id="g380"
           clip-path="url(#clipPath384)"><path
             d="m 21101.6,9017.8 c -113.5,51.9 -227.9,102.8 -343.2,152.4 272.6,196 542.9,383 811.3,556.7 v -391 c -155,-101.8 -310.8,-207.9 -468.1,-318.1"
             style="fill:url(#linearGradient390);fill-opacity:1;fill-rule:nonzero;stroke:none"
             id="path392" /></g></g><g
         id="g394"><g
           id="g396"
           clip-path="url(#clipPath400)"><path
             d="m 19875.8,4055.6 h -2534 c -186.5,0 -357,68.3 -487.9,181.3 h 2617.7 v 5071.4 c 166.9,-50.9 331.2,-106.2 493.3,-165.1 V 8582.7 8182.9 4370.2 c 0,-115.3 -32.6,-223.1 -89.1,-314.6 m 89.1,5426.6 c -162,57 -326.2,110.5 -493.3,159.6 v 1968.8 h 493.3 v -1438.1 -690.3"
             style="fill:url(#linearGradient406);fill-opacity:1;fill-rule:nonzero;stroke:none"
             id="path408" /></g></g><path
         d="m 19471.6,4236.9 h -2617.7 c -158.9,137 -259.4,339.8 -259.4,566 v 4825.5 c 215.5,18.4 425.8,27.1 631.5,27.1 811.6,0 1551.2,-135.5 2245.6,-347.2 V 4236.9 m 0,5404.9 c -691.4,203.3 -1428.5,332 -2238.5,332 -207.8,0 -420.8,-8.5 -638.6,-26.4 v 915.9 c 0,412.8 334.6,747.3 747.3,747.3 h 2129.8 V 9641.8"
         style="fill:#fafafa;fill-opacity:1;fill-rule:nonzero;stroke:none"
         id="path410" /><g
         id="g412"><g
           id="g414"
           clip-path="url(#clipPath418)"><path
             d="m 21569.7,8444.2 c -253,123.3 -508.7,244.6 -768.6,359.8 -113.6,50.4 -227.8,99.5 -343.2,147.3 -162.2,67.1 -326.5,131.4 -493,191.9 -162.1,58.9 -326.4,114.2 -493.3,165.1 -694.4,211.7 -1434,347.2 -2245.6,347.2 -205.7,0 -416,-8.7 -631.5,-27.1 v 319 c 217.8,17.9 430.8,26.4 638.6,26.4 810,0 1547.1,-128.7 2238.5,-332 167.1,-49.1 331.3,-102.6 493.3,-159.6 270.4,-95.2 534.3,-200.4 793.5,-312 115.3,-49.6 229.7,-100.5 343.2,-152.4 157.4,-71.8 313.3,-145.5 468.1,-220.2 v -353.4"
             style="fill:url(#radialGradient428);fill-opacity:1;fill-rule:nonzero;stroke:none"
             id="path430" /></g></g><path
         d="m 20426.9,9637.7 c -246,-87.9 -511.1,-8.5 -670.9,179.3 -38.1,44.8 -70.2,95.7 -94.6,152 -5.4,12.4 -10.4,25.2 -15.1,38.1 -46.4,130 -46.2,265.3 -7.9,387.6 55.3,176.5 189.7,325.9 377.3,392.9 61.9,22.2 125,33.7 187.3,35.6 257.5,7.8 501.8,-149.3 593.2,-404.9 113.6,-317.5 -51.8,-667 -369.3,-780.6 z m 561.2,849.2 c -121.9,341 -447.7,550.4 -791.2,540 -83.1,-2.5 -167.3,-17.8 -249.9,-47.4 -250.1,-89.4 -429.5,-288.7 -503.2,-524.1 -51,-163.1 -51.4,-343.6 10.6,-517 6.2,-17.2 12.9,-34.2 20.1,-50.7 32.6,-75.1 75.4,-143.1 126.2,-202.8 213.1,-250.5 566.8,-356.4 894.8,-239.1 423.6,151.5 644.1,617.6 492.6,1041.1"
         style="fill:#e0e0e0;fill-opacity:1;fill-rule:nonzero;stroke:none"
         id="path432" /><path
         d="m 19638.4,10394.7 -194.6,60.7 c 73.7,235.4 253.1,434.7 503.2,524.1 82.6,29.6 166.8,44.9 249.9,47.4 l 6.1,-203.7 c -62.3,-1.9 -125.4,-13.4 -187.3,-35.6 -187.6,-67 -322,-216.4 -377.3,-392.9"
         style="fill:#537ffd;fill-opacity:1;fill-rule:nonzero;stroke:none"
         id="path434" /><path
         d="m 19661.4,9969 -186.9,-81.3 c -7.2,16.5 -13.9,33.5 -20.1,50.7 -62,173.4 -61.6,353.9 -10.6,517 l 194.6,-60.7 c -38.3,-122.3 -38.5,-257.6 7.9,-387.6 4.7,-12.9 9.7,-25.7 15.1,-38.1"
         style="fill:#4ba6f3;fill-opacity:1;fill-rule:nonzero;stroke:none"
         id="path436" /><path
         d="m 19600.7,9684.9 c -50.8,59.7 -93.6,127.7 -126.2,202.8 l 186.9,81.3 c 24.4,-56.3 56.5,-107.2 94.6,-152 l -155.3,-132.1"
         style="fill:#46bbed;fill-opacity:1;fill-rule:nonzero;stroke:none"
         id="path438" /><path
         d="m 20214.1,5761.2 h -439 V 4321.8 h 439 v 1439.4"
         style="fill:#46bbed;fill-opacity:1;fill-rule:nonzero;stroke:none"
         id="path440" /><path
         d="m 19561.5,5357.5 h -439 V 4321.8 h 439 v 1035.7"
         style="fill:#46bbed;fill-opacity:1;fill-rule:nonzero;stroke:none"
         id="path442" /><path
         d="m 20847.2,6428.3 h -439 V 4321.8 h 439 v 2106.5"
         style="fill:#46bbed;fill-opacity:1;fill-rule:nonzero;stroke:none"
         id="path444" /><path
         d="m 17259.2,5909.5 -38.2,29.3 715.4,930.8 882.9,-47.9 665.7,1060.3 717.3,74 431,852.4 42.9,-21.7 -442.8,-875.9 -720.1,-74.3 -668.4,-1064.3 -885.8,48 -699.9,-910.7"
         style="fill:#46bbed;fill-opacity:1;fill-rule:nonzero;stroke:none"
         id="path446" /><path
         d="m 18612.1,10538 h -1248.4 c -78.8,0 -142.7,63.9 -142.7,142.8 0,78.8 63.9,142.7 142.7,142.7 h 1248.4 c 78.8,0 142.7,-63.9 142.7,-142.7 0,-78.9 -63.9,-142.8 -142.7,-142.8"
         style="fill:#4e7ed6;fill-opacity:1;fill-rule:nonzero;stroke:none"
         id="path448" /><path
         d="m 18612.1,10040.1 h -1248.4 c -78.8,0 -142.7,63.9 -142.7,142.7 0,78.9 63.9,142.8 142.7,142.8 h 1248.4 c 78.8,0 142.7,-63.9 142.7,-142.8 0,-78.8 -63.9,-142.7 -142.7,-142.7"
         style="fill:#e0e0e0;fill-opacity:1;fill-rule:nonzero;stroke:none"
         id="path450" /><path
         d="m 18612.1,9542.2 h -1248.4 c -78.8,0 -142.7,63.9 -142.7,142.7 0,78.8 63.9,142.7 142.7,142.7 h 1248.4 c 78.8,0 142.7,-63.9 142.7,-142.7 0,-78.8 -63.9,-142.7 -142.7,-142.7"
         style="fill:#e0e0e0;fill-opacity:1;fill-rule:nonzero;stroke:none"
         id="path452" /><g
         id="g454"><g
           id="g456"
           clip-path="url(#clipPath460)"><path
             d="m 7169.3,6548.8 h 502.58 l -153.83,319 h -502.58 l 153.83,-319"
             style="fill:url(#linearGradient466);fill-opacity:1;fill-rule:nonzero;stroke:none"
             id="path468" /></g></g><g
         id="g470"><g
           id="g472"
           clip-path="url(#clipPath476)"><path
             d="m 6934.13,6548.8 h 119.76 l -153.83,319 h -119.77 l 153.84,-319"
             style="fill:url(#linearGradient482);fill-opacity:1;fill-rule:nonzero;stroke:none"
             id="path484" /></g></g><g
         id="g486"><g
           id="g488"
           clip-path="url(#clipPath492)"><path
             d="m 15700.1,16808.5 h 995 v 180.2 h -995 v -180.2"
             style="fill:url(#linearGradient498);fill-opacity:1;fill-rule:nonzero;stroke:none"
             id="path500" /></g></g><g
         id="g502"><g
           id="g504"
           clip-path="url(#clipPath508)"><path
             d="m 15700.1,17038.9 h 995 v 33.9 h -995 v -33.9"
             style="fill:url(#linearGradient514);fill-opacity:1;fill-rule:nonzero;stroke:none"
             id="path516" /></g></g><g
         id="g518"><g
           id="g520"
           clip-path="url(#clipPath524)"><path
             d="m 14516.6,12823.3 h -444.8 V 14694 h 444.8 v -1870.7"
             style="fill:url(#linearGradient530);fill-opacity:1;fill-rule:nonzero;stroke:none"
             id="path532" /></g></g><g
         id="g534"><g
           id="g536"
           clip-path="url(#clipPath540)"><path
             d="m 13358.8,13536.2 v 444.9 h 1870.8 v -444.9 h -1870.8"
             style="fill:url(#linearGradient546);fill-opacity:1;fill-rule:nonzero;stroke:none"
             id="path548" /></g></g><path
         d="m 8047.63,11618.3 c -145.61,-307.7 -463.12,-478.9 -783.48,-453 -76.36,6.1 -152.9,23.5 -227.31,52.9 -16.43,6.4 -32.78,13.5 -48.97,21.2 -162.63,76.9 -287.1,201.9 -364.52,349.9 -111.76,213.5 -125.51,475.1 -14.46,709.8 36.64,77.4 84.19,146.2 139.88,205.4 230.11,244.4 599.99,324.9 919.83,173.6 397.32,-188 566.99,-662.4 379.03,-1059.8 z m -265.4,1299.9 c -426.59,201.8 -919.87,94.5 -1226.85,-231.5 -74.32,-78.9 -137.71,-170.7 -186.62,-274 -148.07,-313 -129.76,-661.9 19.27,-946.8 103.28,-197.4 269.32,-364 486.26,-466.7 21.56,-10.2 43.38,-19.6 65.26,-28.3 99.27,-39.1 201.32,-62.3 303.19,-70.5 427.32,-34.5 850.81,193.9 1045.04,604.3 250.71,529.9 24.37,1162.7 -505.55,1413.5"
         style="fill:#e0e0e0;fill-opacity:1;fill-rule:nonzero;stroke:none"
         id="path550" /><path
         d="m 6623.35,11589.3 -235.32,-123.4 c -149.03,284.9 -167.34,633.8 -19.27,946.8 48.91,103.3 112.3,195.1 186.62,274 l 193.39,-182.2 c -55.69,-59.2 -103.24,-128 -139.88,-205.4 -111.05,-234.7 -97.3,-496.3 14.46,-709.8"
         style="fill:#2d5bad;fill-opacity:1;fill-rule:nonzero;stroke:none"
         id="path552" /><path
         d="m 7036.84,11218.2 -97.29,-247.3 c -21.88,8.7 -43.7,18.1 -65.26,28.3 -216.94,102.7 -382.98,269.3 -486.26,466.7 l 235.32,123.4 c 77.42,-148 201.89,-273 364.52,-349.9 16.19,-7.7 32.54,-14.8 48.97,-21.2"
         style="fill:#5d96ff;fill-opacity:1;fill-rule:nonzero;stroke:none"
         id="path554" /><path
         d="m 7242.74,10900.4 c -101.87,8.2 -203.92,31.4 -303.19,70.5 l 97.29,247.3 c 74.41,-29.4 150.95,-46.8 227.31,-52.9 l -21.41,-264.9"
         style="fill:#5d96ff;fill-opacity:1;fill-rule:nonzero;stroke:none"
         id="path556" /><path
         d="M 7002.14,10200.8 H 5020.05 v 39.4 h 1942.69 v 839.7 h 39.4 v -879.1"
         style="fill:#5d96ff;fill-opacity:1;fill-rule:nonzero;stroke:none"
         id="path558" /><path
         d="M 6063.37,10413.9 H 5020.04 v 236.3 h 1043.33 v -236.3"
         style="fill:#e0e0e0;fill-opacity:1;fill-rule:nonzero;stroke:none"
         id="path560" /><path
         d="m 12456,6772.5 h -1620.1 v -96.2 H 12456 v 96.2"
         style="fill:#e2d2ca;fill-opacity:1;fill-rule:nonzero;stroke:none"
         id="path562" /><path
         d="m 11053,2052.4 h 142 V 6426 h -142 V 2052.4"
         style="fill:#706865;fill-opacity:1;fill-rule:nonzero;stroke:none"
         id="path564" /><path
         d="m 13328.5,6799.7 h -1126.1 v -137.3 h 1126.1 v 137.3"
         style="fill:#ccbdb7;fill-opacity:1;fill-rule:nonzero;stroke:none"
         id="path566" /><path
         d="m 12978.7,6676.3 h -426.5 v 1295.2 h 426.5 V 6676.3"
         style="fill:#998e89;fill-opacity:1;fill-rule:nonzero;stroke:none"
         id="path568" /><path
         d="m 16494,6426 h -6239.3 v 248.7 H 16494 V 6426"
         style="fill:#b59074;fill-opacity:1;fill-rule:nonzero;stroke:none"
         id="path570" /><path
         d="m 9482.64,6345.4 c 0,0 -302.58,199.3 -561.94,402.8 v 1256.5 c 25.68,-29.3 66.68,-69.9 125.09,-116.1 -4.46,-291.6 10.99,-707.2 130.23,-780.3 117.13,-71.7 584.17,-313.7 570.32,-359.1 -13.86,-45.4 -263.7,-403.8 -263.7,-403.8 m -628.68,456.1 c -158.12,128.7 -286.68,252.2 -297.34,320.9 -28.26,181.8 44.16,1401.2 167.44,1457.3 26.52,12.1 49.46,17.8 71.43,17.8 19.63,0 38.49,-4.5 58.47,-13.3 V 6801.5 m 220.52,1437.2 c -77.1,67.7 -125.53,127.9 -153.78,169.2 v 136.9 c 18.28,-12.7 38.3,-27.5 60.86,-44.2 107.49,-79.8 106.3,-193.5 92.92,-261.9"
         style="fill:#fafafa;fill-opacity:1;fill-rule:nonzero;stroke:none"
         id="path572" /><g
         id="g574"><g
           id="g576"
           clip-path="url(#clipPath580)"><path
             d="m 8920.7,6748.2 c -22.66,17.8 -44.98,35.6 -66.74,53.3 v 1782.7 c 20.42,-8.9 41.99,-22.2 66.74,-39.4 v -136.9 c -23.61,34.5 -33.1,55.7 -33.42,56.9 v -413.6 c 1.18,-5.4 11.92,-22 33.42,-46.5 V 6748.2"
             style="fill:url(#linearGradient586);fill-opacity:1;fill-rule:nonzero;stroke:none"
             id="path588" /></g></g><g
         id="g590"><g
           id="g592"
           clip-path="url(#clipPath596)"><path
             d="m 9045.79,7888.6 c -58.41,46.2 -99.41,86.8 -125.09,116.1 -21.5,24.5 -32.24,41.1 -33.42,46.5 v 413.6 c 0.32,-1.2 9.81,-22.4 33.42,-56.9 28.25,-41.3 76.68,-101.5 153.78,-169.2 -6.95,-35.5 -17.2,-58.9 -17.2,-58.9 0,0 -8.96,-125.6 -11.49,-291.2"
             style="fill:url(#radialGradient606);fill-opacity:1;fill-rule:nonzero;stroke:none"
             id="path608" /></g></g><path
         d="m 10161,2649.6 c 0,0 -27.9,-193.7 -31.4,-222.7 -3.5,-29.1 -310.29,17.1 -310.29,17.1 l -24.85,230.5 c 0,0 328.24,2.4 366.54,-24.9"
         style="fill:#424773;fill-opacity:1;fill-rule:nonzero;stroke:none"
         id="path610" /><path
         d="m 10132.9,2451.5 c 0,0 97.2,-116.7 191.2,-167.6 94.1,-50.8 241.8,-71 297.4,-123.6 40.2,-38 146.2,-201.6 -244.3,-198.3 -390.53,3.3 -578.81,-23.1 -620.66,39.6 -41.83,62.7 60.55,463 60.55,463 0,0 92.48,-33.3 315.81,-13.1"
         style="fill:#292c47;fill-opacity:1;fill-rule:nonzero;stroke:none"
         id="path612" /><path
         d="m 12126.9,2647.7 c 0,0 -27.9,-193.6 -31.4,-222.7 -3.5,-29.1 -310.3,17.1 -310.3,17.1 l -24.8,230.6 c 0,0 328.1,2.3 366.5,-25"
         style="fill:#424773;fill-opacity:1;fill-rule:nonzero;stroke:none"
         id="path614" /><path
         d="m 12098.8,2449.6 c 0,0 97.2,-116.6 191.2,-167.5 94.1,-50.9 440.1,-92.6 495.7,-145.3 40.1,-38 106.9,-190.9 -442.6,-176.6 -390.4,10.1 -578.8,-23.1 -620.7,39.6 -41.8,62.7 60.6,463 60.6,463 0,0 87.1,-35.6 315.8,-13.2"
         style="fill:#292c47;fill-opacity:1;fill-rule:nonzero;stroke:none"
         id="path616" /><path
         d="m 9171.34,5994.3 c 0,0 1115.56,-188.7 1367.46,-228.3 252,-39.6 1618.2,-379.5 1789,-483.1 136,-82.5 -71.3,-2062.8 -119.7,-2818.3 H 11670 l -39.1,2266.4 c -645.7,-16.2 -1106.5,151 -1576.7,79.6 -470.2,-71.4 -862.21,-172.9 -1161.01,227.9 0,0 -11.07,868.3 278.15,955.8"
         style="fill:#292c47;fill-opacity:1;fill-rule:nonzero;stroke:none"
         id="path618" /><path
         d="m 10270.9,2462.8 -524.41,32.4 -51.1,2235.8 c -277.99,-7 -373.28,10.7 -598.23,38 l -423.39,984.1 c 371.05,-74.2 1559.93,-374 1718.43,-470.2 136,-82.5 -72.9,-2064.6 -121.3,-2820.1"
         style="fill:#292c47;fill-opacity:1;fill-rule:nonzero;stroke:none"
         id="path620" /><path
         d="m 9684.85,10175.9 c 0,0 408.95,113 564.95,-204.5 156,-317.4 85.3,-919.3 -120.8,-975.9 -206.1,-56.6 -502.48,8.6 -588.04,206.2 -85.56,197.5 -153.8,478.3 -133.32,660.1 20.48,181.8 168.63,270.6 277.21,314.1"
         style="fill:#eea886;fill-opacity:1;fill-rule:nonzero;stroke:none"
         id="path622" /><path
         d="m 10022.1,9058.9 c 0,0 -4.5,-241.5 22.2,-292.9 26.6,-51.5 -569.47,-38.6 -569.47,-38.6 0,0 93.94,289.9 40.65,536.9 -52.75,244.5 506.62,-205.4 506.62,-205.4"
         style="fill:#eea886;fill-opacity:1;fill-rule:nonzero;stroke:none"
         id="path624" /><path
         d="m 9483.37,9355.7 c 0,0 31.85,-64.7 186.14,-54.3 154.29,10.5 357.79,196.6 423.29,213.2 65.5,16.7 69.4,53.9 69.4,53.9 l 34.6,-61.6 67.2,-10.2 c 0,0 -45.7,186.6 53.7,252.2 99.4,65.7 -44.7,594.8 -547.82,467.2 0,0 -383.95,-70.3 -389.1,-284.7 -5.15,-214.4 28.06,-462.1 102.59,-575.7"
         style="fill:#3a3f47;fill-opacity:1;fill-rule:nonzero;stroke:none"
         id="path626" /><path
         d="m 10075.6,8772.2 c 0,0 -1.7,98.3 -46.2,107.7 -44.61,9.5 -468.58,67.8 -523.29,46.3 l -23.47,-129.9 c 0,0 105.42,-64.9 592.96,-24.1"
         style="fill:#e2d2ca;fill-opacity:1;fill-rule:nonzero;stroke:none"
         id="path628" /><path
         d="m 10198.3,9612.5 c -11.5,80.6 -103.1,173.2 -155.6,47.6 -52.46,-125.5 35.5,-308.3 94.3,-298.5 58.9,9.8 76.8,141.5 61.3,250.9"
         style="fill:#eea886;fill-opacity:1;fill-rule:nonzero;stroke:none"
         id="path630" /><path
         d="m 11851.4,7610.2 -0.7,0.1 c 3,-1.3 3.5,-1.5 0.7,-0.1"
         style="fill:#323657;fill-opacity:1;fill-rule:nonzero;stroke:none"
         id="path632" /><path
         d="m 9565.58,10118.3 c 0,0 -498.61,23.5 -87.03,-754.9 l 87.03,754.9"
         style="fill:#3a3f47;fill-opacity:1;fill-rule:nonzero;stroke:none"
         id="path634" /><path
         d="m 8454.64,2197.5 37.09,-104.3 1567.17,485.6 -75.08,211.3 -1529.18,-592.6"
         style="fill:#918783;fill-opacity:1;fill-rule:nonzero;stroke:none"
         id="path636" /><path
         d="M 10112.7,2653.1 H 9934.56 V 4357 h 178.14 V 2653.1"
         style="fill:#918783;fill-opacity:1;fill-rule:nonzero;stroke:none"
         id="path638" /><path
         d="M 10548.9,4347.1 H 9498.31 v 100.4 h 1050.59 v -100.4"
         style="fill:#5e5854;fill-opacity:1;fill-rule:nonzero;stroke:none"
         id="path640" /><path
         d="m 11606.4,2197.5 -37.1,-104.3 -1567.2,485.6 68.9,224.5 1535.4,-605.8"
         style="fill:#918783;fill-opacity:1;fill-rule:nonzero;stroke:none"
         id="path642" /><path
         d="M 10502.2,2104.4 V 1983 l -500.1,595.8 68.9,224.5 431.2,-698.9"
         style="fill:#918783;fill-opacity:1;fill-rule:nonzero;stroke:none"
         id="path644" /><path
         d="m 11752.9,2052.4 c 0,-80.9 -65.6,-146.5 -146.5,-146.5 -80.9,0 -146.5,65.6 -146.5,146.5 0,80.9 65.6,146.5 146.5,146.5 80.9,0 146.5,-65.6 146.5,-146.5"
         style="fill:#bfb2ac;fill-opacity:1;fill-rule:nonzero;stroke:none"
         id="path646" /><path
         d="m 10514.6,2052.4 c 0,-80.9 -65.5,-146.5 -146.4,-146.5 -80.9,0 -146.5,65.6 -146.5,146.5 0,80.9 65.6,146.5 146.5,146.5 80.9,0 146.4,-65.6 146.4,-146.5"
         style="fill:#bfb2ac;fill-opacity:1;fill-rule:nonzero;stroke:none"
         id="path648" /><path
         d="m 8601.1,2052.4 c 0,-80.9 -65.57,-146.5 -146.46,-146.5 -80.89,0 -146.47,65.6 -146.47,146.5 0,80.9 65.58,146.5 146.47,146.5 80.89,0 146.46,-65.6 146.46,-146.5"
         style="fill:#bfb2ac;fill-opacity:1;fill-rule:nonzero;stroke:none"
         id="path650" /><path
         d="M 11103.7,4447.5 H 8957.37 c -94.64,0 -171.35,76.8 -171.35,171.4 v 37.6 c 0,94.6 76.71,171.3 171.35,171.3 h 2146.33 c 94.6,0 171.3,-76.7 171.3,-171.3 v -37.6 c 0,-94.6 -76.7,-171.4 -171.3,-171.4"
         style="fill:#e2d2ca;fill-opacity:1;fill-rule:nonzero;stroke:none"
         id="path652" /><path
         d="m 15695.8,2052.4 h -142 V 6426 h 142 V 2052.4"
         style="fill:#706865;fill-opacity:1;fill-rule:nonzero;stroke:none"
         id="path654" /><path
         d="m 14435.6,7347.6 h -3340.3 c -94.4,0 -170.9,76.5 -170.9,170.9 v 2255.8 c 0,94.4 76.5,170.9 170.9,170.9 h 3340.3 c 94.4,0 171,-76.5 171,-170.9 V 7518.5 c 0,-94.4 -76.6,-170.9 -171,-170.9"
         style="fill:#b8aba5;fill-opacity:1;fill-rule:nonzero;stroke:none"
         id="path656" /><path
         d="m 14462.4,7754.6 h -3393.8 v 2050.2 h 3393.8 V 7754.6"
         style="fill:#f5f7ff;fill-opacity:1;fill-rule:nonzero;stroke:none"
         id="path658" /><path
         d="m 14311.6,7561.2 c 0,-58.2 -61.3,-105.5 -136.8,-105.5 -75.6,0 -136.8,47.3 -136.8,105.5 0,58.3 61.2,105.6 136.8,105.6 75.5,0 136.8,-47.3 136.8,-105.6"
         style="fill:#918681;fill-opacity:1;fill-rule:nonzero;stroke:none"
         id="path660" /><path
         d="m 13527.8,6671.4 v 46.2 c 0,0 -65,287.5 -524.7,287.5 -459.7,0 -450.4,-333.7 -450.4,-333.7 h 975.1"
         style="fill:#998e89;fill-opacity:1;fill-rule:nonzero;stroke:none"
         id="path662" /><path
         d="m 12547.1,6962.4 c 0,0 99.9,7.7 136.5,29.8 36.6,22.1 255.5,169.3 306.9,145.7 51.4,-23.5 393.6,-128.3 381.7,-178.4 -11.9,-50 -43.6,-45.2 -67.7,-36.3 -24.1,8.8 -272.6,61 -294.5,52.2 0,0 244,-89.1 245,-154 1,-65 -51.1,-80.8 -74.2,-105.4 -23.1,-24.5 -50.9,-85.5 -113.8,-90.2 -62.9,-4.7 -369.8,102.1 -433,107 -63.2,4.8 -180.1,-4 -188,6.3 -8,10.3 101.1,223.3 101.1,223.3"
         style="fill:#eea886;fill-opacity:1;fill-rule:nonzero;stroke:none"
         id="path664" /><path
         d="m 10729.1,8635.9 c -318.4,55.9 -653.5,136.3 -653.5,136.3 l -592.98,24.1 c 0,0 -544.22,-119.8 -758.56,-216.6 -20.33,-9.2 -20.42,-485.5 -76.21,-610.4 l 177.7,-374.9 c 0,0 102.65,-742.6 123.94,-1072.9 9.8,-151.6 -27.64,-1465.3 -27.64,-1465.3 0,0 53.27,-26.2 457.97,-70.8 404.71,-44.7 1415.88,16.1 1422.28,63.9 6.4,47.8 -195.8,1779.9 -204.8,1869.6 -13.7,137.6 39.8,773.8 39.8,773.8 76.2,-102.5 270.6,-565 473.2,-785.1 119.2,-129.5 709.4,-208.8 820.6,-212.5 242.2,-8.1 683.9,-56.3 696.8,-32.8 10.4,14.2 38.5,392.1 10.8,401.4 -24.2,8 -844.5,55.3 -1054.6,166.8 -76.9,40.8 -306.8,541.9 -306.8,541.9 0,0 -372.3,784.5 -548,863.5"
         style="fill:#dbdff0;fill-opacity:1;fill-rule:nonzero;stroke:none"
         id="path666" /><path
         d="M 9592,5094.2 H 8533.59 c -181.71,0 -329.02,147.3 -329.02,329 v 1719.3 c 0,181.7 147.31,329 329.02,329 H 9592 c 181.72,0 329.03,-147.3 329.03,-329 V 5423.2 c 0,-181.7 -147.31,-329 -329.03,-329"
         style="fill:#e2d2ca;fill-opacity:1;fill-rule:nonzero;stroke:none"
         id="path668" /><path
         d="m 9616.87,4542.2 c -253.02,0 -458.28,85 -610.11,252.6 -343.12,378.8 -281.47,1044.8 -278.67,1072.9 5.21,52.5 52.06,90.9 104.45,85.6 52.46,-5.2 90.78,-51.9 85.61,-104.3 -0.73,-7.6 -55.4,-611.3 230.54,-926.4 115.67,-127.4 268.81,-189.4 468.18,-189.4 52.73,0 95.49,-42.8 95.49,-95.5 0,-52.7 -42.76,-95.5 -95.49,-95.5"
         style="fill:#e2d2ca;fill-opacity:1;fill-rule:nonzero;stroke:none"
         id="path670" /><path
         d="m 12278.8,9533.2 h -945.1 c -13.6,0 -24.5,11 -24.5,24.5 v 59.3 c 0,13.5 10.9,24.5 24.5,24.5 h 945.1 c 13.5,0 24.5,-11 24.5,-24.5 v -59.3 c 0,-13.5 -11,-24.5 -24.5,-24.5"
         style="fill:#dfe1e8;fill-opacity:1;fill-rule:nonzero;stroke:none"
         id="path672" /><path
         d="m 12278.8,9300.9 h -945.1 c -13.6,0 -24.5,10.9 -24.5,24.5 v 59.3 c 0,13.5 10.9,24.5 24.5,24.5 h 945.1 c 13.5,0 24.5,-11 24.5,-24.5 v -59.3 c 0,-13.6 -11,-24.5 -24.5,-24.5"
         style="fill:#dfe1e8;fill-opacity:1;fill-rule:nonzero;stroke:none"
         id="path674" /><path
         d="m 12220.9,7917.9 h -829.3 c -45.5,0 -82.4,36.9 -82.4,82.4 v 1060 c 0,45.5 36.9,82.4 82.4,82.4 h 829.3 c 45.5,0 82.4,-36.9 82.4,-82.4 v -1060 c 0,-45.5 -36.9,-82.4 -82.4,-82.4"
         style="fill:#dfe1e8;fill-opacity:1;fill-rule:nonzero;stroke:none"
         id="path676" /><path
         d="m 14143.9,7917.9 h -1509.4 c -72.1,0 -130.5,58.4 -130.5,130.5 v 1462.7 c 0,72 58.4,130.4 130.5,130.4 h 1509.4 c 72.1,0 130.5,-58.4 130.5,-130.4 V 8048.4 c 0,-72.1 -58.4,-130.5 -130.5,-130.5"
         style="fill:#dfe1e8;fill-opacity:1;fill-rule:nonzero;stroke:none"
         id="path678" /><path
         d="m 18623.2,8613.2 c 0,0 66.1,142.8 76.8,164.3 10.8,21.5 73.9,55.6 148.9,74.5 72.8,18.3 171.9,55.1 183.2,48.1 11.3,-7.1 24.6,-8.1 38.1,-39.6 13.4,-31.4 7.5,-65.4 7.5,-65.4 0,0 34.9,-31 24.4,-72.3 0,0 31.5,-30.7 11.9,-75.7 0,0 29.9,-30.7 13,-62.3 0,0 -58.5,-33.1 -76.6,-51.7 -18.1,-18.5 -144.5,-79.2 -274.6,-118.8 0,0 -135.7,4.2 -152.6,198.9"
         style="fill:#8e4f3a;fill-opacity:1;fill-rule:nonzero;stroke:none"
         id="path680" /><path
         d="m 18775.8,8414.3 c 0,0 -161.5,-28.2 -216.2,3.4 -54.8,31.5 8.9,195.9 8.9,195.9 l 102.3,61.8 105,-261.1"
         style="fill:#8e4f3a;fill-opacity:1;fill-rule:nonzero;stroke:none"
         id="path682" /><path
         d="m 18835.7,8682.4 c 0,0 -2.5,-79 -14.4,-100.8 -11.9,-21.9 148.9,-55.9 148.9,-55.9 0,0 -38.6,151.1 -134.5,156.7"
         style="fill:#5e3527;fill-opacity:1;fill-rule:nonzero;stroke:none"
         id="path684" /><path
         d="m 19011.9,8893.2 c 0,0 -176.4,-85.6 -166.1,-115.7 10.3,-30.1 32.3,-35 32.3,-35 l -56.6,-68.2 c 0,0 -11.9,-66.3 63.8,-59.9 0,0 -17.6,-60.8 54.7,-46 0,0 6.3,-45.3 41.1,-44.3 34.7,0.9 145.9,60.7 145.9,60.7 0,0 20.1,24.3 -10.6,63.3 0,0 21.8,42.3 -11.4,75.9 0,0 10.2,54.4 -26,90.5 0,0 3.7,60.7 -48.4,86.4 0,0 -11.3,-4 -18.7,-7.7"
         style="fill:#7a4432;fill-opacity:1;fill-rule:nonzero;stroke:none"
         id="path686" /><path
         d="m 18705.3,8780.8 c 0,0 134.5,-2.9 207.2,-36.7 16.5,-7.7 31,-18.1 30.1,-36.3 -0.9,-18.1 -28.3,-39.9 -86.6,-41.6 -58.4,-1.7 -133,-30.7 -133,-30.7 0,0 -60.4,15.8 -17.7,145.3"
         style="fill:#8e4f3a;fill-opacity:1;fill-rule:nonzero;stroke:none"
         id="path688" /><path
         d="m 19079,8814.5 c 0,0 -201.3,-68.9 -215,-85.6 -13.7,-16.6 -39.6,56.8 -26.9,70.3 12.7,13.4 169.4,96.9 186.7,101.6 17.2,4.6 76.4,-35.8 55.2,-86.3"
         style="fill:#8e4f3a;fill-opacity:1;fill-rule:nonzero;stroke:none"
         id="path690" /><path
         d="m 18986.3,8892.4 c 0,0 313.5,64.2 319.9,26 6.3,-38.2 -24,-44.6 -280.9,-119.6 -249.8,-72.9 -39,93.6 -39,93.6"
         style="fill:#8e4f3a;fill-opacity:1;fill-rule:nonzero;stroke:none"
         id="path692" /><path
         d="m 16832.1,2462.8 c 0,0 99.9,-149.5 240,-181.7 140.1,-32.3 278.2,-83.7 279.2,-172.1 1.1,-88.5 -405.1,-141.2 -565.5,-52 -239.4,133 -263.7,92.9 -290.2,159.4 -26.6,66.5 31.9,244.4 30.1,265.5 -2.1,26.2 306.4,-19.1 306.4,-19.1"
         style="fill:#353a3d;fill-opacity:1;fill-rule:nonzero;stroke:none"
         id="path694" /><path
         d="m 16816.5,2536.6 c 0,0 18.3,-72.2 15.6,-73.8 -2.8,-1.5 -315.8,-38.8 -306.4,19.1 7.7,47 18.7,98.1 18.7,98.1 l 272.1,-43.4"
         style="fill:#81807e;fill-opacity:1;fill-rule:nonzero;stroke:none"
         id="path696" /><path
         d="m 15778.4,2472.7 c 0,0 71.2,-142.9 193,-191.6 130.2,-52.1 234.5,-111.9 232.2,-198.1 -2.4,-86.2 -318.2,-173.5 -547.9,-8.1 -145.2,104.5 -191.2,105 -214.5,170.8 -23.3,65.8 40.5,236.8 39.6,257.4 -1.1,25.6 297.6,-30.4 297.6,-30.4"
         style="fill:#353a3d;fill-opacity:1;fill-rule:nonzero;stroke:none"
         id="path698" /><path
         d="m 15781.9,2547 c 0,0 -0.8,-72.9 -3.5,-74.3 -2.7,-1.3 -305.3,-26.3 -297.6,30.4 6.1,45.1 29.3,99.5 29.3,99.5 l 271.8,-55.6"
         style="fill:#81807e;fill-opacity:1;fill-rule:nonzero;stroke:none"
         id="path700" /><path
         d="m 16891.4,6914.6 c 0,0 281.2,-1240 345.4,-1617.7 54.6,-321.5 98.2,-656.3 72,-888.4 -32.4,-287.3 -439.2,-1776.4 -422.2,-1860.7 17,-84.2 -484.9,-33 -484.9,-33 0,0 368.7,1680.6 306.9,1989.8 -45.8,228.9 -446.8,1750 -508.2,1672 -61.5,-78 -137.7,-1435.5 -183.2,-1660.9 -45.5,-225.3 -185.3,-2005.9 -185.3,-2005.9 0,0 -312.4,-46.1 -395.8,24.5 0,0 -38,1520.4 -9,1942.9 11.1,161 -188.6,1930.5 67.4,2642.9 135.4,376.5 1396.9,-205.5 1396.9,-205.5"
         style="fill:#2d3133;fill-opacity:1;fill-rule:nonzero;stroke:none"
         id="path702" /><path
         d="m 18727.4,8353.2 c 0,0 -973.9,-215.9 -1167.7,-168.3 -89.6,22.1 -207.6,145.7 -319.7,291.1 -37,47.9 -73.3,98.2 -107.8,147.9 l -0.1,0.2 c -137.5,198.6 -245.3,389 -245.3,389 0,0 -406.7,476.6 -80.4,689 0,0 118.5,44.4 227.2,-72.2 108.8,-116.5 236.5,-360.4 265.1,-422.6 28.5,-62.1 427.9,-638.2 448.6,-651.2 20.7,-12.9 195.2,33 335.2,44.6 228.2,19.1 570.1,107.9 570.1,107.9 l 74.8,-355.4"
         style="fill:#dbdff0;fill-opacity:1;fill-rule:nonzero;stroke:none"
         id="path704" /><path
         d="m 16501.2,9808.4 c 0,0 418.6,-86.5 468.3,-130.5 53.9,-46.9 149,-505.3 154.7,-633.1 5.7,-127.7 -50.5,-661.2 -104.4,-859.8 -53.9,-198.7 -44,-1177.2 -9.9,-1452.5 0,0 -842.9,-239.4 -1671.6,-131.6 0,0 138.9,1029.5 105.7,1301.7 -42.5,348.8 -144.7,1152.3 -144.7,1152.3 0,0 73.3,559.7 147.1,622.2 73.8,62.4 582.3,131.3 582.3,131.3 h 472.5"
         style="fill:#bcc0cf;fill-opacity:1;fill-rule:nonzero;stroke:none"
         id="path706" /><path
         d="m 16328.2,11102.8 c 0,0 503.5,186.3 472,-482.8 -31.4,-669.2 -149.5,-737.2 -480.7,-643.8 -331.2,93.5 -359,515.8 -402.1,719 -43.2,203.2 246.1,378.4 410.8,407.6"
         style="fill:#8e4f3a;fill-opacity:1;fill-rule:nonzero;stroke:none"
         id="path708" /><path
         d="m 16567.1,9717.8 c 0,0 -103.7,-68.5 -496.6,104.6 0,0 11.1,269.4 -65.9,521 -77.1,251.6 527.2,-335.5 527.2,-335.5 -6.3,-4.5 -7.5,-29.6 -3.9,-64.7 3.1,-29.7 9.6,-66.6 19.4,-104 22.1,-84.1 19.8,-48 19.8,-121.4"
         style="fill:#8e4f3a;fill-opacity:1;fill-rule:nonzero;stroke:none"
         id="path710" /><path
         d="m 15987.4,10363.3 c 0,0 -1.5,178.8 72.9,195.2 74.3,16.5 84.1,75.9 84.1,75.9 l 42.7,-9.9 c 0,0 -7.9,31.5 63,73 70.9,41.6 494.8,5.1 548,66.1 53.2,61 -23.9,423.2 -139.6,458.7 -115.6,35.6 -384.3,32.3 -629.8,-36.6 0,0 -186.4,-47 -200.5,-266.4 -9.1,-142 98.7,-459.1 159.2,-556"
         style="fill:#2d3133;fill-opacity:1;fill-rule:nonzero;stroke:none"
         id="path712" /><path
         d="m 16547.3,9839.2 c -390.3,65.6 -448.6,287.6 -449.5,291.1 151.7,-195.7 430.1,-187.1 430.1,-187.1 3.1,-29.7 9.6,-66.6 19.4,-104"
         style="fill:#633029;fill-opacity:1;fill-rule:nonzero;stroke:none"
         id="path714" /><path
         d="m 16530.1,9629.9 c 0,0 71.1,-104.8 114,-374 42.9,-269.1 35.6,-732.8 35.6,-732.8 l -98.9,-12 c 0,0 -149.5,945.6 -123.8,1110.4 l 73.1,8.4"
         style="fill:#434343;fill-opacity:1;fill-rule:nonzero;stroke:none"
         id="path716" /><path
         d="m 16144.4,10634.4 c -22.2,59 -147.8,51.6 -135,-41.9 12.9,-93.5 116.7,-237.5 158.4,-210.5 41.6,27 7.3,171.1 -23.4,252.4"
         style="fill:#8e4f3a;fill-opacity:1;fill-rule:nonzero;stroke:none"
         id="path718" /><path
         d="m 16974.9,9678.3 c 0,0 237.8,-314.7 149.7,-1138 -159.2,-1487.8 257.8,-3876.1 257.8,-3876.1 l -430.2,-134.7 c 0,0 -411.1,3053.1 -306.4,4161.2 47.7,504.9 189.3,673 -34.1,1093.6 0,0 217.5,-11 363.2,-106"
         style="fill:#dbdff0;fill-opacity:1;fill-rule:nonzero;stroke:none"
         id="path720" /><path
         d="m 15913,9791.2 c 0,0 680.9,-687.7 734.2,-1209.1 53.4,-521.4 140.2,-4052.6 140.2,-4052.6 l -1621,94.4 c 0,0 149,1864 185.4,2097.2 36.3,233.2 111.5,1572.1 -52.5,2193.3 -88.2,333.8 16.7,757.2 218.1,803.4 201.4,46.2 395.6,73.4 395.6,73.4"
         style="fill:#dbdff0;fill-opacity:1;fill-rule:nonzero;stroke:none"
         id="path722" /><path
         d="m 15682.9,9702.1 c 0,0 262.2,-72.2 118,-553.5 -113,-376.9 -128.3,-457.9 -128.3,-457.9 l -605.1,151.1 c 0,0 177.4,828.1 467,872.6 0,0 92.1,13.2 148.4,-12.3"
         style="fill:#dbdff0;fill-opacity:1;fill-rule:nonzero;stroke:none"
         id="path724" /><path
         d="m 17666.6,7154.8 -1186.1,-1227.4 -787.8,761.2 1155.3,1257.2 818.6,-791"
         style="fill:#616161;fill-opacity:1;fill-rule:nonzero;stroke:none"
         id="path726" /><path
         d="m 17554.5,7130.4 -1053.4,-1090.1 -699.7,676.1 1026.1,1116.5 727,-702.5"
         style="fill:#e0cec7;fill-opacity:1;fill-rule:nonzero;stroke:none"
         id="path728" /><path
         d="m 17311.7,7312.5 74,76.5 -282.9,273.4 -85,-65.9 293.9,-284"
         style="fill:#616161;fill-opacity:1;fill-rule:nonzero;stroke:none"
         id="path730" /><path
         d="m 16070.7,9896.9 c 0,0 205.4,-123.9 408.6,-151.9 l -108.1,-172.4 -342.5,235.8 42,88.5"
         style="fill:#a7aab8;fill-opacity:1;fill-rule:nonzero;stroke:none"
         id="path732" /><path
         d="m 16547.3,9839.2 c 0,0 -21.7,-71 -68,-94.2 l 101.5,-141.5 -3.7,187.7 -29.8,48"
         style="fill:#a7aab8;fill-opacity:1;fill-rule:nonzero;stroke:none"
         id="path734" /><path
         d="m 16479.3,9745 80.4,-112.1 c 0,0 -50.9,-64.3 -160.5,-15.5 l 80.1,127.6"
         style="fill:#434343;fill-opacity:1;fill-rule:nonzero;stroke:none"
         id="path736" /><path
         d="m 17240,8476.1 v -0.1 c -37,47.9 -73.3,98.2 -107.8,147.9 l -0.1,0.2 c 0,0 13,362.8 1.7,467 0,0 118.5,-390.8 106.2,-615"
         style="fill:#a7aab8;fill-opacity:1;fill-rule:nonzero;stroke:none"
         id="path738" /><path
         d="m 15569.1,8716.6 c 0,0 -79.1,-514.5 -73.6,-547.5 5.6,-33 -357.9,103.3 73.6,547.5"
         style="fill:#a7aab8;fill-opacity:1;fill-rule:nonzero;stroke:none"
         id="path740" /><path
         d="m 16997,8608.9 h -191.1 v 291.8 h 191.1 v -291.8"
         style="fill:#c6cad9;fill-opacity:1;fill-rule:nonzero;stroke:none"
         id="path742" /><path
         d="m 16147.6,7502 c 0,0 17.5,-34.7 46.6,-46.3 50.2,-20.2 130.5,11.8 161.5,-60 31.1,-71.9 -169.1,-240.6 -219.3,-249.4 -50.2,-8.7 -121.3,73.4 -167.7,231.9 -46.3,158.4 178.9,123.8 178.9,123.8"
         style="fill:#8e4f3a;fill-opacity:1;fill-rule:nonzero;stroke:none"
         id="path744" /><path
         d="m 16341.8,7418.2 c 0,0 86.2,-77 171.4,-175 74.8,-86 146.7,-201.4 133.9,-223.2 -28.7,-48.5 -98.2,59.7 -178.1,139.7 -73.6,73.7 -61.4,60.8 -61.4,60.8 0,0 -0.1,7.8 64.1,-88.8 69.1,-103.8 129.3,-217.6 112.9,-242.9 -7.9,-12.3 -40.1,-42.5 -55.5,7.2 13.8,-23.2 16.2,-17.5 7,-24.6 -47.8,-36.4 -173.3,99.4 -223.2,153.4 38.1,-41.7 61.4,-76.6 18.3,-80.1 -49.3,-4.1 -217.9,196.3 -285.4,262 -73.5,71.7 296,211.5 296,211.5"
         style="fill:#8e4f3a;fill-opacity:1;fill-rule:nonzero;stroke:none"
         id="path746" /><path
         d="m 15714.3,9669.9 c 54.9,-21.2 75.6,-118.7 53.1,-401.1 -22.6,-282.3 -122,-412.2 -159.1,-477.6 -37.1,-65.3 -241,-467.9 -204.4,-520.9 36.7,-53 383,-394.6 403,-422.4 20.1,-27.9 406.7,-377.8 406.7,-377.8 L 16016.8,7195 c 0,0 -834.9,652.1 -900.1,717.2 -65.1,65.1 -259.8,201.9 -187.8,429.4 73.2,231.1 204.7,772.3 228.1,814.6 23.4,42.3 194.3,654.2 557.3,513.7"
         style="fill:#dbdff0;fill-opacity:1;fill-rule:nonzero;stroke:none"
         id="path748" /><path
         d="m 22919.6,3013.4 c 0,0 -29.1,-68.8 -84.1,-140.6 -40.3,-52.6 -165.8,-268.7 -221,-283.8 -55.3,-15.1 -226.1,-45.2 -241.1,-140.7 -15.1,-95.4 -22.6,-163.2 145.6,-170.7 168.3,-7.6 278.8,-17.6 359.2,100.4 80.4,118.1 208.4,203.5 208.4,203.5 v -308 h 65.3 c 0,0 30.2,320.5 47.8,343.1 17.5,22.6 62.8,268.8 -93,396.8 -155.7,128.1 -187.1,0 -187.1,0"
         style="fill:#163342;fill-opacity:1;fill-rule:nonzero;stroke:none"
         id="path750" /><path
         d="m 22614.5,2589 c 0,0 150.7,-37.7 208.4,0 57.8,37.7 254.2,369.6 319.2,389.5 0,0 -63,127.9 -222.5,34.9 0,0 -262.4,-369.2 -305.1,-424.4"
         style="fill:#eea886;fill-opacity:1;fill-rule:nonzero;stroke:none"
         id="path752" /><path
         d="m 22959.2,10441.5 c 0,0 -324.9,-685.1 -101.3,-726 307.1,-56.3 431.4,511.1 431.4,511.1 l -330.1,214.9"
         style="fill:#163342;fill-opacity:1;fill-rule:nonzero;stroke:none"
         id="path754" /><path
         d="m 21185,8739.6 c 0,0 -101.6,31.9 -109.8,92.1 -6.9,51.2 -52.9,112.3 -67,131.1 -18.9,25.2 -48,124.2 -80,100.7 -32,-23.5 40.1,-165.4 49.3,-198.2 9.2,-32.8 -129.7,29.6 -164.1,21 -34.3,-8.6 -124.7,-244.6 -24.4,-276.3 100.3,-31.8 228.5,0.4 245,-8.7 16.5,-9.1 72.1,-26 72.1,-26 l 78.9,164.3"
         style="fill:#eea886;fill-opacity:1;fill-rule:nonzero;stroke:none"
         id="path756" /><path
         d="m 20838.6,8884.4 c 0,0 -313.5,76.9 -338.7,64.6 -25.2,-12.4 -28.4,-29.6 0.6,-38 29.1,-8.5 300.8,-83.1 300.8,-83.1 0,0 -386.4,28.7 -409.2,23.1 -13.4,-3.3 -21.5,-36.3 -6.4,-42.3 15.1,-5.9 396.5,-56.3 396.5,-56.3 0,0 -360.8,26.2 -378.5,15.8 -15.5,-9.1 -15.4,-41.3 11.2,-45 26.7,-3.8 360.2,-47 360.2,-47 0,0 -263.8,2.5 -273.6,-15.1 -6,-10.8 -14.4,-39 53.7,-37.5 68.1,1.4 229.1,-11.9 229.1,-11.9 l 54.3,272.7"
         style="fill:#eea886;fill-opacity:1;fill-rule:nonzero;stroke:none"
         id="path758" /><path
         d="m 23762,2813.8 c 0,0 -168.3,-249.9 -236.1,-310.2 0,0 -150.7,-55.3 -165.8,-160.7 -15,-105.5 -12.5,-175.9 165.8,-180.9 178.3,-5 295.2,27 327.9,135 32.6,108 104.1,181.5 104.1,181.5 v -226 h 40.2 c 0,0 10,218.5 12.5,258.6 2.5,40.2 28.9,194.7 -55.9,263.1 -84.7,68.5 -192.7,39.6 -192.7,39.6"
         style="fill:#163342;fill-opacity:1;fill-rule:nonzero;stroke:none"
         id="path760" /><path
         d="m 23875,7637.1 c 0,0 212.5,-276.3 270.1,-604 57.7,-327.8 -34,-1427.8 -31.5,-1589.8 2.5,-162 153.2,-565.1 123.1,-870.2 -30.2,-305.2 -149.1,-1823.9 -149.1,-1823.9 l -325.6,64.6 c 0,0 18.8,1548.3 0,1676.4 -18.9,128.1 -56.7,595 -64.2,647.7 -7.5,52.8 -478.3,1437.7 -478.3,1674 0,236.3 143.2,1210.7 655.5,825.2"
         style="fill:#2d3133;fill-opacity:1;fill-rule:nonzero;stroke:none"
         id="path762" /><path
         d="m 22807.6,7529.1 c 0,0 -349.1,-1332.3 -390.5,-1516.9 -41.5,-184.6 -101.5,-336.9 -101.5,-415.2 0,-181.9 67.6,-473.9 67.6,-473.9 l 443.3,-2120.2 h 422.2 c 0,0 -235.3,1272 -241.6,1520.7 -6.3,249.3 -198.2,603.3 -160.6,708.7 37.7,105.5 606.6,1322.4 606.6,1322.4 0,0 430.7,1361.2 -645.5,974.4"
         style="fill:#2d3133;fill-opacity:1;fill-rule:nonzero;stroke:none"
         id="path764" /><path
         d="m 23525.9,2503.6 c 0,0 172.3,-96.3 283.3,27.4 93.7,104.4 145.5,243.2 145.5,243.2 l -192.7,39.6 -236.1,-310.2"
         style="fill:#eea886;fill-opacity:1;fill-rule:nonzero;stroke:none"
         id="path766" /><path
         d="m 22951.8,9793.3 c 0,0 -143.9,-13.6 -252.7,-130.1 -108.7,-116.5 -210.8,-302.4 -239.3,-364.5 -28.5,-62.1 -427.7,-638.1 -448.5,-651 -20.7,-13 -195.2,32.9 -335,44.6 -228.1,19 -569.5,135.2 -569.5,135.2 l -50.6,-257.8 c 0,0 839.4,-270.9 1033.1,-223.2 236.9,58.4 782.2,758 782.2,758 0,0 406.6,476.4 80.3,688.8"
         style="fill:#dbdff0;fill-opacity:1;fill-rule:nonzero;stroke:none"
         id="path768" /><path
         d="m 23203,9894.3 c 0,0 -186.5,-88.1 -251.2,-101 -64.7,-13 -315.9,-339.2 -359.9,-458.3 -44,-119.2 0,-297.8 90.6,-507.6 90.6,-209.7 5.2,-279.6 46.6,-489.3 41.4,-209.8 28.1,-994.4 20.3,-1110.9 -7.7,-116.6 1212,-293.2 1452.8,-80.9 0,0 -163,707.2 -356,909 -41.7,43.7 -37.3,334.5 -8.8,407 28.4,72.5 349.5,613.7 349.5,613.7 0,0 23.6,548.9 -116.5,657.7 -121.7,94.5 -453.4,128.2 -512.9,148.9 -59.6,20.8 -232.8,29.8 -354.5,11.7"
         style="fill:#2f4563;fill-opacity:1;fill-rule:nonzero;stroke:none"
         id="path770" /><path
         d="m 23114,10109.4 c 0,0 37.2,-342 29.4,-453.4 0,0 193.7,-194.1 414.1,226.6 0,0 -92.8,173.5 -23,409.8 69.8,236.3 -420.5,-183 -420.5,-183"
         style="fill:#eea886;fill-opacity:1;fill-rule:nonzero;stroke:none"
         id="path772" /><path
         d="m 22571.7,8750.1 c 0,0 -46.6,310.2 2.9,498.8 0,0 0,-162.2 89,-392.5 l -91.9,-106.3"
         style="fill:#aaadba;fill-opacity:1;fill-rule:nonzero;stroke:none"
         id="path774" /><path
         d="m 23686.3,10751.1 c 0,0 42.8,51.3 58.7,-0.4 16,-51.7 -36.3,-205.4 -42,-227.6 0,0 -25.9,-86.3 -36.3,-75.3 -10.3,11.1 19.6,303.3 19.6,303.3"
         style="fill:#eea987;fill-opacity:1;fill-rule:nonzero;stroke:none"
         id="path776" /><path
         d="m 22939.6,10744.7 c 0,0 -42.7,51.3 -58.7,-0.4 -15.9,-51.7 36.3,-205.4 42,-227.6 0,0 26,-86.3 36.3,-75.2 10.4,11 -19.6,303.2 -19.6,303.2"
         style="fill:#eea987;fill-opacity:1;fill-rule:nonzero;stroke:none"
         id="path778" /><path
         d="m 23245.9,11242.4 c 0,0 -392.3,-60.4 -334.9,-678.4 57.4,-618 403.7,-569 426.8,-568.4 23.2,0.5 347.4,-12.9 375.5,741.2 0,0 13,557.7 -467.4,505.6"
         style="fill:#eea987;fill-opacity:1;fill-rule:nonzero;stroke:none"
         id="path780" /><path
         d="m 23638,10773.8 c 0,0 -435.4,-129.5 -643.9,-88.1 0,0 -13.3,-76.9 -43.3,-81.7 -29.9,-4.7 -45.2,147.1 -45.2,147.1 0,0 -10.2,502.5 444.4,507.2 454.7,4.8 362.3,-544.3 362.3,-544.3 l -6.2,-93.8 c 0,0 -65.1,-25.8 -68.1,153.6"
         style="fill:#163342;fill-opacity:1;fill-rule:nonzero;stroke:none"
         id="path782" /><path
         d="m 23492.1,10054.6 c 0,0 -137.4,-130.2 -348.7,-10.8 0,0 62.4,-104.2 180.9,-101.6 118.4,2.6 167.8,112.4 167.8,112.4"
         style="fill:#a77860;fill-opacity:1;fill-rule:nonzero;stroke:none"
         id="path784" /><path
         d="m 23706.3,9852.8 c 0,0 -133.3,-393.6 -499.1,-364.7 -365.9,29 -173.5,332.4 -173.5,332.4 0,0 91.2,52.3 116.9,57.2 25.6,4.9 404.5,9.7 404.5,9.7 l 151.2,-34.6"
         style="fill:#eea886;fill-opacity:1;fill-rule:nonzero;stroke:none"
         id="path786" /><path
         d="m 23033.7,9820.5 c 0,0 -191.6,-530.1 -191.6,-1070.4 0,-540.3 -15.5,-1420.4 -82.4,-1698.3 -66.9,-277.9 -257.3,-1137.4 -257.3,-1137.4 l -149.3,77.2 c 0,0 359,1371.7 386,1470.6 27.1,99 -20.5,1143.9 -46.3,1231.4 -25.7,87.5 -135.2,477 -118.2,585 21.5,136.2 149,337.8 354.8,511.1 l 104.3,30.8"
         style="fill:#dbdff0;fill-opacity:1;fill-rule:nonzero;stroke:none"
         id="path788" /><path
         d="m 23634,9869.3 c 0,0 -119.1,-381.4 -179.5,-869.8 -60.3,-488.5 185.3,-2755.7 350,-3270.4 l 638.2,103 c 0,0 -137.4,1602.6 -323.9,1894.2 -186.4,291.7 -245.8,549.7 -44.5,1158.4 201.3,608.8 -88.2,910.2 -88.2,910.2 0,0 -296.1,68.1 -352.1,74.4"
         style="fill:#dbdff0;fill-opacity:1;fill-rule:nonzero;stroke:none"
         id="path790" /><path
         d="m 22945.5,8252 773.8,-1340.3 860.2,496.7 -740.2,1359.7 -893.8,-516.1"
         style="fill:#616161;fill-opacity:1;fill-rule:nonzero;stroke:none"
         id="path792" /><path
         d="m 23038.8,8205.9 687.2,-1190.3 764,441.1 -657.4,1207.5 -793.8,-458.3"
         style="fill:#e0cec7;fill-opacity:1;fill-rule:nonzero;stroke:none"
         id="path794" /><path
         d="m 23292.3,8312.8 -48.2,83.6 308.8,178.3 60.3,-76.6 -320.9,-185.3"
         style="fill:#616161;fill-opacity:1;fill-rule:nonzero;stroke:none"
         id="path796" /><path
         d="m 23329.2,7361.9 c 0,0 35.2,-0.2 50.6,7.3 0,0 27,15.6 46.9,25.6 6.3,3.2 11.9,5.8 15.7,7.1 15.7,5.4 52,12.7 86.2,36.5 34.2,23.7 155.4,164 155.4,164 l -57.2,87 -42,89.1 c 0,0 -254.4,-16.4 -288.8,-34.9 -3.4,-1.8 -6.6,-3.7 -9.5,-5.7 -27.7,-18.5 -40.5,-43.8 -53.9,-55.1 -4.9,-4.2 -50.8,-49.1 -49.2,-68.2 2.2,-26.5 14.5,-44 30.5,-52.8 0,0 6.6,-51.7 32.1,-75.9 0,0 4.5,-47.9 44.8,-68.9 0,0 10.1,-48.2 38.4,-55.1"
         style="fill:#eea886;fill-opacity:1;fill-rule:nonzero;stroke:none"
         id="path798" /><path
         d="m 23853.5,9793.3 c 0,0 235,67.3 369.7,-191.6 134.6,-259 134,-369.5 151.9,-495.9 17,-119.4 93.7,-445.4 101.5,-479 7.8,-33.7 181.5,-435.1 101.8,-575.4 -80,-141 -893.4,-556.1 -888.2,-587.2 5.2,-31 -140.8,313.9 -140.8,313.9 0,0 329,183.4 383,239.9 87.5,91.7 272.2,190.6 234.3,304.4 -44.6,133.7 -178.5,584.7 -209.6,650.7 -31.1,66.1 -301.6,736 -103.6,820.2"
         style="fill:#dbdff0;fill-opacity:1;fill-rule:nonzero;stroke:none"
         id="path800" /></g></g></svg>
