<?xml version="1.0" encoding="UTF-8" standalone="no"?>
<svg
   xmlns:dc="http://purl.org/dc/elements/1.1/"
   xmlns:cc="http://creativecommons.org/ns#"
   xmlns:rdf="http://www.w3.org/1999/02/22-rdf-syntax-ns#"
   xmlns:svg="http://www.w3.org/2000/svg"
   xmlns="http://www.w3.org/2000/svg"
   xmlns:sodipodi="http://sodipodi.sourceforge.net/DTD/sodipodi-0.dtd"
   xmlns:inkscape="http://www.inkscape.org/namespaces/inkscape"
   version="1.1"
   id="svg2"
   xml:space="preserve"
   width="4400"
   height="2666.6667"
   viewBox="0 0 4400 2666.6667"
   sodipodi:docname="6997.eps"><metadata
     id="metadata8"><rdf:RDF><cc:Work
         rdf:about=""><dc:format>image/svg+xml</dc:format><dc:type
           rdf:resource="http://purl.org/dc/dcmitype/StillImage" /></cc:Work></rdf:RDF></metadata><defs
     id="defs6" /><sodipodi:namedview
     pagecolor="#ffffff"
     bordercolor="#666666"
     borderopacity="1"
     objecttolerance="10"
     gridtolerance="10"
     guidetolerance="10"
     inkscape:pageopacity="0"
     inkscape:pageshadow="2"
     inkscape:window-width="640"
     inkscape:window-height="480"
     id="namedview4" /><g
     id="g10"
     inkscape:groupmode="layer"
     inkscape:label="ink_ext_XXXXXX"
     transform="matrix(1.3333333,0,0,-1.3333333,0,2666.6667)"><g
       id="g12"
       transform="scale(0.1)"><path
         d="M 33000,0 H 0 V 20000 H 33000 V 0"
         style="fill:#e3eaff;fill-opacity:1;fill-rule:nonzero;stroke:none"
         id="path14" /><path
         d="M 32069.8,509.301 H 3760.24 c -99.95,0 -180.96,81.101 -180.96,181 v 0 c 0,100 81.01,181 180.96,181 H 32069.8 c 99.9,0 181,-81 181,-181 v 0 c 0,-99.899 -81.1,-181 -181,-181"
         style="fill:#95a6db;fill-opacity:1;fill-rule:nonzero;stroke:none"
         id="path16" /><path
         d="m 32250.8,14801.2 h -6078.6 v 286.4 h 6078.6 v -286.4"
         style="fill:#cfdaff;fill-opacity:1;fill-rule:nonzero;stroke:none"
         id="path18" /><path
         d="m 32250.8,11752.3 h -6078.6 v 286.3 h 6078.6 v -286.3"
         style="fill:#cfdaff;fill-opacity:1;fill-rule:nonzero;stroke:none"
         id="path20" /><path
         d="m 32250.8,859.5 h -6078.6 v 8130.2 h 6078.6 V 859.5"
         style="fill:#cfdaff;fill-opacity:1;fill-rule:nonzero;stroke:none"
         id="path22" /><path
         d="m 26685.4,1336.6 h 5052.2 v 7078 h -5052.2 z m 5182.2,-130 h -5312.2 v 7338 h 5312.2 v -7338"
         style="fill:#c4d2ff;fill-opacity:1;fill-rule:nonzero;stroke:none"
         id="path24" /><path
         d="m 31948.5,15087.6 h 302.3 V 8846.5 h -302.3 v 6241.1"
         style="fill:#cfdaff;fill-opacity:1;fill-rule:nonzero;stroke:none"
         id="path26" /><path
         d="m 26172.2,15087.6 h 302.3 V 8846.5 h -302.3 v 6241.1"
         style="fill:#cfdaff;fill-opacity:1;fill-rule:nonzero;stroke:none"
         id="path28" /><path
         d="m 29284.5,1336.6 h -146 v 7078 h 146 v -7078"
         style="fill:#c4d2ff;fill-opacity:1;fill-rule:nonzero;stroke:none"
         id="path30" /><path
         d="m 29860.7,4415.9 c 0,-105.3 -85.4,-190.7 -190.8,-190.7 -105.3,0 -190.7,85.4 -190.7,190.7 0,105.3 85.4,190.8 190.7,190.8 105.4,0 190.8,-85.5 190.8,-190.8"
         style="fill:#c4d2ff;fill-opacity:1;fill-rule:nonzero;stroke:none"
         id="path32" /><path
         d="m 28939.9,4415.9 c 0,-105.3 -85.4,-190.7 -190.8,-190.7 -105.3,0 -190.7,85.4 -190.7,190.7 0,105.3 85.4,190.8 190.7,190.8 105.4,0 190.8,-85.5 190.8,-190.8"
         style="fill:#c4d2ff;fill-opacity:1;fill-rule:nonzero;stroke:none"
         id="path34" /><path
         d="m 31498.3,9071 h -1622.2 v 1219.7 h 240.8 V 9265.2 c 0,-63 51,-114 113.9,-114 62.9,0 113.9,51 113.9,114 v 1025.5 h 253.7 V 9265.2 c 0,-63 51,-114 114,-114 62.9,0 113.9,51 113.9,114 v 1025.5 H 31080 V 9265.2 c 0,-63 51,-114 113.9,-114 62.9,0 114,51 114,114 v 1025.5 h 190.4 z m 149.6,1267.2 h -340 v 134.8 h 19.8 c 26.1,0 47.5,21.4 47.5,47.6 v 27.7 c 0,26.2 -21.4,47.6 -47.5,47.6 h -269.5 c -26.2,0 -47.6,-21.4 -47.6,-47.6 v -27.7 c 0,-26.2 21.4,-47.6 47.6,-47.6 h 21.8 v -134.8 h -253.7 v 134.8 h 19.8 c 26.2,0 47.6,21.4 47.6,47.6 v 27.7 c 0,26.2 -21.4,47.6 -47.6,47.6 h -269.5 c -26.2,0 -47.6,-21.4 -47.6,-47.6 v -27.7 c 0,-26.2 21.4,-47.6 47.6,-47.6 h 21.8 v -134.8 h -253.7 v 134.8 h 19.9 c 26.1,0 47.5,21.4 47.5,47.6 v 27.7 c 0,26.2 -21.4,47.6 -47.5,47.6 h -269.5 c -26.2,0 -47.6,-21.4 -47.6,-47.6 v -27.7 c 0,-26.2 21.4,-47.6 47.6,-47.6 h 21.8 v -134.8 h -390.4 c -13.2,0 -23.8,-10.6 -23.8,-23.7 0,-13.2 10.6,-23.8 23.8,-23.8 h 108 V 9071 h -63.4 c -24.7,0 -44.6,-20 -44.6,-44.6 0,-24.6 19.9,-44.6 44.6,-44.6 h 1832.2 c 24.7,0 44.6,20 44.6,44.6 0,24.6 -19.9,44.6 -44.6,44.6 h -63.4 v 1219.7 h 108 c 13.2,0 23.8,10.6 23.8,23.8 0,13.1 -10.6,23.7 -23.8,23.7"
         style="fill:#c4d2ff;fill-opacity:1;fill-rule:nonzero;stroke:none"
         id="path36" /><path
         d="m 28576.1,12127.8 h -1622.2 v 1219.7 h 240.8 V 12322 c 0,-62.9 51,-113.9 113.9,-113.9 63,0 114,51 114,113.9 v 1025.5 h 253.6 V 12322 c 0,-62.9 51,-113.9 114,-113.9 62.9,0 113.9,51 113.9,113.9 v 1025.5 h 253.7 V 12322 c 0,-62.9 51,-113.9 113.9,-113.9 63,0 114,51 114,113.9 v 1025.5 h 190.4 z m 149.7,1267.3 h -340.1 v 134.8 h 19.8 c 26.2,0 47.5,21.4 47.5,47.5 v 27.8 c 0,26.1 -21.3,47.5 -47.5,47.5 H 28136 c -26.2,0 -47.6,-21.4 -47.6,-47.5 v -27.8 c 0,-26.1 21.4,-47.5 47.6,-47.5 h 21.8 v -134.8 h -253.7 v 134.8 h 19.8 c 26.2,0 47.6,21.4 47.6,47.5 v 27.8 c 0,26.1 -21.4,47.5 -47.6,47.5 h -269.5 c -26.1,0 -47.5,-21.4 -47.5,-47.5 v -27.8 c 0,-26.1 21.4,-47.5 47.5,-47.5 h 21.8 v -134.8 h -253.6 v 134.8 h 19.8 c 26.2,0 47.6,21.4 47.6,47.5 v 27.8 c 0,26.1 -21.4,47.5 -47.6,47.5 h -269.5 c -26.2,0 -47.6,-21.4 -47.6,-47.5 v -27.8 c 0,-26.1 21.4,-47.5 47.6,-47.5 h 21.8 v -134.8 h -390.4 c -13.1,0 -23.8,-10.7 -23.8,-23.8 0,-13.1 10.7,-23.8 23.8,-23.8 h 108 v -1219.7 h -63.4 c -24.6,0 -44.6,-19.9 -44.6,-44.6 0,-24.6 20,-44.6 44.6,-44.6 h 1832.3 c 24.6,0 44.6,20 44.6,44.6 0,24.7 -20,44.6 -44.6,44.6 h -63.4 v 1219.7 h 108 c 13.1,0 23.7,10.7 23.7,23.8 0,13.1 -10.6,23.8 -23.7,23.8"
         style="fill:#b8c9ff;fill-opacity:1;fill-rule:nonzero;stroke:none"
         id="path38" /><path
         d="m 31085.5,12177.6 -438.4,727.1 v 262.5 c 21.5,0 38.9,17.4 38.9,38.9 v 6.7 c 0,21.5 -17.4,38.9 -38.9,38.9 h -233.2 c -21.5,0 -38.9,-17.4 -38.9,-38.9 v -6.7 c 0,-21.5 17.4,-38.9 38.9,-38.9 v -262.5 l -438.4,-727.1 c -36.9,-61.2 7.4,-139 79.2,-139 h 475.8 475.8 c 71.8,0 116.1,77.8 79.2,139"
         style="fill:#b8c9ff;fill-opacity:1;fill-rule:nonzero;stroke:none"
         id="path40" /><path
         d="m 30409.9,12182.1 -444.8,750.7 v 565.4 c 21.8,0 39.4,17.6 39.4,39.4 v 8.3 c 0,21.8 -17.6,39.4 -39.4,39.4 h -236.6 c -21.7,0 -39.4,-17.6 -39.4,-39.4 v -8.3 c 0,-21.8 17.7,-39.4 39.4,-39.4 v -565.4 l -444.8,-750.7 c -37.4,-63.2 7.6,-143.5 80.5,-143.5 h 482.6 482.7 c 72.8,0 117.8,80.3 80.4,143.5"
         style="fill:#c4d2ff;fill-opacity:1;fill-rule:nonzero;stroke:none"
         id="path42" /><path
         d="m 31880.2,12217.6 -489.9,936.5 v 705.4 c 24,0 43.5,19.4 43.5,43.4 v 21.9 c 0,24 -19.5,43.4 -43.5,43.4 h -260.5 c -23.9,0 -43.4,-19.4 -43.4,-43.4 v -21.9 c 0,-24 19.5,-43.4 43.4,-43.4 v -705.4 l -489.8,-936.5 c -41.2,-78.8 8.4,-179 88.6,-179 h 531.5 531.5 c 80.2,0 129.8,100.2 88.6,179"
         style="fill:#c4d2ff;fill-opacity:1;fill-rule:nonzero;stroke:none"
         id="path44" /><path
         d="m 26235.6,12076.8 h -5546.4 v 228.5 h 5546.4 v -228.5"
         style="fill:#cfdaff;fill-opacity:1;fill-rule:nonzero;stroke:none"
         id="path46" /><path
         d="m 26235.6,9644.5 h -5546.4 v 228.4 h 5546.4 v -228.4"
         style="fill:#cfdaff;fill-opacity:1;fill-rule:nonzero;stroke:none"
         id="path48" /><path
         d="M 22793.4,9874.1 H 22351 v 1702.5 h 442.4 V 9874.1"
         style="fill:#c2d1ff;fill-opacity:1;fill-rule:nonzero;stroke:none"
         id="path50" /><path
         d="m 23106.2,9874.1 h -320.1 v 1566.5 h 320.1 V 9874.1"
         style="fill:#cfdbff;fill-opacity:1;fill-rule:nonzero;stroke:none"
         id="path52" /><path
         d="m 22351.5,9874.1 h -320 v 1391.4 h 320 V 9874.1"
         style="fill:#cfdbff;fill-opacity:1;fill-rule:nonzero;stroke:none"
         id="path54" /><path
         d="m 22039.7,9874.1 h -320 v 1510.6 h 320 V 9874.1"
         style="fill:#cfdbff;fill-opacity:1;fill-rule:nonzero;stroke:none"
         id="path56" /><path
         d="m 21034,9874.1 -192.9,96.8 677.7,1350.1 192.9,-96.8 -677.7,-1350.1"
         style="fill:#cfdbff;fill-opacity:1;fill-rule:nonzero;stroke:none"
         id="path58" /><path
         d="m 21417,12303.8 h -378.4 V 13760 h 378.4 v -1456.2"
         style="fill:#c2d1ff;fill-opacity:1;fill-rule:nonzero;stroke:none"
         id="path60" /><path
         d="m 21684.5,12303.8 h -273.7 v 1339.9 h 273.7 v -1339.9"
         style="fill:#c2d1ff;fill-opacity:1;fill-rule:nonzero;stroke:none"
         id="path62" /><path
         d="m 23102.9,12303.8 h 378.4 V 13760 h -378.4 v -1456.2"
         style="fill:#c2d1ff;fill-opacity:1;fill-rule:nonzero;stroke:none"
         id="path64" /><path
         d="M 24849.5,12303.8 H 25228 V 13760 h -378.5 v -1456.2"
         style="fill:#c2d1ff;fill-opacity:1;fill-rule:nonzero;stroke:none"
         id="path66" /><path
         d="m 25435.8,12388 234.1,-84.2 492.6,1370.4 -234.1,84.1 -492.6,-1370.3"
         style="fill:#c2d1ff;fill-opacity:1;fill-rule:nonzero;stroke:none"
         id="path68" /><path
         d="m 24193.1,12303.8 h 278 v 1119.3 h -278 v -1119.3"
         style="fill:#c2d1ff;fill-opacity:1;fill-rule:nonzero;stroke:none"
         id="path70" /><path
         d="m 24019.3,12303.8 h 175.3 v 1393.1 h -175.3 v -1393.1"
         style="fill:#cfdbff;fill-opacity:1;fill-rule:nonzero;stroke:none"
         id="path72" /><path
         d="m 22835.4,12303.8 h 273.7 v 1339.9 h -273.7 v -1339.9"
         style="fill:#cfdbff;fill-opacity:1;fill-rule:nonzero;stroke:none"
         id="path74" /><path
         d="m 23480.8,12303.8 h 273.8 v 1190.1 h -273.8 v -1190.1"
         style="fill:#cfdbff;fill-opacity:1;fill-rule:nonzero;stroke:none"
         id="path76" /><path
         d="m 23747.5,12303.8 h 273.8 v 1292.1 h -273.8 v -1292.1"
         style="fill:#cfdbff;fill-opacity:1;fill-rule:nonzero;stroke:none"
         id="path78" /><path
         d="m 24470.6,12303.8 h 380.6 v 1611.1 h -380.6 v -1611.1"
         style="fill:#cfdbff;fill-opacity:1;fill-rule:nonzero;stroke:none"
         id="path80" /><path
         d="m 22263,12365.7 -212.6,-61.9 -374.5,1286.5 212.6,61.9 374.5,-1286.5"
         style="fill:#c2d1ff;fill-opacity:1;fill-rule:nonzero;stroke:none"
         id="path82" /><path
         d="m 836.66,9381.8 1288.03,817.9 29.59,-46.6 -1288.03,-817.9 -29.59,46.6"
         style="fill:#ffffff;fill-opacity:1;fill-rule:nonzero;stroke:none"
         id="path84" /><path
         d="m 1048.92,9139.8 1254.48,796.3 29.58,-46.6 -1254.49,-796.3 -29.57,46.6"
         style="fill:#ffffff;fill-opacity:1;fill-rule:nonzero;stroke:none"
         id="path86" /><path
         d="m 1317.64,8926.9 1012.79,643.1 29.59,-46.6 -1012.8,-643.1 -29.58,46.6"
         style="fill:#ffffff;fill-opacity:1;fill-rule:nonzero;stroke:none"
         id="path88" /><path
         d="m 1707.87,8798.8 589.97,374.5 29.57,-46.6 -589.96,-374.5 -29.58,46.6"
         style="fill:#ffffff;fill-opacity:1;fill-rule:nonzero;stroke:none"
         id="path90" /><path
         d="m 1988.58,8212.4 704.58,447.4 29.59,-46.6 -704.59,-447.4 -29.58,46.6"
         style="fill:#ffffff;fill-opacity:1;fill-rule:nonzero;stroke:none"
         id="path92" /><path
         d="m 1952.04,7809.1 1121.74,712.3 29.59,-46.6 -1121.75,-712.3 -29.58,46.6"
         style="fill:#ffffff;fill-opacity:1;fill-rule:nonzero;stroke:none"
         id="path94" /><path
         d="m 2040.21,7484.9 1288.04,817.9 29.59,-46.6 -1288.04,-817.9 -29.59,46.6"
         style="fill:#ffffff;fill-opacity:1;fill-rule:nonzero;stroke:none"
         id="path96" /><path
         d="m 2212.26,7213.9 1288.03,817.9 29.59,-46.6 -1288.03,-817.9 -29.59,46.6"
         style="fill:#ffffff;fill-opacity:1;fill-rule:nonzero;stroke:none"
         id="path98" /><path
         d="m 2422.29,6967.1 1212.05,769.7 29.58,-46.6 -1212.05,-769.7 -29.58,46.6"
         style="fill:#ffffff;fill-opacity:1;fill-rule:nonzero;stroke:none"
         id="path100" /><path
         d="m 2760.62,6801.8 880.18,558.9 29.6,-46.6 -880.2,-558.9 -29.58,46.6"
         style="fill:#ffffff;fill-opacity:1;fill-rule:nonzero;stroke:none"
         id="path102" /><path
         d="m 3222.61,6718.2 313.98,199.3 29.58,-46.6 -313.98,-199.3 -29.58,46.6"
         style="fill:#ffffff;fill-opacity:1;fill-rule:nonzero;stroke:none"
         id="path104" /><path
         d="m 3354.46,6421.8 394.27,250.2 29.58,-46.6 -394.27,-250.2 -29.58,46.6"
         style="fill:#ffffff;fill-opacity:1;fill-rule:nonzero;stroke:none"
         id="path106" /><path
         d="m 3267.41,5983.1 877.32,557.1 29.59,-46.6 -877.32,-557.1 -29.59,46.6"
         style="fill:#ffffff;fill-opacity:1;fill-rule:nonzero;stroke:none"
         id="path108" /><path
         d="m 3298.25,5622.5 1180.52,749.6 29.58,-46.6 -1180.51,-749.6 -29.59,46.6"
         style="fill:#ffffff;fill-opacity:1;fill-rule:nonzero;stroke:none"
         id="path110" /><path
         d="m 3416.53,5317.4 1288.04,817.9 29.59,-46.6 -1288.04,-817.9 -29.59,46.6"
         style="fill:#ffffff;fill-opacity:1;fill-rule:nonzero;stroke:none"
         id="path112" /><path
         d="m 2031.6,8819.1 c -992.09,73.5 -1164.823,727.8 -1173.764,753.3 -3.344,46.8 -43.973,82 -90.746,78.6 -46.774,-3.3 -81.977,-43.9 -78.633,-90.7 0.652,-9.3 2.836,-18.4 6.441,-26.9 8.055,-32.1 201.372,-800.8 1322.082,-882.8 790.39,-58.7 1096.88,-151.1 1363.88,-577 l 24.81,-39.6 c 266.54,-425.1 214.52,-743.3 -74.89,-1479 -412.28,-1043.1 192.07,-1553.1 218.56,-1574.6 27.85,-22.3 66.65,-24.8 97.12,-6.2 7.85,4.9 14.72,11.3 20.31,18.7 28.3,35.8 23.31,87.5 -11.32,117.2 -3.6,5.7 -537.4,452.8 -167.09,1385.4 285.47,721.1 384.19,1116.7 62.62,1629.6 l -24.81,39.6 c -317.97,515.2 -720.66,596.4 -1494.57,654.4"
         style="fill:#3f964f;fill-opacity:1;fill-rule:nonzero;stroke:none"
         id="path114" /><path
         d="m 2299.7,8827.8 c 413.01,1043.6 -192.52,1553.9 -218.55,1574.7 -29.6,36.3 -83.08,41.8 -119.45,12.3 -36.38,-29.7 -41.88,-83.1 -12.29,-119.5 7.13,-8.8 15.93,-16 25.89,-21.3 22.08,-19.2 534.62,-459.5 167.09,-1385.5 -285.01,-721.8 -384.45,-1117.9 -62.88,-1630.8 l 24.8,-39.5 c 321.58,-513 721.38,-596 1494.84,-653.3 990.66,-74.3 1163.92,-726.3 1174.22,-754 11.63,-44.1 56.01,-71.1 100.53,-61.2 9.11,1.8 17.83,5.2 25.73,10.1 29.95,19.4 44.59,55.4 36.68,90.2 -7.78,33.2 -201.37,800.7 -1322.09,882.7 -790.83,59.4 -1097.32,151.9 -1363.87,577 l -24.81,39.6 c -269.16,424.5 -217.41,741.6 74.16,1478.5"
         style="fill:#3f964f;fill-opacity:1;fill-rule:nonzero;stroke:none"
         id="path116" /><path
         d="M 20305.6,16238 V 8588.1 c 0,-333 -270,-603 -603.1,-603 H 3369.05 c -333.1,0 -603.1,270 -603.1,603 V 16238 c 0,333 270,603 603.1,603 H 19702.5 c 333.1,0 603.1,-270 603.1,-603"
         style="fill:#78a5ff;fill-opacity:1;fill-rule:nonzero;stroke:none"
         id="path118" /><path
         d="m 17296.9,10341.2 h -375.1 v 682.2 c 0,103.6 84,187.6 187.6,187.6 v 0 c 103.5,0 187.5,-84 187.5,-187.6 v -682.2"
         style="fill:#9cc2ff;fill-opacity:1;fill-rule:nonzero;stroke:none"
         id="path120" /><path
         d="m 18323.5,10341.2 h -375.2 v 1095.7 c 0,103.6 84,187.6 187.6,187.6 v 0 c 103.6,0 187.6,-84 187.6,-187.6 v -1095.7"
         style="fill:#9cc2ff;fill-opacity:1;fill-rule:nonzero;stroke:none"
         id="path122" /><path
         d="m 17822.4,10341.2 h -375.1 v 1521.4 c 0,103.6 84,187.5 187.5,187.5 v 0 c 103.6,0 187.6,-83.9 187.6,-187.5 v -1521.4"
         style="fill:#9cc2ff;fill-opacity:1;fill-rule:nonzero;stroke:none"
         id="path124" /><path
         d="m 18909.5,10341.2 h -371.4 v 2020.2 c 0,102.5 83.2,185.7 185.7,185.7 v 0 c 102.6,0 185.7,-83.2 185.7,-185.7 v -2020.2"
         style="fill:#9cc2ff;fill-opacity:1;fill-rule:nonzero;stroke:none"
         id="path126" /><path
         d="m 19539.8,10341.2 h -371.4 v 2545 c 0,102.6 83.1,185.7 185.7,185.7 v 0 c 102.5,0 185.7,-83.1 185.7,-185.7 v -2545"
         style="fill:#9cc2ff;fill-opacity:1;fill-rule:nonzero;stroke:none"
         id="path128" /><path
         d="m 16750.5,11763.7 c -17.3,0 -34.4,7.4 -46.3,21.7 -21.1,25.5 -17.6,63.4 7.9,84.5 l 851.9,706 c 22,18.3 53.7,18.5 76,0.6 l 376.1,-303.1 1008.1,1103 c 22.3,24.5 60.3,26.2 84.8,3.9 24.4,-22.4 26.2,-60.4 3.8,-84.9 l -1046.1,-1144.6 c -21.4,-23.4 -57.3,-26.1 -82,-6.2 l -381.9,307.6 -814.1,-674.7 c -11.2,-9.3 -24.7,-13.8 -38.2,-13.8"
         style="fill:#9cc2ff;fill-opacity:1;fill-rule:nonzero;stroke:none"
         id="path130" /><path
         d="m 19118.8,13061.5 -100.3,219.7 -227.8,80.3 519.5,239 -191.4,-539"
         style="fill:#9cc2ff;fill-opacity:1;fill-rule:nonzero;stroke:none"
         id="path132" /><path
         d="M 14798.2,12526.3 H 8924.46 c -123.1,0 -222.88,99.8 -222.88,222.9 v 3324.2 c 0,123.1 99.78,222.9 222.88,222.9 h 5873.74 c 123.1,0 222.9,-99.8 222.9,-222.9 v -3324.2 c 0,-123.1 -99.8,-222.9 -222.9,-222.9"
         style="fill:#ffffff;fill-opacity:1;fill-rule:nonzero;stroke:none"
         id="path134" /><path
         d="m 9569.99,16235.2 h -613.13 c -44.24,0 -80.36,27.3 -80.36,61.1 0,33.7 35.6,61 79.83,61 h 613.66 c 44.23,0 80.09,-27.3 80.09,-61 0,-33.8 -35.86,-61.1 -80.09,-61.1 z m 1227.31,0 h -613.7 c -44.2,0 -80,27.3 -80,61.1 0,33.7 35.8,61 80,61 h 613.7 c 44.2,0 80.1,-27.3 80.1,-61 0,-33.8 -35.9,-61.1 -80.1,-61.1 z m 1227.3,0 H 11411 c -44.3,0 -80.1,27.3 -80.1,61.1 0,33.7 35.8,61 80.1,61 h 613.6 c 44.3,0 80.1,-27.3 80.1,-61 0,-33.8 -35.8,-61.1 -80.1,-61.1 z m 1227.3,0 h -613.6 c -44.3,0 -80.1,27.3 -80.1,61.1 0,33.7 35.8,61 80.1,61 h 613.6 c 44.3,0 80.1,-27.3 80.1,-61 0,-33.8 -35.8,-61.1 -80.1,-61.1 z m 1227.3,0 h -613.6 c -44.2,0 -80.1,27.3 -80.1,61.1 0,33.7 35.9,61 80.1,61 h 613.6 c 44.3,0 80.1,-27.3 80.1,-61 0,-33.8 -35.8,-61.1 -80.1,-61.1 z m 541.9,-605.9 c -44.3,0 -80.1,27.3 -80.1,61 v 411.4 c 0,13 -2.5,25.9 -7.3,38.2 -12.6,32.3 11.5,66.3 53.9,75.9 42.4,9.6 87,-8.8 99.6,-41.1 9.3,-23.6 14,-48.2 14,-73 v -411.4 c 0,-33.7 -35.9,-61 -80.1,-61 z m -6319.53,-218.9 c -44.23,0 -80.09,27.4 -80.09,61.1 v 467.8 c 0,33.7 35.86,61 80.09,61 44.23,0 80.1,-27.3 80.1,-61 v -467.8 c 0,-33.7 -35.87,-61.1 -80.1,-61.1 z m 6319.53,-716.7 c -44.3,0 -80.1,27.4 -80.1,61.1 v 467.8 c 0,33.7 35.8,61 80.1,61 44.2,0 80.1,-27.3 80.1,-61 v -467.8 c 0,-33.7 -35.9,-61.1 -80.1,-61.1 z m -6319.53,-218.8 c -44.23,0 -80.09,27.4 -80.09,61.1 v 467.7 c 0,33.8 35.86,61.1 80.09,61.1 44.23,0 80.1,-27.3 80.1,-61.1 V 14536 c 0,-33.7 -35.87,-61.1 -80.1,-61.1 z m 6319.53,-716.7 c -44.3,0 -80.1,27.3 -80.1,61 v 467.8 c 0,33.7 35.8,61.1 80.1,61.1 44.2,0 80.1,-27.4 80.1,-61.1 v -467.8 c 0,-33.7 -35.9,-61 -80.1,-61 z m -6319.53,-218.8 c -44.23,0 -80.09,27.3 -80.09,61 v 467.8 c 0,33.7 35.86,61.1 80.09,61.1 44.23,0 80.1,-27.4 80.1,-61.1 v -467.8 c 0,-33.7 -35.87,-61 -80.1,-61 z m 6319.53,-716.8 c -44.3,0 -80.1,27.4 -80.1,61.1 v 467.8 c 0,33.7 35.8,61 80.1,61 44.2,0 80.1,-27.3 80.1,-61 v -467.8 c 0,-33.7 -35.9,-61.1 -80.1,-61.1 z m -6309.12,-218 c -34.58,0 -66.48,17.2 -76.77,43.8 -9.11,23.4 -13.73,47.9 -13.73,72.5 v 411.8 c 0,33.7 35.86,61 80.09,61 44.23,0 80.1,-27.3 80.1,-61 v -411.8 c 0,-12.9 2.4,-25.7 7.15,-37.9 12.54,-32.4 -11.69,-66.3 -54.11,-75.9 -7.57,-1.7 -15.22,-2.5 -22.73,-2.5 z m 1144.54,-139.3 h -613.66 c -44.23,0 -80.09,27.3 -80.09,61 0,33.7 35.86,61.1 80.09,61.1 h 613.66 c 44.23,0 80.09,-27.4 80.09,-61.1 0,-33.7 -35.86,-61 -80.09,-61 z m 1227.28,0 h -613.6 c -44.3,0 -80.1,27.3 -80.1,61 0,33.7 35.8,61.1 80.1,61.1 h 613.6 c 44.3,0 80.1,-27.4 80.1,-61.1 0,-33.7 -35.8,-61 -80.1,-61 z m 1227.3,0 h -613.6 c -44.2,0 -80.1,27.3 -80.1,61 0,33.7 35.9,61.1 80.1,61.1 h 613.6 c 44.3,0 80.1,-27.4 80.1,-61.1 0,-33.7 -35.8,-61 -80.1,-61 z m 1227.4,0 h -613.7 c -44.2,0 -80.1,27.3 -80.1,61 0,33.7 35.9,61.1 80.1,61.1 h 613.7 c 44.2,0 80.1,-27.4 80.1,-61.1 0,-33.7 -35.9,-61 -80.1,-61 z m 1227.3,0 h -613.7 c -44.2,0 -80.1,27.3 -80.1,61 0,33.7 35.9,61.1 80.1,61.1 h 613.7 c 44.1,0 80.5,-27.3 80.6,-61 0.1,-33.6 -35.1,-61 -79.2,-61.1 -0.1,0 -1.3,0 -1.4,0"
         style="fill:#9cc2ff;fill-opacity:1;fill-rule:nonzero;stroke:none"
         id="path136" /><path
         d="m 11310,14382.7 281.8,488.3 h 563.8 l 281.9,-488.3 -281.9,-488.3 h -563.8 z m 956.4,-536.5 281.8,488.3 h 556.2 l 285.7,-494.8 -278.1,-481.7 h -563.8 z m 1793.9,48.2 H 13504 l -285.6,494.8 278.1,481.8 h 563.8 l 281.8,-488.3 z m -3816.1,1046.4 c 0,0 423.6,493.5 449,493.5 0,0 387.2,0.7 519.6,1 l 283.4,-490.9 -317.3,-549.7 c -4.3,-7.4 -4.3,-16.6 0,-24 l 336.9,-583.8 c 4.3,-7.4 12.3,-12 20.9,-12 h 632.8 l 302.7,-524.3 c 4.3,-7.5 12.3,-12 20.9,-12 h 674 c 8.6,0 16.5,4.5 20.8,12 l 302.8,524.3 h 624.7 c 8.6,0 16.5,4.6 20.8,12 l 337,583.8 c 4.3,7.4 4.3,16.6 0,24 l -303.9,526.4 387.8,482.6 c 20.5,25.6 16.4,63.2 -9,83.9 -10.7,8.6 -24,13.2 -37.5,13.2 -18.2,0 -35.2,-8.1 -46.6,-22.2 l -392.3,-488.2 h -630.3 c -8.6,0 -16.6,-4.5 -20.9,-12 l -302.7,-524.4 h -583.4 l -302.8,524.4 c -4.3,7.5 -12.3,12 -20.9,12 h -603 l -307.5,532.5 c -10.1,19 -30,31.9 -52.8,32 l -597.3,-1 -497.5,-536.3 c -13.6,-16.2 -17.6,-38.8 -10.2,-58.9 3.6,-9.8 9.7,-18.6 17.7,-25.2 25.3,-21.1 63,-17.8 84.1,7.3"
         style="fill:#3f964f;fill-opacity:1;fill-rule:nonzero;stroke:none"
         id="path138" /><path
         d="m 12186.2,14483.5 c 10.7,18.4 30.5,29.8 51.7,29.8 10.6,0 21.1,-2.9 30,-8.2 28.3,-16.5 38,-53.2 21.5,-81.7 l -255.1,-439.3 c -10.6,-18.3 -30.4,-29.7 -51.6,-29.7 -10.6,0 -21,2.9 -30.1,8.2 -28.3,16.5 -38,53.1 -21.5,81.6 l 255.1,439.3"
         style="fill:#3f964f;fill-opacity:1;fill-rule:nonzero;stroke:none"
         id="path140" /><path
         d="m 13882.2,14054.1 251.7,436.5 c 10.8,18.3 30.7,29.7 51.9,29.7 10.4,0 20.7,-2.8 29.7,-8 28.3,-16.5 38.1,-53 21.8,-81.6 l -251.7,-436.5 c -10.7,-18.3 -30.5,-29.7 -51.7,-29.7 -10.5,0 -20.8,2.7 -29.9,8 -28.3,16.4 -38.1,53 -21.8,81.6"
         style="fill:#3f964f;fill-opacity:1;fill-rule:nonzero;stroke:none"
         id="path142" /><path
         d="m 9449.86,14742.3 v 230.8 c 0,26.5 21.98,48.5 48.49,48.5 26.5,0 48.48,-22 48.48,-48.5 v -367.2 c 0,-33 -19.39,-49.8 -49.78,-49.8 -18.1,0 -37.5,12.9 -57.53,38.1 l -190.08,239.9 v -229.5 c 0,-26.5 -21.98,-48.5 -48.48,-48.5 -26.51,0 -48.5,22 -48.5,48.5 v 367.2 c 0,27.8 17.46,49.8 47.85,49.8 22.62,0 35.55,-8.4 58.18,-36.9 l 191.37,-242.4"
         style="fill:#3f964f;fill-opacity:1;fill-rule:nonzero;stroke:none"
         id="path144" /><path
         d="m 9931.51,14973.1 c 0,26.5 22.63,48.5 51.72,48.5 29.07,0 51.77,-22 51.77,-48.5 v -368.5 c 0,-26.5 -22.7,-48.5 -51.77,-48.5 -29.09,0 -51.72,22 -51.72,48.5 v 140.3 h -164.85 v -140.3 c 0,-26.5 -22.64,-48.5 -51.73,-48.5 -29.09,0 -51.72,22 -51.72,48.5 v 368.5 c 0,26.5 22.63,48.5 51.72,48.5 29.09,0 51.73,-22 51.73,-48.5 v -131.3 h 164.85 v 131.3"
         style="fill:#3f964f;fill-opacity:1;fill-rule:nonzero;stroke:none"
         id="path146" /><path
         d="m 10301,14579.8 c 52.4,-11.9 81.8,-51.8 81.8,-104.8 0,-40.6 -13.8,-72.4 -41.8,-96.1 -28.1,-24.3 -63.7,-36.2 -106.7,-36.2 -49.3,0 -87.4,11.9 -113.6,36.2 -19.9,17.5 -24.3,46.8 -9.3,66.2 16.8,21.8 44.3,22.4 63.6,9.3 18.1,-11.8 35.6,-18.1 53,-18.1 35.6,0 54.9,18.1 54.9,42.4 0,32.5 -19.3,48.7 -58,48.7 -29.9,0 -51.8,15.6 -51.8,46.2 0,30.5 21.3,46.1 48.7,46.1 25,0 44.3,16.2 44.3,44.3 0,20.6 -12.5,36.8 -39.9,36.8 -16.3,0 -31.2,-3.7 -44.3,-11.2 -22.5,-13.1 -49.9,-9.4 -63,12.5 -8.8,13.7 -13.1,43 13.1,63 26.2,19.3 60.5,29.3 102.9,29.3 38.7,0 70.5,-10 94.8,-29.9 24.4,-20.6 36.2,-47.4 36.2,-81.8 0,-50.5 -20.6,-82.3 -64.9,-102.9"
         style="fill:#3f964f;fill-opacity:1;fill-rule:nonzero;stroke:none"
         id="path148" /><path
         d="M 6805.91,12195.4 H 3262.63 c -89.42,0 -161.92,72.5 -161.92,161.9 v 2357.6 c 0,89.5 72.5,162 161.92,162 h 3543.28 c 89.42,0 161.91,-72.5 161.91,-162 v -2357.6 c 0,-89.4 -72.49,-161.9 -161.91,-161.9"
         style="fill:#9cc2ff;fill-opacity:1;fill-rule:nonzero;stroke:none"
         id="path150" /><path
         d="M 6218.84,13971 H 3486.42 c -96.13,0 -174.07,77.9 -174.07,174 v 56.6 c 0,96.1 77.94,174 174.07,174 h 2732.42 c 96.13,0 174.06,-77.9 174.06,-174 v -56.6 c 0,-96.1 -77.93,-174 -174.06,-174"
         style="fill:#78a5ff;fill-opacity:1;fill-rule:nonzero;stroke:none"
         id="path152" /><path
         d="M 5103.45,13439.1 H 3379.96 c -37.34,0 -67.61,30.3 -67.61,67.6 v 67.1 c 0,37.4 30.27,67.6 67.61,67.6 h 1723.49 c 37.33,0 67.6,-30.2 67.6,-67.6 v -67.1 c 0,-37.3 -30.27,-67.6 -67.6,-67.6"
         style="fill:#78a5ff;fill-opacity:1;fill-rule:nonzero;stroke:none"
         id="path154" /><path
         d="M 4581.43,12624.2 H 3369.46 c -31.54,0 -57.11,25.6 -57.11,57.1 v 88.1 c 0,31.5 25.57,57.1 57.11,57.1 h 1211.97 c 31.54,0 57.11,-25.6 57.11,-57.1 v -88.1 c 0,-31.5 -25.57,-57.1 -57.11,-57.1"
         style="fill:#78a5ff;fill-opacity:1;fill-rule:nonzero;stroke:none"
         id="path156" /><path
         d="M 5487.91,13057.3 H 3386.73 c -41.07,0 -74.38,33.3 -74.38,74.4 v 53.6 c 0,41.1 33.31,74.4 74.38,74.4 h 2101.18 c 41.08,0 74.38,-33.3 74.38,-74.4 v -53.6 c 0,-41.1 -33.3,-74.4 -74.38,-74.4"
         style="fill:#78a5ff;fill-opacity:1;fill-rule:nonzero;stroke:none"
         id="path158" /><path
         d="m 6906.41,14396.7 c -29.39,0 -58.91,1.5 -88.55,4.6 -466.2,47.9 -806.48,466.2 -758.53,932.4 8.35,81.2 80.95,140.3 162.13,131.9 81.19,-8.3 140.24,-80.9 131.89,-162.1 -31.27,-304.1 190.67,-576.9 494.76,-608.2 147.3,-15.2 291.69,28 406.56,121.4 114.88,93.4 186.49,226 201.63,373.3 31.28,304.1 -190.66,577 -494.75,608.2 -109.81,11.3 -219.13,-9.9 -316.13,-61.4 -72.09,-38.3 -161.55,-10.9 -199.82,61.2 -38.27,72.1 -10.85,161.6 61.24,199.9 148.94,79 316.63,111.7 484.95,94.4 466.21,-48 806.48,-466.3 758.54,-932.5 -23.24,-225.9 -133.02,-429.1 -309.14,-572.4 -153.01,-124.5 -340.2,-190.7 -534.78,-190.7"
         style="fill:#6397ff;fill-opacity:1;fill-rule:nonzero;stroke:none"
         id="path160" /><path
         d="m 7172.96,15246.7 c 0,-148 -120.04,-268.1 -268.13,-268.1 -148.09,0 -268.14,120.1 -268.14,268.1 0,148.1 120.05,268.2 268.14,268.2 148.09,0 268.13,-120.1 268.13,-268.2"
         style="fill:#6397ff;fill-opacity:1;fill-rule:nonzero;stroke:none"
         id="path162" /><path
         d="m 12887.7,9825.3 h -2428.4 c -97.7,0 -176.8,79.2 -176.8,176.9 V 11794 c 0,97.7 79.1,176.8 176.8,176.8 h 2428.4 c 97.7,0 176.8,-79.1 176.8,-176.8 v -1791.8 c 0,-97.7 -79.1,-176.9 -176.8,-176.9"
         style="fill:#6397ff;fill-opacity:1;fill-rule:nonzero;stroke:none"
         id="path164" /><path
         d="M 11927.1,9437.8 H 9564.3 c -95.02,0 -172.05,77 -172.05,172 v 1743.4 c 0,95.1 77.03,172.1 172.05,172.1 h 2362.8 c 95,0 172,-77 172,-172.1 V 9609.8 c 0,-95 -77,-172 -172,-172"
         style="fill:#9cc2ff;fill-opacity:1;fill-rule:nonzero;stroke:none"
         id="path166" /><path
         d="m 9700.76,11100 -534.69,534.7 H 7769.32 c -19.44,0 -35.2,15.7 -35.2,35.2 0,19.4 15.76,35.2 35.2,35.2 h 1425.9 l 555.31,-555.3 c 13.75,-13.8 13.75,-36 0,-49.8 -13.75,-13.7 -36.02,-13.7 -49.77,0"
         style="fill:#2c2858;fill-opacity:1;fill-rule:nonzero;stroke:none"
         id="path168" /><path
         d="m 8674.37,11810.8 h -911.76 c -19.44,0 -35.2,15.7 -35.2,35.2 0,19.4 15.76,35.2 35.2,35.2 h 911.76 c 19.44,0 35.2,-15.8 35.2,-35.2 0,-19.5 -15.76,-35.2 -35.2,-35.2"
         style="fill:#2c2858;fill-opacity:1;fill-rule:nonzero;stroke:none"
         id="path170" /><path
         d="m 9321.73,8946.3 553.06,14.3 474.51,499.5 c 13.4,14.1 12.8,36.4 -1.3,49.8 -7,6.7 -16.1,9.9 -25.1,9.7 -9,-0.3 -18,-3.9 -24.7,-11 l -454.36,-478.4 -523.92,-13.5 c -19.43,-0.5 -34.78,-16.7 -34.29,-36.1 0.51,-19.4 16.67,-34.8 36.1,-34.3"
         style="fill:#2c2858;fill-opacity:1;fill-rule:nonzero;stroke:none"
         id="path172" /><path
         d="m 9656.2,10454.1 c 0,-197 62.12,-379.2 167.16,-529.3 l 1.35,1 C 9719,10076 9656.2,10258.2 9656.2,10454.1"
         style="fill:#aa62cc;fill-opacity:1;fill-rule:nonzero;stroke:none"
         id="path174" /><path
         d="m 10713.6,11367.9 c 26.3,-3.8 52.3,-8.4 78.1,-14.5 -25.6,6 -51.7,10.7 -78.1,14.5"
         style="fill:#aa62cc;fill-opacity:1;fill-rule:nonzero;stroke:none"
         id="path176" /><path
         d="m 10283.5,9580.2 c -5.1,1.7 -10.2,3 -15.2,4.7 24.6,-8.8 49.6,-16.6 75.1,-23.4 -3.4,1 -6.7,2.3 -10.2,3.2 -16.7,4.8 -33.3,9.9 -49.7,15.5"
         style="fill:#aa62cc;fill-opacity:1;fill-rule:nonzero;stroke:none"
         id="path178" /><path
         d="m 10200.9,9613.2 c -12.2,5.5 -24.7,10.3 -36.6,16.3 26,-13.1 52.6,-25.1 80,-35.8 -4.1,1.6 -7.9,3.7 -12,5.4 -10.7,4.4 -21,9.3 -31.4,14.1"
         style="fill:#aa62cc;fill-opacity:1;fill-rule:nonzero;stroke:none"
         id="path180" /><path
         d="m 10921,11313.1 c 30.2,-12 59.8,-25.4 88.7,-40.5 -28.7,15 -58.4,28.4 -88.7,40.5"
         style="fill:#aa62cc;fill-opacity:1;fill-rule:nonzero;stroke:none"
         id="path182" /><path
         d="m 11223.2,10454.1 h 281.9 c 0,353.5 -198.5,660.3 -490,815.8 l -132.4,-248.7 c 202.5,-108.1 340.5,-321.4 340.5,-567.1"
         style="fill:#0e6a41;fill-opacity:1;fill-rule:nonzero;stroke:none"
         id="path184" /><path
         d="m 10580.6,11378.6 c -510.5,0 -924.4,-413.9 -924.4,-924.5 0,507.2 417.3,924.5 924.4,924.5"
         style="fill:#aa62cc;fill-opacity:1;fill-rule:nonzero;stroke:none"
         id="path186" /><path
         d="m 10820.3,11346.1 c 25.7,-7 51.1,-15 76.1,-24.1 -24.9,9.1 -50.2,17.1 -76.1,24.1"
         style="fill:#aa62cc;fill-opacity:1;fill-rule:nonzero;stroke:none"
         id="path188" /><path
         d="m 10580.6,11378.6 c 35.5,0 70.8,-2.5 105.8,-6.5 -34.7,3.9 -69.9,6.5 -105.8,6.5"
         style="fill:#aa62cc;fill-opacity:1;fill-rule:nonzero;stroke:none"
         id="path190" /><path
         d="m 10150.3,9636.3 c -31.1,16.3 -61.3,34.3 -90.4,54.1 29,-19.7 59.2,-37.7 90.4,-54.1"
         style="fill:#aa62cc;fill-opacity:1;fill-rule:nonzero;stroke:none"
         id="path192" /><path
         d="m 10054.5,9694.5 c -25.7,17.8 -50.3,37.1 -74.14,57.4 23.74,-20.3 48.34,-39.5 74.14,-57.4"
         style="fill:#aa62cc;fill-opacity:1;fill-rule:nonzero;stroke:none"
         id="path194" /><path
         d="m 10580.6,9529.7 c 510.6,0 924.5,413.9 924.5,924.4 0,-507.1 -417.3,-924.4 -924.5,-924.4"
         style="fill:#aa62cc;fill-opacity:1;fill-rule:nonzero;stroke:none"
         id="path196" /><path
         d="m 10475.4,9536.1 c 34.6,-3.9 69.6,-6.4 105.2,-6.4 -35,0 -69.6,2.4 -103.7,6.3 -0.5,0.1 -1,0 -1.5,0.1"
         style="fill:#aa62cc;fill-opacity:1;fill-rule:nonzero;stroke:none"
         id="path198" /><path
         d="m 10377.1,9553.3 c -2,0.5 -4.1,0.7 -6.1,1.2 25.5,-6 51.4,-10.6 77.7,-14.3 -2.2,0.3 -4.4,0.8 -6.6,1.2 -21.9,3.3 -43.6,7.1 -65,11.9"
         style="fill:#aa62cc;fill-opacity:1;fill-rule:nonzero;stroke:none"
         id="path200" /><path
         d="m 9883.15,9848.7 c -17.04,19.6 -33.21,40.1 -48.66,61.3 15.42,-21.2 31.54,-41.6 48.66,-61.3"
         style="fill:#aa62cc;fill-opacity:1;fill-rule:nonzero;stroke:none"
         id="path202" /><path
         d="m 9957.06,9773.1 c -17.53,16 -34.51,32.7 -50.85,50.2 16.3,-17.4 33.27,-34.1 50.85,-50.2"
         style="fill:#aa62cc;fill-opacity:1;fill-rule:nonzero;stroke:none"
         id="path204" /><path
         d="m 10896.4,11322 c 8.2,-2.9 16.5,-5.7 24.6,-8.9 -8.1,3.2 -16.4,6 -24.6,8.9"
         style="fill:#d48fff;fill-opacity:1;fill-rule:nonzero;stroke:none"
         id="path206" /><path
         d="m 10791.7,11353.4 c 9.6,-2.2 19.1,-4.8 28.6,-7.3 -9.5,2.5 -19,5.1 -28.6,7.3"
         style="fill:#d48fff;fill-opacity:1;fill-rule:nonzero;stroke:none"
         id="path208" /><path
         d="m 11015.2,11270.1 c -1.8,0.9 -3.7,1.5 -5.5,2.5 1.8,-1 3.7,-1.7 5.4,-2.7 l 0.1,0.2"
         style="fill:#d48fff;fill-opacity:1;fill-rule:nonzero;stroke:none"
         id="path210" /><path
         d="m 10686.4,11372.1 c 9.2,-1.1 18.1,-2.9 27.2,-4.2 -9.1,1.4 -18,3.1 -27.2,4.2"
         style="fill:#d48fff;fill-opacity:1;fill-rule:nonzero;stroke:none"
         id="path212" /><path
         d="m 10283.5,9580.2 c 16.4,-5.6 33,-10.7 49.7,-15.5 -16.7,4.7 -33.3,9.9 -49.7,15.5"
         style="fill:#d48fff;fill-opacity:1;fill-rule:nonzero;stroke:none"
         id="path214" /><path
         d="m 10580.6,9529.7 c -34.9,0 -69.4,2.4 -103.7,6.3 34.1,-3.9 68.7,-6.3 103.7,-6.3"
         style="fill:#d48fff;fill-opacity:1;fill-rule:nonzero;stroke:none"
         id="path216" /><path
         d="m 10054.3,10086.2 c -385.76,543 241.6,1252.3 828.4,935 l 132.4,248.7 C 10171.2,11725 9267.94,10703.1 9824.71,9925.8 l 229.59,160.4"
         style="fill:#3f964f;fill-opacity:1;fill-rule:nonzero;stroke:none"
         id="path218" /><path
         d="m 10200.9,9613.2 c 10.4,-4.8 20.7,-9.7 31.4,-14.1 -10.6,4.3 -21,9.4 -31.4,14.1"
         style="fill:#d48fff;fill-opacity:1;fill-rule:nonzero;stroke:none"
         id="path220" /><path
         d="m 10377.1,9553.3 c 21.4,-4.8 43.1,-8.6 65,-11.9 -21.8,3.3 -43.6,7.1 -65,11.9"
         style="fill:#d48fff;fill-opacity:1;fill-rule:nonzero;stroke:none"
         id="path222" /><path
         d="m 9906.21,9823.3 c -7.81,8.3 -15.56,16.7 -23.06,25.4 7.52,-8.7 15.25,-17.1 23.06,-25.4"
         style="fill:#32186c;fill-opacity:1;fill-rule:nonzero;stroke:none"
         id="path224" /><path
         d="m 9980.36,9751.9 c -7.98,6.8 -15.56,14.1 -23.3,21.2 7.76,-7.1 15.32,-14.4 23.3,-21.2"
         style="fill:#32186c;fill-opacity:1;fill-rule:nonzero;stroke:none"
         id="path226" /><path
         d="m 10059.9,9690.4 c -1.9,1.3 -3.6,2.8 -5.4,4.1 1.8,-1.3 3.5,-2.8 5.4,-4.1"
         style="fill:#32186c;fill-opacity:1;fill-rule:nonzero;stroke:none"
         id="path228" /><path
         d="m 10475.4,9536.1 c -9,1 -17.8,2.8 -26.7,4.1 8.9,-1.3 17.7,-3.1 26.7,-4.1"
         style="fill:#32186c;fill-opacity:1;fill-rule:nonzero;stroke:none"
         id="path230" /><path
         d="m 10164.3,9629.5 c -4.6,2.4 -9.4,4.4 -14,6.8 4.6,-2.4 9.4,-4.4 14,-6.8"
         style="fill:#32186c;fill-opacity:1;fill-rule:nonzero;stroke:none"
         id="path232" /><path
         d="m 10371,9554.5 c -9.2,2.1 -18.4,4.6 -27.6,7 9.2,-2.4 18.4,-4.9 27.6,-7"
         style="fill:#32186c;fill-opacity:1;fill-rule:nonzero;stroke:none"
         id="path234" /><path
         d="m 10268.3,9584.9 c -8,2.9 -16.1,5.7 -24,8.8 7.9,-3.1 16,-5.9 24,-8.8"
         style="fill:#32186c;fill-opacity:1;fill-rule:nonzero;stroke:none"
         id="path236" /><path
         d="m 9822.92,9924.5 c 3.58,-5.1 7.89,-9.5 11.57,-14.5 -3.66,5 -7.57,9.8 -11.13,14.8 l -0.44,-0.3"
         style="fill:#32186c;fill-opacity:1;fill-rule:nonzero;stroke:none"
         id="path238" /><path
         d="m 9824.71,9925.8 -1.35,-1 c 3.56,-5 7.47,-9.8 11.13,-14.8 15.45,-21.2 31.62,-41.7 48.66,-61.3 7.5,-8.7 15.25,-17.1 23.06,-25.4 16.34,-17.5 33.32,-34.2 50.85,-50.2 7.74,-7.1 15.32,-14.4 23.3,-21.2 23.84,-20.3 48.44,-39.6 74.14,-57.4 1.8,-1.3 3.5,-2.8 5.4,-4.1 29.1,-19.8 59.3,-37.8 90.4,-54.1 4.6,-2.4 9.4,-4.4 14,-6.8 11.9,-6 24.4,-10.8 36.6,-16.3 -151.4,69.1 -281.24,177.6 -376.19,312.6"
         style="fill:#32186c;fill-opacity:1;fill-rule:nonzero;stroke:none"
         id="path240" /><path
         d="m 10442.1,9541.4 c 2.2,-0.4 4.4,-0.9 6.6,-1.2 8.9,-1.3 17.7,-3.1 26.7,-4.1 0.5,-0.1 1,0 1.5,-0.1 -11.7,1.3 -23.2,3.6 -34.8,5.4"
         style="fill:#32186c;fill-opacity:1;fill-rule:nonzero;stroke:none"
         id="path242" /><path
         d="m 10232.3,9599.1 c 4.1,-1.7 7.9,-3.8 12,-5.4 7.9,-3.1 16,-5.9 24,-8.8 5,-1.7 10.1,-3 15.2,-4.7 -17.3,6 -34.4,12 -51.2,18.9"
         style="fill:#32186c;fill-opacity:1;fill-rule:nonzero;stroke:none"
         id="path244" /><path
         d="m 10333.2,9564.7 c 3.5,-0.9 6.8,-2.2 10.2,-3.2 9.2,-2.4 18.4,-4.9 27.6,-7 2,-0.5 4.1,-0.7 6.1,-1.2 -14.8,3.4 -29.4,7.3 -43.9,11.4"
         style="fill:#32186c;fill-opacity:1;fill-rule:nonzero;stroke:none"
         id="path246" /><path
         d="m 11505.1,10454.1 h -281.9 c 12.8,-619.9 -832.2,-876.2 -1168.9,-367.9 l -229.59,-160.4 c 504.19,-736.1 1685.39,-362.9 1680.39,528.3"
         style="fill:#0c5c38;fill-opacity:1;fill-rule:nonzero;stroke:none"
         id="path248" /><path
         d="m 20305.6,16238 v -1570.2 h -4595.1 c -173.2,0 -313.5,140.3 -313.5,313.5 V 16841 h 4305.5 c 333.1,0 603.1,-270 603.1,-603"
         style="fill:#6397ff;fill-opacity:1;fill-rule:nonzero;stroke:none"
         id="path250" /><path
         d="M 21432.5,17677.8 V 15170 c 0,-173.1 -140.3,-313.4 -313.5,-313.4 h -5243.6 c -173.2,0 -313.5,140.3 -313.5,313.4 v 2507.8 c 0,173.1 140.3,313.5 313.5,313.5 H 21119 c 173.2,0 313.5,-140.4 313.5,-313.5"
         style="fill:#9cc2ff;fill-opacity:1;fill-rule:nonzero;stroke:none"
         id="path252" /><path
         d="m 21432.5,17677.8 v -463.4 h -5870.6 v 463.4 c 0,173.1 140.3,313.5 313.5,313.5 H 21119 c 173.2,0 313.5,-140.4 313.5,-313.5"
         style="fill:#78a5ff;fill-opacity:1;fill-rule:nonzero;stroke:none"
         id="path254" /><path
         d="m 16358.7,17579.8 c 0,-138.7 -112.3,-251 -251,-251 -138.6,0 -250.9,112.3 -250.9,251 0,138.6 112.3,251 250.9,251 138.7,0 251,-112.4 251,-251"
         style="fill:#e62552;fill-opacity:1;fill-rule:nonzero;stroke:none"
         id="path256" /><path
         d="m 17071.4,17579.8 c 0,-138.7 -112.4,-251 -251,-251 -138.6,0 -251,112.3 -251,251 0,138.6 112.4,251 251,251 138.6,0 251,-112.4 251,-251"
         style="fill:#9cc2ff;fill-opacity:1;fill-rule:nonzero;stroke:none"
         id="path258" /><path
         d="m 17784,17579.8 c 0,-138.7 -112.4,-251 -251,-251 -138.6,0 -251,112.3 -251,251 0,138.6 112.4,251 251,251 138.6,0 251,-112.4 251,-251"
         style="fill:#9cc2ff;fill-opacity:1;fill-rule:nonzero;stroke:none"
         id="path260" /><path
         d="m 17063.6,15556.4 h -908.1 c -79.7,0 -144.3,64.6 -144.3,144.3 v 908.1 c 0,79.7 64.6,144.3 144.3,144.3 h 908.1 c 79.7,0 144.3,-64.6 144.3,-144.3 v -908.1 c 0,-79.7 -64.6,-144.3 -144.3,-144.3"
         style="fill:#e3eaff;fill-opacity:1;fill-rule:nonzero;stroke:none"
         id="path262" /><path
         d="m 18905.8,15556.4 h -908.2 c -79.7,0 -144.2,64.6 -144.2,144.3 v 908.1 c 0,79.7 64.5,144.3 144.2,144.3 h 908.2 c 79.6,0 144.2,-64.6 144.2,-144.3 v -908.1 c 0,-79.7 -64.6,-144.3 -144.2,-144.3"
         style="fill:#e3eaff;fill-opacity:1;fill-rule:nonzero;stroke:none"
         id="path264" /><path
         d="m 20747.9,15556.4 h -908.1 c -79.7,0 -144.3,64.6 -144.3,144.3 v 908.1 c 0,79.7 64.6,144.3 144.3,144.3 h 908.1 c 79.7,0 144.3,-64.6 144.3,-144.3 v -908.1 c 0,-79.7 -64.6,-144.3 -144.3,-144.3"
         style="fill:#e3eaff;fill-opacity:1;fill-rule:nonzero;stroke:none"
         id="path266" /><path
         d="m 15743.7,9744.1 608,267.2 c 50.5,-65.5 752.5,-253.9 1055.1,-1690.2 63.1,-299.7 -443.6,-1115.1 -756.5,-1363.7 -312.8,-248.6 -482.9,294.3 -482.9,294.3 l 439.2,1017.9 -862.9,1474.5"
         style="fill:#cfdaff;fill-opacity:1;fill-rule:nonzero;stroke:none"
         id="path268" /><path
         d="m 15186.1,1576.3 c -303.7,-427.3 -1049.7,-165.1 -1025,-742.999 1134.4,7.398 1605.8,0 1605.8,0 -1.5,132.699 -23.9,447.799 -50.1,571.099 l -530.7,171.9"
         style="fill:#000000;fill-opacity:1;fill-rule:nonzero;stroke:none"
         id="path270" /><path
         d="m 16946,1576.3 c -303.7,-427.3 -1049.7,-165.1 -1025,-742.999 1134.4,7.398 1605.8,0 1605.8,0 -1.5,132.699 -23.9,447.799 -50.1,571.099 l -530.7,171.9"
         style="fill:#000000;fill-opacity:1;fill-rule:nonzero;stroke:none"
         id="path272" /><path
         d="m 15811.1,10003 -626.4,50.6 -60.5,616.6 552.1,294.1 134.8,-961.3"
         style="fill:#f37a50;fill-opacity:1;fill-rule:nonzero;stroke:none"
         id="path274" /><path
         d="m 15159.8,11938 c -332.6,0 -586.8,-305.1 -646.2,-632.2 -107.6,-591.9 242.3,-973.7 334.5,-1005.6 174.2,-60.3 551.8,128.9 551.8,128.9 0,0 434.2,395.4 434.2,641.8 0,332.6 -341.8,867.1 -674.3,867.1"
         style="fill:#f37a50;fill-opacity:1;fill-rule:nonzero;stroke:none"
         id="path276" /><path
         d="m 16182.7,11370.7 c 156,239.5 43,396.3 -168.9,477.3 -211.9,81 -236.5,185.4 -323.9,325.3 -83,132.6 -467.2,274 -643.5,67.9 -262.9,-307.2 -316.7,-53.6 -546.2,-283.3 -207.1,-207.2 -157,-457.9 -67.2,-573.7 87.3,-112.6 296,88.9 281.6,-59.1 -11.3,-115.5 158.6,-118.5 213.9,-236.6 42,-89.4 115.8,-126.6 104.2,-183 -22.5,-109.8 -106.8,-271.1 116.1,-425.8 127.1,-88.3 199.4,40.1 341.4,-44.4 269.7,-160.5 364.8,32.5 512.1,191.1 147.3,158.7 336.2,149.9 183.2,416.2 -5.8,10.1 -118.3,150.6 -2.8,328.1"
         style="fill:#2c2858;fill-opacity:1;fill-rule:nonzero;stroke:none"
         id="path278" /><path
         d="m 14876.9,11148.9 c -58.8,-85.1 -50.1,-193.1 19.6,-241.3 69.6,-48.1 173.7,-18.2 232.6,66.9 58.8,85.1 50.1,193.1 -19.5,241.3 -69.7,48.1 -173.8,18.2 -232.7,-66.9"
         style="fill:#f37a50;fill-opacity:1;fill-rule:nonzero;stroke:none"
         id="path280" /><path
         d="m 14986.2,10956.2 c -3.3,0.5 -6.6,1.8 -9.6,4 -42.4,30.3 -59.3,74.2 -45.1,117.2 14.5,44 57.3,75.5 101.6,74.9 12.5,-0.2 22.5,-10.4 22.3,-22.9 -0.2,-12.5 -10.4,-22.5 -22.9,-22.3 -24.3,0.3 -49.8,-18.9 -58,-43.8 -7.9,-24 2.2,-47.6 28.5,-66.4 10.1,-7.2 12.5,-21.4 5.2,-31.5 -5.2,-7.2 -13.8,-10.5 -22,-9.2"
         style="fill:#de623c;fill-opacity:1;fill-rule:nonzero;stroke:none"
         id="path282" /><path
         d="m 16501.8,6342.9 c 0,0 293.3,-1466.4 479.9,-2506.1 193.9,-324.9 586.2,-1960.8 583,-2471.8 l -847.3,60.7 c 0,0 -515.1,1514.8 -642.2,1997.8 -158.3,601.7 -519.4,1444.4 -677.7,2654.8 l -38.2,338.5 1142.5,-73.9"
         style="fill:#201d40;fill-opacity:1;fill-rule:nonzero;stroke:none"
         id="path284" /><path
         d="m 14732.7,5959.2 1046.1,-42.2 -116.9,-2146.9 c 116.3,-353.1 256.9,-1938.5 140.4,-2430.4 l -876.1,62.6 c 0,0 -477.3,3114.3 -193.5,4556.9"
         style="fill:#2c2858;fill-opacity:1;fill-rule:nonzero;stroke:none"
         id="path286" /><path
         d="m 14767.9,10124.7 c 0,0 1441.3,29.5 1621.5,-140.2 671.3,-631.9 164.8,-2622.5 809.2,-5640.3 -192.7,67 -851.9,538.3 -1659.8,184.4 -537.8,-235.6 -906,-331.3 -1383.2,-161.4 -218.6,1879.5 395.5,4389.6 395.5,4389.6 l 216.8,1367.9"
         style="fill:#ffffff;fill-opacity:1;fill-rule:nonzero;stroke:none"
         id="path288" /><path
         d="m 12057,9540.7 c 93.2,-5.7 208.4,40.3 244.3,-43.2 l 183.8,89.7 11.2,110.8 c -158,253.2 -543.1,325 -581.2,328.4 -99.1,8.7 -145.1,18.9 -152.8,5.6 -7.8,-13.2 -32,-101.4 111.7,-118.7 180.4,-21.6 60.6,-165.8 -305.3,-28.6 -91.7,34.4 -264.1,-10.2 -201.7,-77.2 68.7,-73.8 266.2,-241 690,-266.8"
         style="fill:#f37a50;fill-opacity:1;fill-rule:nonzero;stroke:none"
         id="path290" /><path
         d="m 12231,9496.6 c 40,-278 482.2,-1545.7 850.8,-1707.8 211.2,157.2 271.6,512.4 211.2,761.6 -113,466.8 -796.7,1147.6 -796.7,1147.6 L 12231,9496.6"
         style="fill:#ffffff;fill-opacity:1;fill-rule:nonzero;stroke:none"
         id="path292" /><path
         d="m 14775.8,10123.2 c 0,0 407.7,-166.1 194.4,-699.4 -213.3,-533.2 -1280.4,-1914.4 -1908.1,-1625.2 -374,722.6 1396.2,2346.8 1713.7,2324.6"
         style="fill:#ffffff;fill-opacity:1;fill-rule:nonzero;stroke:none"
         id="path294" /><path
         d="m 14992.3,10114.5 c 110.1,86.1 457.6,235 854.1,194.9 46,-86.1 43.7,-224.2 43.7,-224.2 l -897.8,29.3"
         style="fill:#ffffff;fill-opacity:1;fill-rule:nonzero;stroke:none"
         id="path296" /><path
         d="m 8603.23,11169.9 c -68.3,-81.4 -121.15,-178.4 -261.9,-175.9 0,0 -120.6,-317.4 -246.98,-565.5 0,0 -142.28,450.6 -142.13,450.8 62.1,95.1 161.7,282.7 194.98,399.6 8.63,30.4 15.71,61.3 24.01,91.9 18.67,74.9 31.62,153 109.6,220 127.92,109.8 272.69,320.5 302.26,326.2 51.66,12.4 33.33,-141 -46.22,-217.5 -127.08,-122.1 -82.83,-175.8 -82.83,-175.8 0,0 133.9,-31.8 158.46,-94.6 11.14,-28.5 70.57,-164 -9.25,-259.2"
         style="fill:#f37a50;fill-opacity:1;fill-rule:nonzero;stroke:none"
         id="path298" /><path
         d="m 6460.23,4187.8 -717.42,-26.7 c 0,0 -134.52,-563.1 -172.53,-1046.4 -31.3,-397.9 103.72,-1051.5 103.47,-1569.6 -0.05,-95.8 -66.95,-246.7 -78.29,-319.2 -40.91,-261.9 717.06,-127.8 717.06,-127.8 -47.1,23.9 -248.46,291.3 -255.03,383.2 -21.6,302.4 103.84,1017.4 226.96,1635.1 109.26,548.2 175.78,1071.4 175.78,1071.4"
         style="fill:#f37a50;fill-opacity:1;fill-rule:nonzero;stroke:none"
         id="path300" /><path
         d="m 4415.83,4490.6 c 0,0 -145.75,-890 -183.76,-1373.3 -31.3,-397.8 58.09,-983.3 57.85,-1501.4 -0.04,-95.8 -66.96,-246.7 -78.3,-319.2 -40.91,-261.9 113.02,-70.8 185.64,-143.4 72.63,-72.6 176.86,-27.7 176.86,-27.7 l 392.06,-8.1 c 0,0 -14.5,21.1 -98.31,52.9 -39.21,21.7 -191.68,289.6 -194.2,381.7 -29.85,1087.1 916.15,2839.3 916.15,2839.3 l -1173.99,99.2"
         style="fill:#f37a50;fill-opacity:1;fill-rule:nonzero;stroke:none"
         id="path302" /><path
         d="m 4641.31,1163.2 c -148.97,-13.5 -247.36,84 -365.54,160 5.36,-88.9 -0.76,-124.8 -0.63,-213.7 62.24,-41.6 104.87,-91.9 127.28,-122.301 12.94,-17.597 32.69,-28.699 54.45,-30.398 l 340.06,-26.5 c 0,0 -107.98,237.199 -155.62,232.899"
         style="fill:#18161a;fill-opacity:1;fill-rule:nonzero;stroke:none"
         id="path304" /><path
         d="m 4859.61,1176 c 0,0 -8.66,-15.2 -36.01,-6.7 -81.85,25.5 -183.35,107.7 -292.1,184.3 -82.17,57.9 -191.81,147.9 -262.88,139.3 -51.19,-6.2 -134.72,-131.2 -121.23,-250.7 5.69,-50.4 20.68,-88.6 70.37,-147.6 49.7,-59 79.5,-255.698 79.5,-255.698 l 58.19,1.899 c 0,0 0.05,347.099 183.03,267.499 132.1,-57.5 161.72,-202.898 279.08,-174.601 95.87,30.903 210.61,91.101 191.38,160.301 -10.85,38.9 -49.68,51.6 -149.33,82"
         style="fill:#e62552;fill-opacity:1;fill-rule:nonzero;stroke:none"
         id="path306" /><path
         d="m 6025.14,1092.4 c -148.97,-13.5 -247.37,84 -365.55,160.1 5.38,-89 -0.76,-124.9 -0.63,-213.8 62.24,-41.501 104.87,-91.802 127.3,-122.298 12.95,-17.601 32.68,-28.601 54.43,-30.3 l 370.18,-22 c 0,0 -138.08,232.698 -185.73,228.298"
         style="fill:#18161a;fill-opacity:1;fill-rule:nonzero;stroke:none"
         id="path308" /><path
         d="m 6388.5,1070.5 c -64.08,21.4 -79,29.4 -79,29.4 -91.03,-30.2 -266.35,92.9 -394.18,182.9 -82.15,57.9 -194.95,149.9 -266.01,141.3 -51.19,-6.2 -125.06,-172.5 -136.19,-248.3 -7.39,-50.1 10.93,-102.2 39.24,-171.9 42.52,-104.697 93.15,-238.998 93.15,-238.998 l 58.17,1.801 c 0,0 0.06,347.197 183.05,267.597 132.1,-57.499 149.22,-168.898 314.67,-171.398 176.23,-2.5 454.56,118.399 187.1,207.598"
         style="fill:#e62552;fill-opacity:1;fill-rule:nonzero;stroke:none"
         id="path310" /><path
         d="m 5775.58,11526.8 c -95.12,190.3 -232.8,263.3 -232.8,263.3 l -24.16,7.8 -1006.99,-220.9 c 0,0 383.3,-773.1 402.79,-792.6 19.49,-19.5 605.42,-579 605.42,-579 0,0 291.42,-72.7 401.48,172.8 200.52,447.2 -50.63,958.4 -145.74,1148.6"
         style="fill:#f37a50;fill-opacity:1;fill-rule:nonzero;stroke:none"
         id="path312" /><path
         d="m 4923.07,9195.4 -672.23,-97.1 c -23.28,-58.2 -314.47,-1062 -244.67,-1283.1 69.81,-221 553.61,-720.3 832.84,-836.6 279.24,-116.4 290.88,314.1 290.88,314.1 l -530.34,650.5 323.52,1252.2"
         style="fill:#cfdaff;fill-opacity:1;fill-rule:nonzero;stroke:none"
         id="path314" /><path
         d="m 7089.85,6650.3 c -131.72,816.7 -348.8,1209.3 -348.8,1209.3 -61.65,420.2 -96.24,1173 -216.82,1433.7 l -773.44,753.9 -1168.08,-130.3 c 0,0 282.78,-2524.4 287.4,-2528 C 4458.47,6676.7 4289.84,5958 4139.35,5530.7 3912.09,4885.5 3380.17,4261.9 3380.17,4261.9 c 519.03,207.6 1229.63,-472 1822.79,-546.1 593.18,-74.2 1035,31.1 1271.5,66.4 374.82,55.9 627.88,-218 627.88,-218 29.54,50.5 182.18,1879.1 -12.49,3086.1"
         style="fill:#ffffff;fill-opacity:1;fill-rule:nonzero;stroke:none"
         id="path316" /><path
         d="M 8010.88,11211.3 7220.82,9904.7 c 0,0 -858.02,153.9 -1102.38,171.4 -333.94,23.8 -401.77,-49.9 -401.77,-49.9 0,0 67.57,-987.3 603.15,-1013.2 -38.57,83.4 1004.98,132.5 1308.84,330 303.87,197.5 751.09,1445.2 746.45,1464.4 -316.4,203 -364.23,403.9 -364.23,403.9"
         style="fill:#ffffff;fill-opacity:1;fill-rule:nonzero;stroke:none"
         id="path318" /><path
         d="m 5381.88,12010.1 c -288,-53.8 -684.28,266 -1085.85,-67.2 -526.14,-436.6 -105.45,-972.7 -484.28,-1293.5 -324.72,-274.9 -1542.17,-795.6 -791.79,-1438.8 -290.97,-91.9 -467.08,-888.2 359.87,-880.5 -68.91,-237.4 398.17,-765.7 1133.23,-168.5 390.51,-581.9 1056.66,260.3 1041.35,819.3 -5.29,192.7 -76.57,436.4 -160.8,650.8 558.96,-298.6 398.16,911.2 235.39,1486.3 162.77,22.2 629.85,1055.9 -247.12,892.1"
         style="fill:#062440;fill-opacity:1;fill-rule:nonzero;stroke:none"
         id="path320" /><path
         d="m 1130.64,3654.9 c 104.55,201.5 352.65,280 554.14,175.5 201.49,-104.6 280.07,-352.7 175.52,-554.2 -104.55,-201.4 -352.65,-280 -554.14,-175.5 -201.49,104.6 -280.07,352.7 -175.52,554.2"
         style="fill:#ffffff;fill-opacity:1;fill-rule:nonzero;stroke:none"
         id="path322" /><path
         d="m 2092.41,4172.6 c 57.91,111.7 195.33,155.2 306.95,97.3 111.6,-57.9 155.13,-195.4 97.22,-307 -57.92,-111.6 -195.34,-155.1 -306.95,-97.2 -111.61,57.9 -155.14,195.3 -97.22,306.9"
         style="fill:#ffffff;fill-opacity:1;fill-rule:nonzero;stroke:none"
         id="path324" /><path
         d="m 28821.7,14278.2 c 57.9,111.6 195.3,155.1 306.9,97.2 111.6,-57.9 155.2,-195.3 97.2,-307 -57.9,-111.6 -195.3,-155.1 -306.9,-97.2 -111.6,57.9 -155.1,195.4 -97.2,307"
         style="fill:#ffffff;fill-opacity:1;fill-rule:nonzero;stroke:none"
         id="path326" /><path
         d="m 4529.77,16340.1 c 57.91,111.6 195.34,155.1 306.95,97.2 111.61,-57.9 155.13,-195.4 97.22,-307 -57.91,-111.6 -195.34,-155.1 -306.95,-97.2 -111.61,57.9 -155.13,195.4 -97.22,307"
         style="fill:#ffffff;fill-opacity:1;fill-rule:nonzero;stroke:none"
         id="path328" /><path
         d="m 1847.18,13364.5 c 57.91,111.6 195.34,155.2 306.95,97.3 111.61,-58 155.14,-195.4 97.22,-307 -57.91,-111.6 -195.34,-155.1 -306.95,-97.2 -111.61,57.9 -155.14,195.3 -97.22,306.9"
         style="fill:#ffffff;fill-opacity:1;fill-rule:nonzero;stroke:none"
         id="path330" /><path
         d="m 25380.3,17319.2 c 58,111.6 195.4,155.2 307,97.2 111.6,-57.9 155.1,-195.3 97.2,-306.9 -57.9,-111.6 -195.3,-155.1 -306.9,-97.2 -111.6,57.9 -155.2,195.3 -97.3,306.9"
         style="fill:#ffffff;fill-opacity:1;fill-rule:nonzero;stroke:none"
         id="path332" /><path
         d="m 2717.61,12038.4 c 247.34,78.3 384.34,342.3 305.99,589.7 -78.34,247.3 -342.35,384.3 -589.69,306 -247.34,-78.4 -384.33,-342.4 -305.99,-589.7 78.34,-247.4 342.35,-384.4 589.69,-306 z m -52.65,166.2 c -155.28,-49.2 -321.63,37.1 -370.81,192.4 -49.19,155.3 37.13,321.7 192.41,370.8 155.29,49.2 321.63,-37.1 370.81,-192.4 49.19,-155.3 -37.13,-321.6 -192.41,-370.8 v 0"
         style="fill:#ffffff;fill-opacity:1;fill-rule:nonzero;stroke:none"
         id="path334" /><path
         d="m 21320.6,8482.4 c 161.7,51.3 251.3,223.9 200.1,385.7 -51.2,161.7 -223.9,251.3 -385.7,200.1 -161.7,-51.2 -251.3,-223.9 -200.1,-385.7 51.3,-161.7 223.9,-251.3 385.7,-200.1 z m -34.4,108.7 c -101.6,-32.1 -210.4,24.3 -242.5,125.9 -32.2,101.5 24.2,210.3 125.8,242.5 101.5,32.1 210.3,-24.3 242.5,-125.9 32.2,-101.5 -24.3,-210.3 -125.8,-242.5 v 0"
         style="fill:#ffffff;fill-opacity:1;fill-rule:nonzero;stroke:none"
         id="path336" /><path
         d="m 11710.2,3398.7 c 161.7,51.2 251.3,223.8 200.1,385.6 -51.3,161.8 -223.9,251.3 -385.7,200.1 -161.7,-51.2 -251.3,-223.9 -200.1,-385.6 51.3,-161.8 223.9,-251.4 385.7,-200.1 z m -34.5,108.7 c -101.5,-32.2 -210.3,24.3 -242.5,125.8 -32.1,101.5 24.3,210.3 125.9,242.5 101.5,32.2 210.3,-24.3 242.5,-125.8 32.1,-101.6 -24.3,-210.4 -125.9,-242.5 v 0"
         style="fill:#ffffff;fill-opacity:1;fill-rule:nonzero;stroke:none"
         id="path338" /><path
         d="m 24949.9,15774.5 c 240.8,76.3 374.2,333.3 298,574.1 -76.3,240.8 -333.4,374.2 -574.2,297.9 -240.8,-76.2 -374.2,-333.3 -297.9,-574.1 76.3,-240.8 333.3,-374.2 574.1,-297.9 z m -51.2,161.8 c -151.2,-47.9 -313.2,36.2 -361.1,187.4 -47.9,151.2 36.2,313.1 187.4,361 151.2,47.9 313.1,-36.2 361,-187.3 47.9,-151.2 -36.1,-313.2 -187.3,-361.1 v 0"
         style="fill:#ffffff;fill-opacity:1;fill-rule:nonzero;stroke:none"
         id="path340" /><path
         d="m 25046.9,7287.5 c 193.1,61.1 300.1,267.3 238.9,460.4 -61.2,193.1 -267.3,300 -460.4,238.9 -193.1,-61.2 -300.1,-267.3 -238.9,-460.4 61.2,-193.1 267.3,-300.1 460.4,-238.9 z m -41.1,129.8 c -121.2,-38.4 -251.1,28.9 -289.5,150.2 -38.4,121.2 29,251.1 150.2,289.5 121.2,38.4 251.1,-29 289.5,-150.2 38.4,-121.3 -29,-251.1 -150.2,-289.5 v 0"
         style="fill:#ffffff;fill-opacity:1;fill-rule:nonzero;stroke:none"
         id="path342" /><path
         d="m 25936.2,9996 c -292.4,-99.8 -1247.7,-1817 -1247.7,-1817 l 736.2,-48.3 788.5,799.1 -277,1066.2"
         style="fill:#cfdaff;fill-opacity:1;fill-rule:nonzero;stroke:none"
         id="path344" /><path
         d="m 26920.4,1500.7 c -272.4,-363.3 -941.1,-140.4 -919,-631.7 1017,6.301 1439.7,0 1439.7,0 -1.4,112.801 -21.5,380.7 -44.9,485.5 l -475.8,146.2"
         style="fill:#000000;fill-opacity:1;fill-rule:nonzero;stroke:none"
         id="path346" /><path
         d="m 28442,1491.1 c -272.4,-363.2 -941.1,-140.3 -919,-631.6 1017,6.301 1439.7,0 1439.7,0 -1.4,112.801 -21.5,380.7 -44.9,485.5 l -475.8,146.1"
         style="fill:#000000;fill-opacity:1;fill-rule:nonzero;stroke:none"
         id="path348" /><path
         d="m 26335.5,7061.4 c 0,0 -163.3,-2340.2 -96.2,-2857.8 67.1,-517.5 416.8,-1184.3 389.9,-2896.3 331.6,-80.3 811.9,0 811.9,0 0,0 71.2,1935.8 -279.3,2800.5 142.5,839.8 599.8,2763.5 599.8,2763.5 l -1426.1,190.1"
         style="fill:#201d40;fill-opacity:1;fill-rule:nonzero;stroke:none"
         id="path350" /><path
         d="m 27344.1,6979.4 c 0,0 15.2,-2583.6 178.4,-3079.3 163.2,-495.8 480.4,-849.4 775.9,-2536 340.7,-16.5 831.3,-23.5 831.3,-23.5 0,0 -174.5,2167.6 -705.1,2654.2 -18,851.7 200.9,3001 200.9,3001 l -1281.4,-16.4"
         style="fill:#2c2858;fill-opacity:1;fill-rule:nonzero;stroke:none"
         id="path352" /><path
         d="m 26525.7,10349.3 440.3,145.1 463.1,-21.7 -374.8,-617.1 -528.6,493.7"
         style="fill:#95a6db;fill-opacity:1;fill-rule:nonzero;stroke:none"
         id="path354" /><path
         d="m 26683.3,10061.7 c 217.8,-108.5 491.1,-80.4 683.4,95.2 l -88.1,695.2 -645.6,-95.3 50.3,-695.1"
         style="fill:#f37a50;fill-opacity:1;fill-rule:nonzero;stroke:none"
         id="path356" /><path
         d="m 27599.9,10258 v 0 l -145.5,22.3 -25.3,192.4 -301.8,-381.8 -100.6,-40.6 -107.9,12.1 -393.1,286.9 27.2,-192.2 -112.2,-50.5 v 0 l -408.6,-165.9 489,-2366.6 15.1,-786.3 c 605.9,-58.3 1247.2,-14.1 1846.6,213 l -205,799.6 -87.6,2402.3 -490.3,55.3"
         style="fill:#95a6db;fill-opacity:1;fill-rule:nonzero;stroke:none"
         id="path358" /><path
         d="m 26946.9,9790.6 71.7,-1863.4 187,-178.3 165.6,184.9 -281.8,1867.9 -142.5,-11.1"
         style="fill:#e62552;fill-opacity:1;fill-rule:nonzero;stroke:none"
         id="path360" /><path
         d="m 26810,10004.4 165.3,55.3 192.4,-18.7 -77.7,-242.9 -142.9,-13.7 -137.1,220"
         style="fill:#e62552;fill-opacity:1;fill-rule:nonzero;stroke:none"
         id="path362" /><path
         d="m 26497.9,10259.4 250,-2086.1 -27.7,-2884 c 0,0 -79.2,-201.9 -419.4,0 l -370.3,4706.1 567.4,264"
         style="fill:#ffffff;fill-opacity:1;fill-rule:nonzero;stroke:none"
         id="path364" /><path
         d="m 26505.7,10282.6 262.8,-2253.7 -528.1,1712.2 z"
         style="fill:#d4deff;fill-opacity:1;fill-rule:nonzero;stroke:none"
         id="path366" /><path
         d="m 27443.9,10453.4 428.8,-5188.2 c 0,0 969.5,-216.1 1257,24.1 l -459.2,2208.7 -607.1,2960.6 -619.5,-5.2"
         style="fill:#ffffff;fill-opacity:1;fill-rule:nonzero;stroke:none"
         id="path368" /><path
         d="m 27435.8,10459.8 195.3,-2271 193.6,1826.8 z"
         style="fill:#d4deff;fill-opacity:1;fill-rule:nonzero;stroke:none"
         id="path370" /><path
         d="m 27430.1,11416.6 c 5.2,-486.3 -300.2,-884 -682.2,-888.1 -382,-4.1 -695.9,386.8 -701.2,873.2 -5.3,486.4 300.1,884 682.1,888.1 382,4.2 696,-386.8 701.3,-873.2"
         style="fill:#f37a50;fill-opacity:1;fill-rule:nonzero;stroke:none"
         id="path372" /><path
         d="m 26265.1,11244.5 c -34.4,-19.5 -78.1,-7.5 -97.6,26.9 -19.5,34.5 -7.5,78.2 27,97.7 34.4,19.5 78.1,7.4 97.6,-27 19.5,-34.4 7.4,-78.1 -27,-97.6"
         style="fill:#000000;fill-opacity:1;fill-rule:nonzero;stroke:none"
         id="path374" /><path
         d="m 26798.2,11372.4 c -10.6,-38.3 -50.2,-60.8 -88.5,-50.2 -38.3,10.6 -60.7,50.2 -50.2,88.5 10.6,38.3 50.2,60.7 88.5,50.2 38.3,-10.6 60.8,-50.2 50.2,-88.5"
         style="fill:#000000;fill-opacity:1;fill-rule:nonzero;stroke:none"
         id="path376" /><path
         d="m 26415.8,11356 c -23.9,-125.3 -56.1,-279.3 -56.1,-279.3 0,0 78.1,-92.1 219.1,-39.2 -69,1.5 -143.2,18.7 -149.7,107.3 -6.5,88.6 -13.3,211.2 -13.3,211.2"
         style="fill:#de623c;fill-opacity:1;fill-rule:nonzero;stroke:none"
         id="path378" /><path
         d="m 26864.2,11510.5 c -12.1,-9 -29.1,-8.9 -41.1,1.1 -2.8,2.3 -72.3,58.3 -131.9,14.3 -14.7,-10.9 -35.5,-7.8 -46.3,7 -10.9,14.7 -7.7,35.5 6.9,46.3 81.4,60.1 175.4,15.4 213.8,-16.7 14,-11.7 15.9,-32.6 4.2,-46.7 -1.7,-2 -3.6,-3.8 -5.6,-5.3"
         style="fill:#2c2858;fill-opacity:1;fill-rule:nonzero;stroke:none"
         id="path380" /><path
         d="m 26091.5,11347.5 c 14.7,-2.8 30,4.7 36.5,18.9 1.5,3.3 39.8,83.9 112.5,70.2 18,-3.4 35.3,8.5 38.7,26.5 3.4,18 -8.6,35.3 -26.4,38.7 -99.4,18.7 -164.6,-62.5 -185.2,-108 -7.6,-16.7 -0.2,-36.4 16.5,-43.9 2.4,-1.1 4.9,-1.9 7.4,-2.4"
         style="fill:#2c2858;fill-opacity:1;fill-rule:nonzero;stroke:none"
         id="path382" /><path
         d="m 27362.9,11381.4 c -58.5,166.6 -191.2,80.3 -283.8,294.6 -92.7,214.3 -172.1,373.6 -367.8,264.1 -195.8,-109.4 -263,-77.7 -364.5,-57.9 -305.2,59.5 -299.7,-436 -299.7,-436 0,0 -287.3,333.4 -127.5,588.1 177.1,282.4 281,140.1 456.6,356.1 175.6,216 530.2,236.3 643.6,122.5 119.6,-119.8 168,-218.7 398.6,-251.2 230.6,-32.5 387.1,-166.4 278.4,-438.9 -108.8,-272.5 244.2,-318.6 6.2,-618.2 -92.3,-116.2 -290.9,-205.7 -338.5,-174.5 -63.8,41.8 36.1,243.9 -1.6,351.3"
         style="fill:#2c2858;fill-opacity:1;fill-rule:nonzero;stroke:none"
         id="path384" /><path
         d="m 26080.1,11142.1 c 0,0 87.9,-222.2 155.5,-280.5 -7.1,111.8 171.2,48.5 247.7,71.4 185,55.2 418,251.2 566.8,3.3 243.6,28.3 251.2,567.7 251.2,567.7 241.3,-504.7 24.3,-943.8 -551.1,-1100.1 -379.1,-103 -672,338.8 -670.1,738.2"
         style="fill:#2c2858;fill-opacity:1;fill-rule:nonzero;stroke:none"
         id="path386" /><path
         d="m 27263.6,11480.9 c -59.3,-102.3 -39.4,-224.6 44.4,-273.1 83.8,-48.5 199.7,-4.8 259,97.6 59.2,102.4 39.3,224.7 -44.5,273.1 -83.8,48.5 -199.7,4.8 -258.9,-97.6"
         style="fill:#f37a50;fill-opacity:1;fill-rule:nonzero;stroke:none"
         id="path388" /><path
         d="m 27405.9,11271.4 c -3.9,0.3 -7.8,1.5 -11.4,3.6 -51.1,30.7 -74.3,79.1 -62.2,129.5 12.5,51.5 58.3,91.3 109,94.7 14.2,0.9 26.5,-9.9 27.5,-24.1 0.9,-14.3 -9.9,-26.6 -24.1,-27.5 -27.8,-1.9 -55,-26.2 -62.1,-55.3 -6.8,-28 6.9,-53.9 38.6,-73 12.2,-7.3 16.2,-23.2 8.8,-35.5 -5.2,-8.6 -14.7,-13.1 -24.1,-12.4"
         style="fill:#de623c;fill-opacity:1;fill-rule:nonzero;stroke:none"
         id="path390" /><path
         d="m 26632.7,10779.4 c -14.7,-6.8 -30,-12.3 -45.8,-16.2 -116.8,-29.4 -218.8,32.5 -223,35.2 -13.3,8.1 -17.4,25.5 -9.2,38.8 8.2,13.2 25.5,17.3 38.7,9.1 v 0 c 0.9,-0.5 86.9,-52.1 180.3,-28.3 60.9,15.4 112.8,59.6 154.2,131.3 7.8,13.4 25.1,18 38.5,10.2 13.5,-7.8 18.1,-25 10.3,-38.5 -39.2,-67.8 -87.5,-115.3 -144,-141.6"
         style="fill:#de623c;fill-opacity:1;fill-rule:nonzero;stroke:none"
         id="path392" /><path
         d="m 26975.3,10059.7 359.9,-254.2 192.4,539.3 -98.5,127.9 -453.8,-413"
         style="fill:#ffffff;fill-opacity:1;fill-rule:nonzero;stroke:none"
         id="path394" /><path
         d="m 26975.3,10059.7 -221.5,-295.3 -288.7,435.3 60.6,149.6 449.6,-289.6"
         style="fill:#ffffff;fill-opacity:1;fill-rule:nonzero;stroke:none"
         id="path396" /><path
         d="m 22378.6,811.703 h -10.5 c -85.7,0 -155.1,69.496 -155.1,155.098 V 3618.5 h 320.7 V 966.801 c 0,-85.602 -69.4,-155.098 -155.1,-155.098"
         style="fill:#768fdb;fill-opacity:1;fill-rule:nonzero;stroke:none"
         id="path398" /><path
         d="m 23503.8,811.703 h -10.5 c -85.7,0 -155.1,69.496 -155.1,155.098 V 3618.5 h 320.7 V 966.801 c 0,-85.602 -69.4,-155.098 -155.1,-155.098"
         style="fill:#768fdb;fill-opacity:1;fill-rule:nonzero;stroke:none"
         id="path400" /><path
         d="m 25135.4,961.703 c 0,-82.801 -71.8,-150 -160.4,-150 v 0 c -88.5,0 -160.3,67.199 -160.3,150 V 3618.5 h 320.7 V 961.703"
         style="fill:#768fdb;fill-opacity:1;fill-rule:nonzero;stroke:none"
         id="path402" /><path
         d="m 26105.5,811.703 h -10.6 c -85.6,0 -155,69.496 -155,155.098 V 3618.5 h 320.7 V 966.801 c 0,-85.602 -69.4,-155.098 -155.1,-155.098"
         style="fill:#768fdb;fill-opacity:1;fill-rule:nonzero;stroke:none"
         id="path404" /><path
         d="M 24326,7835 V 4454 c 0,-38.4 -31.2,-69.6 -69.7,-69.6 h -2096.2 c -211.5,0 -383,-171.5 -383,-383 v 0 c 0,-211.5 171.5,-382.9 383,-382.9 h 2165.9 382.9 c 211.5,0 383,171.4 383,382.9 v 383 3450.6 c 0,211.5 -171.5,382.9 -383,382.9 v 0 c -211.5,0 -382.9,-171.4 -382.9,-382.9"
         style="fill:#95a6db;fill-opacity:1;fill-rule:nonzero;stroke:none"
         id="path406" /><path
         d="m 26366.3,4322.3 h -1657.4 v 3895.6 h 1657.4 V 4322.3"
         style="fill:#95a6db;fill-opacity:1;fill-rule:nonzero;stroke:none"
         id="path408" /><path
         d="M 25983.4,7835 V 4454 c 0,-38.4 -31.2,-69.6 -69.7,-69.6 h -2096.3 c -211.4,0 -382.9,-171.5 -382.9,-383 v 0 c 0,-211.5 171.5,-382.9 382.9,-382.9 h 2166 382.9 c 211.5,0 383,171.4 383,382.9 v 383 3450.6 c 0,211.5 -171.5,382.9 -383,382.9 v 0 c -211.5,0 -382.9,-171.4 -382.9,-382.9"
         style="fill:#768fdb;fill-opacity:1;fill-rule:nonzero;stroke:none"
         id="path410" /><path
         d="m 23368.5,8360.8 c -422.4,-128.4 -632.6,-1017.6 -812.5,-1948.4 -243,-319 -503.5,-494.2 -884.4,-870.3 258.1,-58.4 531.2,10.1 531.2,10.1 0,0 701.7,-6 1006.1,657.4 69.7,151.8 93.4,457.3 132.9,593.1 17.3,425.7 26.7,1558.1 26.7,1558.1"
         style="fill:#cfdaff;fill-opacity:1;fill-rule:nonzero;stroke:none"
         id="path412" /><path
         d="m 20897.6,1270.3 -380.5,-96.4 -155.4,338.9 c 16.2,11.9 41.1,237.2 56.4,408.6 l 614.1,-84.7 c -30.1,-173 -80.9,-399.2 -134.6,-566.4"
         style="fill:#f37a50;fill-opacity:1;fill-rule:nonzero;stroke:none"
         id="path414" /><path
         d="m 20226.2,1070.5 c 0,0 -131.6,221.2 -298.3,235.1 0,0 -314.6,-18 -424.9,-150.3 -34.7,-41.6 -21.4,-130.2 -7.6,-186.999 8.5,-35.399 38.6,-73.903 131.5,-103.199 137.4,-43.204 322.6,-69.7 663.8,18.8 409.4,106.098 474.7,62.399 626,111.2 156.8,50.498 106.4,242.098 63.6,428.798 0,0 -114.1,-228.4 -754.1,-353.4"
         style="fill:#201d40;fill-opacity:1;fill-rule:nonzero;stroke:none"
         id="path416" /><path
         d="m 20351.4,1545.9 c 0,0 -182.7,-110.7 -421.6,-165.5 -133.6,-30.7 -489.9,-99.8 -432.5,-337.3 8.5,-35.5 38.6,-73.897 131.5,-103.198 137.4,-43.199 322.6,-69.601 663.8,18.797 409.4,106.101 474.7,62.401 626,111.201 156.8,50.5 84.4,268 41.7,454.7 v 0 c -3.9,-47.4 -25.8,-171.7 -310.3,-283.1 -84.9,-33.2 -15.5,341.2 -298.6,304.4"
         style="fill:#2c2858;fill-opacity:1;fill-rule:nonzero;stroke:none"
         id="path418" /><path
         d="m 20404.6,1259.7 c -13.6,0.9 -25.7,10.5 -29.2,24.5 -28.9,116.2 -149,124.4 -154.1,124.7 -17.7,1 -31.4,16.2 -30.4,34 0.9,17.8 16,31.4 33.7,30.5 59.7,-2.8 181,-43 213.5,-173.6 4.3,-17.3 -6.2,-34.9 -23.5,-39.2 -3.4,-0.8 -6.7,-1.1 -10,-0.9"
         style="fill:#494c7f;fill-opacity:1;fill-rule:nonzero;stroke:none"
         id="path420" /><path
         d="m 20254.6,1199.6 c -13.7,0.9 -25.8,10.5 -29.2,24.4 -28.9,116.2 -149,124.4 -154.1,124.8 -17.7,1 -31.4,16.2 -30.5,34 1,17.7 16.1,31.4 33.8,30.5 59.7,-2.8 181,-43 213.5,-173.7 4.3,-17.3 -6.3,-34.8 -23.6,-39.1 -3.3,-0.8 -6.7,-1.1 -9.9,-0.9"
         style="fill:#494c7f;fill-opacity:1;fill-rule:nonzero;stroke:none"
         id="path422" /><path
         d="m 22383.8,1127 -372.8,-123 -178.8,327.2 c 15.3,13 68.8,250.9 72,423.1 l 574,-52.8 c -17.9,-174.7 -52.6,-404 -94.4,-574.5"
         style="fill:#f37a50;fill-opacity:1;fill-rule:nonzero;stroke:none"
         id="path424" /><path
         d="m 23002.4,5370 c -849.8,-155.2 -2056.7,-705.7 -2175.8,-830.9 -245.9,-258.7 -366.3,-1148.3 -482.3,-2732.9 l 743.7,-49.6 c 274.5,1237.8 532.8,1777.5 575,2280.2 0,0 651.7,-45 1632.4,333.4 483.4,186.6 987.2,404.2 842.2,841 -115.5,347.9 -324.9,306.8 -1135.2,158.8"
         style="fill:#201d40;fill-opacity:1;fill-rule:nonzero;stroke:none"
         id="path426" /><path
         d="m 23952.9,5296 c -706,-73 -1647.8,-880.9 -1766.8,-1006.1 -246,-258.7 -276.9,-1142 -392.9,-2726.5 l 740.2,-68.3 c 119.8,820.9 470.1,1761.5 469.1,2364.2 0,0 662.5,143.6 1688,374.3 561,126.2 729.4,213.1 836.7,579.4 36.5,124.7 86,413.4 30,477.9 -247.7,285.1 -936,74.1 -1604.3,5.1"
         style="fill:#2c2858;fill-opacity:1;fill-rule:nonzero;stroke:none"
         id="path428" /><path
         d="m 21728.1,880.402 c 0,0 -146.8,211.398 -314.1,213.598 0,0 -312.5,-40.1 -413.3,-179.898 -31.6,-43.801 -12.1,-131.301 5.6,-187 11,-34.801 43.7,-71 138.5,-93.7 140,-33.402 326.6,-46.8 660.8,65.5 400.9,134.598 469.1,95.598 616.6,154.899 152.9,61.398 89.1,249.099 33.3,432.199 0,0 -97.7,-235.9 -727.4,-405.598"
         style="fill:#201d40;fill-opacity:1;fill-rule:nonzero;stroke:none"
         id="path430" /><path
         d="m 21819.6,1363.5 c 0,0 -174.5,-123.2 -408.9,-194.8 -131.2,-40 -481.7,-134 -407.8,-366.899 11.1,-34.699 43.7,-71 138.5,-93.602 140.1,-33.5 326.7,-46.797 660.8,65.403 400.9,134.699 469.2,95.699 616.6,154.898 152.9,61.5 65.4,273.4 9.6,456.6 v 0 c -0.5,-47.6 -13.6,-173.1 -289.5,-304.2 -82.4,-39.2 -39.5,339.2 -319.3,282.6"
         style="fill:#2c2858;fill-opacity:1;fill-rule:nonzero;stroke:none"
         id="path432" /><path
         d="m 21955.3,1069.4 c -13.7,0.9 -25.8,10.5 -29.2,24.4 -28.9,116.2 -149,124.4 -154.1,124.8 -17.7,1 -31.4,16.2 -30.5,33.9 1,17.8 16,31.5 33.8,30.6 59.7,-2.8 181,-43 213.5,-173.7 4.3,-17.3 -6.3,-34.8 -23.6,-39.1 -3.3,-0.9 -6.7,-1.1 -9.9,-0.9"
         style="fill:#494c7f;fill-opacity:1;fill-rule:nonzero;stroke:none"
         id="path434" /><path
         d="m 21805.2,1009.2 c -13.6,1 -25.7,10.5 -29.2,24.5 -28.9,116.2 -148.9,124.4 -154,124.7 -17.8,1.1 -31.4,16.2 -30.5,34 1,17.8 16,31.4 33.8,30.5 59.7,-2.8 180.9,-42.9 213.4,-173.6 4.3,-17.3 -6.2,-34.8 -23.5,-39.2 -3.4,-0.8 -6.7,-1.1 -10,-0.9"
         style="fill:#494c7f;fill-opacity:1;fill-rule:nonzero;stroke:none"
         id="path436" /><path
         d="m 24419.1,9072.5 h -0.3 l -281.7,-1.1 -63.8,-665.3 328.8,-173.7 350.7,171.7 -56.7,667.3 -277,1.1"
         style="fill:#f37a50;fill-opacity:1;fill-rule:nonzero;stroke:none"
         id="path438" /><path
         d="m 24445.9,9164.6 c 247.9,-69.6 430.6,232.3 430.6,232.3 158.7,1.3 156.8,159.4 156.8,159.4 77,11 187.1,74.5 177.6,219.5 -8.1,122.8 -125.3,135.4 -118.5,276.7 5.5,113.4 128.3,374 -224.1,450.9 0,0 23.7,208.5 -182.2,291.5 -252.5,101.8 -341.9,-45.5 -461.2,-55.8 -133.2,-11.4 -390.5,149.7 -473,-141.5 0,0 -183.8,24.4 -288.9,-95.7 -97.9,-111.9 -76.7,-277.8 -33.2,-344.4 0,0 -154.6,-27 -210.2,-160.8 -37.2,-89.8 -19.7,-216 64,-289 53.3,-46.5 108.8,-58.8 108.8,-58.8 58.5,-19.1 37.1,-180.3 85.1,-219.6 77,-63.1 163.6,-112.7 252.9,-155.2 l 715.5,-109.5"
         style="fill:#2c2858;fill-opacity:1;fill-rule:nonzero;stroke:none"
         id="path440" /><path
         d="m 24907.8,9557.3 c -16.2,-466.4 -381.6,-868.4 -747.9,-855.6 -366.3,12.7 -594.8,435.3 -578.6,901.7 16.3,466.4 326.4,834.1 692.6,821.4 366.3,-12.8 650.1,-401.2 633.9,-867.5"
         style="fill:#f37a50;fill-opacity:1;fill-rule:nonzero;stroke:none"
         id="path442" /><path
         d="m 23794.6,9433.8 c -9.2,-34 -44.1,-54.2 -78.1,-45.1 -34,9.1 -54.2,44.1 -45.1,78.1 9.1,34 44.1,54.1 78.1,45 34,-9.1 54.2,-44 45.1,-78"
         style="fill:#000000;fill-opacity:1;fill-rule:nonzero;stroke:none"
         id="path444" /><path
         d="m 24321.5,9453.2 c -9.9,-36.8 -47.7,-58.6 -84.5,-48.7 -36.9,9.8 -58.7,47.6 -48.8,84.5 9.8,36.8 47.7,58.6 84.5,48.7 36.8,-9.8 58.6,-47.7 48.8,-84.5"
         style="fill:#000000;fill-opacity:1;fill-rule:nonzero;stroke:none"
         id="path446" /><path
         d="m 23998.3,9436.2 c -58.1,-93.2 -131.7,-206.8 -131.7,-206.8 0,0 34.2,-98.1 163.7,-99.3 -54.8,22.6 -109.1,59.4 -86.8,132.5 22.2,73 54.8,173.6 54.8,173.6"
         style="fill:#de623c;fill-opacity:1;fill-rule:nonzero;stroke:none"
         id="path448" /><path
         d="m 24382.7,9584.3 c 2.3,0.9 4.5,2 6.7,3.4 14.7,9.6 18.8,29.3 9.1,44 -26.3,40.1 -100.1,107.4 -191.5,75 -16.6,-6.2 -25.2,-24.1 -19.4,-40.7 5.9,-16.5 24.1,-25.2 40.7,-19.3 67.6,24 116.6,-49.1 117,-49.9 8.3,-12.5 23.9,-17.3 37.4,-12.5"
         style="fill:#2c2858;fill-opacity:1;fill-rule:nonzero;stroke:none"
         id="path450" /><path
         d="m 23777.2,9601.5 c 4.3,1.5 8.3,4.2 11.4,7.9 9.3,11.3 7.8,28 -3.4,37.4 -1.8,1.4 -43.8,35.8 -96.6,27.2 -36.1,-6 -67.1,-29.6 -92.1,-70.4 -7.6,-12.5 -3.7,-28.8 8.8,-36.5 12.4,-7.6 28.8,-3.7 36.4,8.8 16.6,27 35.3,42.4 55.5,45.8 28.7,4.7 53.8,-15.5 54.1,-15.7 7.5,-6.2 17.4,-7.6 25.9,-4.5"
         style="fill:#2c2858;fill-opacity:1;fill-rule:nonzero;stroke:none"
         id="path452" /><path
         d="m 23466,10068.7 783.6,514 811.7,-580.7 -204.2,-617.7 c 21.8,296.3 -171.9,228.8 -251.7,328.5 -80.9,100.9 -101.4,242.7 -340.6,156.1 0,0 -160.9,150.6 -279.2,-9.6 -91.5,-124 -184.3,-83.6 -281.7,-76.1 -114.9,8.8 -104.5,-105.7 -173.4,-91.7 l -64.5,377.2"
         style="fill:#2c2858;fill-opacity:1;fill-rule:nonzero;stroke:none"
         id="path454" /><path
         d="m 24804.7,9593.9 c -71.8,-82.9 -75,-197.8 -7,-256.6 67.9,-58.7 181.1,-39.1 252.9,43.9 71.8,83 74.9,197.9 7,256.7 -67.9,58.7 -181.1,39.1 -252.9,-44"
         style="fill:#f37a50;fill-opacity:1;fill-rule:nonzero;stroke:none"
         id="path456" /><path
         d="m 24897.9,9378.2 c -3.5,1 -6.8,2.7 -9.7,5.3 -41.2,36.9 -54,85.1 -34.2,128.8 20.4,44.8 69,73.1 115.8,67.4 13.1,-1.7 22.5,-13.6 20.9,-26.8 -1.7,-13.1 -13.6,-22.5 -26.8,-20.9 -25.6,3.2 -54.7,-14.2 -66.2,-39.5 -11,-24.4 -3.1,-50.4 22.5,-73.2 9.9,-8.9 10.7,-24 1.9,-33.9 -6.3,-7 -15.7,-9.5 -24.2,-7.2"
         style="fill:#de623c;fill-opacity:1;fill-rule:nonzero;stroke:none"
         id="path458" /><path
         d="m 23887.1,8952.8 c -12.7,13.6 -3.2,35.7 15.4,35.6 47.3,-0.3 125.4,0.9 199.1,9.3 73.6,8.3 149.9,24.7 196,35.5 18.1,4.3 32.4,-15.1 23,-31.2 -28.6,-49.5 -90.8,-126.8 -203.7,-139.6 -112.9,-12.8 -190.8,48.6 -229.8,90.4"
         style="fill:#ffffff;fill-opacity:1;fill-rule:nonzero;stroke:none"
         id="path460" /><path
         d="m 24253.6,9587.9 c -9,0 -18.2,-0.7 -27.4,-2.2 -38.1,-6.1 -71.7,-24.1 -94.8,-50.7 -22.2,-25.7 -31.8,-56.3 -27,-86.3 10.1,-63.2 81.2,-104.6 158.4,-92.3 77.3,12.4 131.9,73.9 121.8,137.1 -4.8,30 -23.4,56.1 -52.5,73.5 -23,13.8 -50.1,20.9 -78.5,20.9 z m -17.8,-273.6 c -85.5,0 -158.9,52.8 -170.9,128.1 -6.7,41.8 6.2,84 36.3,118.7 29.2,33.8 71.3,56.6 118.7,64.1 47.3,7.6 94.5,-0.9 132.7,-23.9 39.4,-23.6 64.8,-59.7 71.5,-101.5 13.6,-85 -55.9,-167 -155,-182.8 -11.2,-1.8 -22.4,-2.7 -33.3,-2.7"
         style="fill:#000000;fill-opacity:1;fill-rule:nonzero;stroke:none"
         id="path462" /><path
         d="m 23734.7,9569.2 c -66.6,0 -123.4,-38.9 -132.8,-95.1 -5.1,-30.5 4.4,-61.7 26.8,-88 23.3,-27.3 57.4,-45.9 96,-52.3 38.7,-6.5 76.9,0 107.8,18.2 29.7,17.6 48.9,44 54,74.5 v 0 c 5.1,30.4 -4.5,61.7 -26.9,88 -23.2,27.2 -57.3,45.8 -95.9,52.3 -9.8,1.6 -19.5,2.4 -29,2.4 z m 19.1,-277.9 c -11.8,0 -23.8,1 -35.7,3 -47.9,8 -90.5,31.4 -119.8,65.8 -30.2,35.4 -42.9,78.3 -35.9,120.6 14.4,86 107.6,142.3 207.9,125.5 47.9,-8 90.4,-31.4 119.8,-65.8 30.2,-35.4 42.9,-78.2 35.8,-120.5 v 0 c -7.1,-42.3 -33,-78.7 -73.1,-102.3 -29.2,-17.3 -63.5,-26.3 -99,-26.3"
         style="fill:#000000;fill-opacity:1;fill-rule:nonzero;stroke:none"
         id="path464" /><path
         d="m 24083.5,9451.1 h -182.2 v 40 h 182.2 v -40"
         style="fill:#000000;fill-opacity:1;fill-rule:nonzero;stroke:none"
         id="path466" /><path
         d="m 24404.1,9516.6 c -0.4,0 -0.9,0 -1.6,0 0.5,0 1.1,0 1.6,0 z m 0.3,-40 c -11,0 -19.9,8.8 -20,19.8 -0.2,10.4 7.7,19 17.8,20.1 20.1,4 253.9,74.9 407.3,121.9 10.5,3.3 21.7,-2.7 25,-13.2 3.2,-10.6 -2.8,-21.8 -13.3,-25 -402.5,-123.4 -413.1,-123.5 -416.6,-123.5 -0.1,-0.1 -0.2,-0.1 -0.2,-0.1"
         style="fill:#000000;fill-opacity:1;fill-rule:nonzero;stroke:none"
         id="path468" /><path
         d="m 25557.1,5278 c 0,0 -589.5,-60.8 -1142,-64.5 -552.4,4.1 -1141.9,111.3 -1141.9,111.3 0,0 74.2,1014.5 66.6,1404.1 -10.7,447.4 28.7,1040.6 28.7,1631.9 0,0 391.9,63 612.9,90.3 35.9,4.4 67.3,7.9 91.9,10 0,0 125.9,-264.2 674.7,0 28.8,2.9 64.5,2.7 104.4,0.4 230.5,-13.7 601.8,-100.7 601.8,-100.7 0,-589.7 23.8,-1167.5 15.9,-1615 24.5,-399.1 87,-1467.8 87,-1467.8"
         style="fill:#e62552;fill-opacity:1;fill-rule:nonzero;stroke:none"
         id="path470" /><path
         d="m 23958.8,8448.3 c -10.3,-56.9 -460.2,-3159 -460.2,-3159 l -225.4,35.5 95.3,3036 c 0,0 268.2,79.6 590.3,87.5"
         style="fill:#ffffff;fill-opacity:1;fill-rule:nonzero;stroke:none"
         id="path472" /><path
         d="m 25454.2,8360.8 c 0,0 -226.2,71.9 -601.8,100.7 0,-28.8 -252.7,-4627.8 -252.7,-4627.8 l 1169.5,89.5 -315,4437.6"
         style="fill:#ffffff;fill-opacity:1;fill-rule:nonzero;stroke:none"
         id="path474" /><path
         d="m 24103.7,7082.7 -133.8,77.5 c 0,0 -37,189.7 -251.8,194.2 24.6,-79.6 60.1,-194.2 60.1,-194.2 0,0 -105.8,-82.1 -356.5,58.3 -245.1,55.1 -140.4,-123.6 -221.6,-136.4 -119.9,-18.9 87.4,-254.5 332.1,-290.5 316.6,-46.7 354.2,18.2 354.2,18.2 l 179.2,-62.7 38.1,335.6"
         style="fill:#f37a50;fill-opacity:1;fill-rule:nonzero;stroke:none"
         id="path476" /><path
         d="m 25341.3,6880 c -447,31.2 -1209.6,252 -1209.6,252 -122.1,-187.2 -88.3,-435.8 -88.3,-435.8 694.2,-608.6 1739,-805.4 2059.6,-658.9 292.6,133.8 86,1915.3 -648.8,2323.5 l -25.4,-2.4 c -252,-426.3 -87.5,-1478.4 -87.5,-1478.4"
         style="fill:#cfdaff;fill-opacity:1;fill-rule:nonzero;stroke:none"
         id="path478" /><path
         d="m 24852.4,8461.5 v -0.1 c -38.2,-63.7 -92.2,-111.9 -168.3,-150.2 -120.6,-60.9 -284.6,-86.7 -385.5,-78.8 -79.9,6.3 -168.5,38.9 -225.3,83.9 -60.3,47.9 -86.6,108.9 -91.9,134.8 35.9,4.4 72.8,10 97.4,12.2 0,0 120.4,-266.4 669.2,-2.2 28.8,2.9 64.5,2.7 104.4,0.4"
         style="fill:#c4204a;fill-opacity:1;fill-rule:nonzero;stroke:none"
         id="path480" /><path
         d="M 27826.2,5213.5 H 7786.97 c -113.33,0 -205.2,91.9 -205.2,205.2 v 0 c 0,113.4 91.87,205.2 205.2,205.2 H 27826.2 c 113.4,0 205.2,-91.8 205.2,-205.2 v 0 c 0,-113.3 -91.8,-205.2 -205.2,-205.2"
         style="fill:#4661b3;fill-opacity:1;fill-rule:nonzero;stroke:none"
         id="path482" /><path
         d="m 8328.96,811.703 h -6.43 c -97.03,0 -175.68,78.699 -175.68,175.699 V 5159.9 c 0,97 78.65,175.7 175.68,175.7 h 6.43 c 97.03,0 175.69,-78.7 175.69,-175.7 V 987.402 c 0,-97 -78.66,-175.699 -175.69,-175.699"
         style="fill:#4661b3;fill-opacity:1;fill-rule:nonzero;stroke:none"
         id="path484" /><path
         d="m 27571.4,811.703 h -6.5 c -97,0 -175.7,78.699 -175.7,175.699 V 5159.9 c 0,97 78.7,175.7 175.7,175.7 h 6.5 c 97,0 175.7,-78.7 175.7,-175.7 V 987.402 c 0,-97 -78.7,-175.699 -175.7,-175.699"
         style="fill:#4661b3;fill-opacity:1;fill-rule:nonzero;stroke:none"
         id="path486" /><path
         d="m 23545.6,5620.2 h -2363 l -466.4,1483 c -21.6,68.5 29.6,138.2 101.4,138.2 h 2140.1 c 46.4,0 87.5,-30.1 101.4,-74.4 l 486.5,-1546.8"
         style="fill:#0e6a41;fill-opacity:1;fill-rule:nonzero;stroke:none"
         id="path488" /><path
         d="m 23366.3,5620.2 h -2362.9 l -466.4,1483 c -21.6,68.5 29.6,138.2 101.4,138.2 h 2140 c 46.5,0 87.5,-30.1 101.4,-74.4 l 486.5,-1546.8"
         style="fill:#3f964f;fill-opacity:1;fill-rule:nonzero;stroke:none"
         id="path490" /><path
         d="m 21975.2,6401.6 c 26,-91.6 -20.3,-185 -103.5,-208.7 -83.2,-23.6 -171.7,31.5 -197.7,123.1 -26.1,91.6 20.3,185.1 103.5,208.7 83.1,23.6 171.7,-31.5 197.7,-123.1"
         style="fill:#55ab65;fill-opacity:1;fill-rule:nonzero;stroke:none"
         id="path492" /><path
         d="m 24888,5775.1 h -1521.7 v -151.2 h 1672.8 v 0 c 0,83.5 -67.6,151.2 -151.1,151.2"
         style="fill:#0e6a41;fill-opacity:1;fill-rule:nonzero;stroke:none"
         id="path494" /><path
         d="m 26009.3,7153.1 c 105.7,50.5 223.8,80.3 259.8,231.2 0,0 286,76 585.6,142.6 0,0 -364.7,334.3 -365,334.2 -118.6,-40.1 -337.4,-187.9 -471.3,-191.3 -34.8,-0.9 -69.7,0.1 -104.6,-0.4 -85.1,0.7 -173.7,10.8 -264.9,-56.4 -352.3,-259.6 -490.2,-215.5 -504.4,-245.5 -11.9,-46.7 82.9,-136 262.4,-46.2 173.7,87 266,88.4 266,88.4 0,0 -3,-151.7 57.3,-195.1 27.3,-19.8 155.6,-120.5 279.1,-61.5"
         style="fill:#f37a50;fill-opacity:1;fill-rule:nonzero;stroke:none"
         id="path496" /><path
         d="m 26354.8,7873.5 c 0,0 935,450.9 1645.8,596.9 -98.2,355.7 62.1,1999.2 62.1,1999.2 0,0 480,-117.8 718.4,-1008 238.4,-890.2 -308.3,-1796.2 -308.3,-1796.2 0,0 -1474.1,-409.7 -2001.3,-259.8 -82.7,23.5 -116.7,467.9 -116.7,467.9"
         style="fill:#cfdaff;fill-opacity:1;fill-rule:nonzero;stroke:none"
         id="path498" /><path
         d="m 19104.7,7764.1 c 0,-412.8 -334.7,-747.4 -747.4,-747.4 -412.8,0 -747.4,334.6 -747.4,747.4 0,412.8 334.6,747.4 747.4,747.4 412.7,0 747.4,-334.6 747.4,-747.4"
         style="fill:#ffffff;fill-opacity:1;fill-rule:nonzero;stroke:none"
         id="path500" /><path
         d="m 19030,7764.1 c 0,-371.6 -301.2,-672.8 -672.7,-672.8 -371.6,0 -672.8,301.2 -672.8,672.8 H 19030"
         style="fill:#f5a3b7;fill-opacity:1;fill-rule:nonzero;stroke:none"
         id="path502" /><path
         d="m 19100.9,7313.9 h -1398.2 c -39.8,0 -72.1,32.2 -72.1,72 v 0 c 0,39.8 32.3,72.1 72.1,72.1 h 1398.2 c 39.8,0 72.1,-32.3 72.1,-72.1 v 0 c 0,-39.8 -32.3,-72 -72.1,-72"
         style="fill:#201d40;fill-opacity:1;fill-rule:nonzero;stroke:none"
         id="path504" /><path
         d="m 17154.9,5619.2 c -6.4,0 -12.9,0.9 -19.3,3 -32.6,10.7 -50.5,45.7 -39.9,78.4 l 605.5,1632.5 c 10.6,32.7 45.7,50.6 78.4,39.9 32.6,-10.6 50.5,-45.7 39.9,-78.4 L 17214,5662.1 c -8.5,-26.3 -32.9,-42.9 -59.1,-42.9"
         style="fill:#201d40;fill-opacity:1;fill-rule:nonzero;stroke:none"
         id="path506" /><path
         d="m 19619.8,5619.2 c -25.8,0 -50,16.2 -58.8,42.1 l -634.3,1632.5 c -11.1,32.5 6.3,67.9 38.8,78.9 32.5,11.1 67.9,-6.2 79,-38.8 l 634.2,-1632.5 c 11.1,-32.5 -6.3,-67.8 -38.8,-78.9 -6.6,-2.3 -13.4,-3.3 -20.1,-3.3"
         style="fill:#201d40;fill-opacity:1;fill-rule:nonzero;stroke:none"
         id="path508" /><path
         d="m 18401.8,5623.1 c -34.4,0 -62.2,27.9 -62.2,62.2 v 1700.6 c 0,34.4 27.8,62.2 62.2,62.2 34.3,0 62.2,-27.8 62.2,-62.2 V 5685.3 c 0,-34.3 -27.9,-62.2 -62.2,-62.2"
         style="fill:#201d40;fill-opacity:1;fill-rule:nonzero;stroke:none"
         id="path510" /><path
         d="m 18617.2,7898.6 -339.1,195.1 591.1,1027.3 339.1,-195.2 -591.1,-1027.2"
         style="fill:#ffffff;fill-opacity:1;fill-rule:nonzero;stroke:none"
         id="path512" /><path
         d="m 19177,8892.7 -321.1,180.5 c -39.4,22.1 -53.4,72.1 -31.2,111.5 l 3.6,6.5 c 22.2,39.4 72.1,53.4 111.5,31.2 l 321.1,-180.5 c 39.5,-22.1 53.5,-72.1 31.3,-111.5 l -3.6,-6.5 c -22.2,-39.4 -72.1,-53.4 -111.6,-31.2"
         style="fill:#ffffff;fill-opacity:1;fill-rule:nonzero;stroke:none"
         id="path514" /><path
         d="m 18164,8073.9 c 0,-27.8 -22.6,-50.4 -50.4,-50.4 -27.9,0 -50.5,22.6 -50.5,50.4 0,27.9 22.6,50.5 50.5,50.5 27.8,0 50.4,-22.6 50.4,-50.5"
         style="fill:#f5a3b7;fill-opacity:1;fill-rule:nonzero;stroke:none"
         id="path516" /><path
         d="m 18386.5,8330.8 c 0,-16.1 -13.1,-29.2 -29.2,-29.2 -16.2,0 -29.3,13.1 -29.3,29.2 0,16.2 13.1,29.3 29.3,29.3 16.1,0 29.2,-13.1 29.2,-29.3"
         style="fill:#f5a3b7;fill-opacity:1;fill-rule:nonzero;stroke:none"
         id="path518" /><path
         d="m 18952.6,8703.8 c 0,-16.1 -13.1,-29.2 -29.2,-29.2 -16.2,0 -29.2,13.1 -29.2,29.2 0,16.1 13,29.2 29.2,29.2 16.1,0 29.2,-13.1 29.2,-29.2"
         style="fill:#f5a3b7;fill-opacity:1;fill-rule:nonzero;stroke:none"
         id="path520" /><path
         d="m 18826.7,7993.4 c 0,-16.2 -13,-29.2 -29.2,-29.2 -16.1,0 -29.2,13 -29.2,29.2 0,16.1 13.1,29.2 29.2,29.2 16.2,0 29.2,-13.1 29.2,-29.2"
         style="fill:#f5a3b7;fill-opacity:1;fill-rule:nonzero;stroke:none"
         id="path522" /><path
         d="m 18339.6,7898.6 c 0,-23.7 -19.2,-42.9 -42.9,-42.9 -23.8,0 -43,19.2 -43,42.9 0,23.7 19.2,42.9 43,42.9 23.7,0 42.9,-19.2 42.9,-42.9"
         style="fill:#f5a3b7;fill-opacity:1;fill-rule:nonzero;stroke:none"
         id="path524" /><path
         d="m 18742.5,8498.3 c 0,-24.1 -19.5,-43.6 -43.6,-43.6 -24.1,0 -43.6,19.5 -43.6,43.6 0,24.1 19.5,43.6 43.6,43.6 24.1,0 43.6,-19.5 43.6,-43.6"
         style="fill:#f5a3b7;fill-opacity:1;fill-rule:nonzero;stroke:none"
         id="path526" /><path
         d="m 18641.6,8073.9 c 0,-29.1 -23.7,-52.7 -52.8,-52.7 -29.1,0 -52.8,23.6 -52.8,52.7 0,29.2 23.7,52.8 52.8,52.8 29.1,0 52.8,-23.6 52.8,-52.8"
         style="fill:#f5a3b7;fill-opacity:1;fill-rule:nonzero;stroke:none"
         id="path528" /><path
         d="m 13092,5855.1 -621.4,1188.1 V 7938 c 30.4,0 55,24.6 55,55.1 v 27.8 c 0,30.4 -24.6,55.1 -55,55.1 h -330.5 c -30.4,0 -55.1,-24.7 -55.1,-55.1 v -27.8 c 0,-30.5 24.7,-55.1 55.1,-55.1 v 0 -894.8 l -621.4,-1188.1 c -52.3,-100 10.6,-227.1 112.3,-227.1 h 674.3 674.3 c 101.8,0 164.7,127.1 112.4,227.1"
         style="fill:#ffffff;fill-opacity:1;fill-rule:nonzero;stroke:none"
         id="path530" /><path
         d="m 12671.1,6472.9 h -731.5 l -290,-554.5 c -43.6,-83.3 8.8,-189.2 93.7,-189.2 h 562 562.1 c 84.8,0 137.2,105.9 93.6,189.2 l -289.9,554.5"
         style="fill:#3f964f;fill-opacity:1;fill-rule:nonzero;stroke:none"
         id="path532" /><path
         d="m 12433.8,8076 h -258.6 v 66.9 c 0,33.4 27.1,60.5 60.5,60.5 h 137.5 c 33.5,0 60.6,-27.1 60.6,-60.5 V 8076"
         style="fill:#f37a50;fill-opacity:1;fill-rule:nonzero;stroke:none"
         id="path534" /><path
         d="M 10918.9,6580.8 10388,7774.1 V 8205 c 26,0 47.1,28.5 47.1,63.7 v 11 c 0,35.3 -21.1,63.8 -47.1,63.8 h -282.4 c -25.9,0 -47,-28.5 -47,-63.8 v -11 c 0,-35.2 21.1,-63.7 47,-63.7 v 0 -430.9 L 9574.74,6580.8 c -44.67,-100.4 9.06,-228 96.02,-228 h 576.04 576.1 c 86.9,0 140.7,127.6 96,228"
         style="fill:#ffffff;fill-opacity:1;fill-rule:nonzero;stroke:none"
         id="path536" /><path
         d="m 10630.3,6994.7 h -787.93 l -155.78,-350.2 c -37.23,-83.7 7.56,-190.1 80.03,-190.1 h 480.18 480.2 c 72.5,0 117.3,106.4 80.1,190.1 l -176.8,350.2"
         style="fill:#3f964f;fill-opacity:1;fill-rule:nonzero;stroke:none"
         id="path538" /><path
         d="m 10147.2,7138.7 c 0,-36 -29.2,-65.2 -65.2,-65.2 -36,0 -65.2,29.2 -65.2,65.2 0,36 29.2,65.2 65.2,65.2 36,0 65.2,-29.2 65.2,-65.2"
         style="fill:#8cbf95;fill-opacity:1;fill-rule:nonzero;stroke:none"
         id="path540" /><path
         d="m 10284.2,7324.1 c 0,-20.6 -16.7,-37.4 -37.4,-37.4 -20.6,0 -37.4,16.8 -37.4,37.4 0,20.7 16.8,37.4 37.4,37.4 20.7,0 37.4,-16.7 37.4,-37.4"
         style="fill:#8cbf95;fill-opacity:1;fill-rule:nonzero;stroke:none"
         id="path542" /><path
         d="m 10466.3,7047.1 c 0,-20.7 -16.7,-37.4 -37.4,-37.4 -20.6,0 -37.4,16.7 -37.4,37.4 0,20.6 16.8,37.4 37.4,37.4 20.7,0 37.4,-16.8 37.4,-37.4"
         style="fill:#8cbf95;fill-opacity:1;fill-rule:nonzero;stroke:none"
         id="path544" /><path
         d="m 10209.4,7530.2 c 0,-20.6 -16.7,-37.4 -37.4,-37.4 -20.6,0 -37.4,16.8 -37.4,37.4 0,20.7 16.8,37.4 37.4,37.4 20.7,0 37.4,-16.7 37.4,-37.4"
         style="fill:#8cbf95;fill-opacity:1;fill-rule:nonzero;stroke:none"
         id="path546" /><path
         d="m 9310.26,5626.4 h 1745.24 c 122.8,0 222.4,99.6 222.4,222.4 v 0 c 0,122.9 -99.6,222.5 -222.4,222.5 H 9310.26 c -122.85,0 -222.43,-99.6 -222.43,-222.5 v 0 c 0,-122.8 99.58,-222.4 222.43,-222.4"
         style="fill:#201d40;fill-opacity:1;fill-rule:nonzero;stroke:none"
         id="path548" /><path
         d="M 9292.07,5934.4 H 9414 c 8.85,0 16.03,7.2 16.03,16 v 2400 c 0,41.5 -33.64,75.1 -75.14,75.1 h -3.71 c -41.5,0 -75.14,-33.6 -75.14,-75.1 v -2400 c 0,-8.8 7.17,-16 16.03,-16"
         style="fill:#201d40;fill-opacity:1;fill-rule:nonzero;stroke:none"
         id="path550" /><path
         d="m 9156.27,7986.1 h 1539.93 c 37.8,0 68.4,30.7 68.4,68.5 v 0 c 0,37.8 -30.6,68.4 -68.4,68.4 H 9156.27 c -37.8,0 -68.44,-30.6 -68.44,-68.4 v 0 c 0,-37.8 30.64,-68.5 68.44,-68.5"
         style="fill:#201d40;fill-opacity:1;fill-rule:nonzero;stroke:none"
         id="path552" /><path
         d="m 9174.4,8047.5 c 0,-94.5 76.63,-171.2 171.15,-171.2 94.53,0 171.15,76.7 171.15,171.2 0,94.5 -76.62,171.2 -171.15,171.2 -94.52,0 -171.15,-76.7 -171.15,-171.2"
         style="fill:#201d40;fill-opacity:1;fill-rule:nonzero;stroke:none"
         id="path554" /><path
         d="M 11830.6,7166.9 H 11572 v 66.9 c 0,33.5 27.2,60.6 60.6,60.6 h 137.5 c 33.4,0 60.5,-27.1 60.5,-60.6 v -66.9"
         style="fill:#f37a50;fill-opacity:1;fill-rule:nonzero;stroke:none"
         id="path556" /><path
         d="m 12405.5,5804.3 -556.2,922.4 v 333.1 c 27.2,0 49.3,22.1 49.3,49.3 v 8.5 c 0,27.2 -22.1,49.3 -49.3,49.3 h -295.9 c -27.2,0 -49.3,-22.1 -49.3,-49.3 v -8.5 c 0,-27.2 22.1,-49.3 49.3,-49.3 v 0 -333.1 l -556.2,-922.4 c -46.8,-77.6 9.5,-176.3 100.6,-176.3 h 603.5 603.6 c 91.1,0 147.4,98.7 100.6,176.3"
         style="fill:#ffffff;fill-opacity:1;fill-rule:nonzero;stroke:none"
         id="path558" /><path
         d="M 12028.7,6284 H 11374 l -259.6,-430.5 c -39,-64.7 7.9,-146.9 83.8,-146.9 h 503.1 503.2 c 75.9,0 122.8,82.2 83.8,146.9 l -259.6,430.5"
         style="fill:#e62552;fill-opacity:1;fill-rule:nonzero;stroke:none"
         id="path560" /><path
         d="m 8782.22,7576.9 h -258.6 v 67 c 0,33.4 27.11,60.5 60.55,60.5 h 137.51 c 33.44,0 60.54,-27.1 60.54,-60.5 v -67"
         style="fill:#f37a50;fill-opacity:1;fill-rule:nonzero;stroke:none"
         id="path562" /><path
         d="m 9367.29,5796.7 -564.3,952.4 v 717.2 c 27.62,0 50.02,22.4 50.02,50.1 v 10.5 c 0,27.6 -22.4,50 -50.02,50 h -300.13 c -27.62,0 -50.01,-22.4 -50.01,-50 v -10.5 c 0,-27.7 22.39,-50.1 50.01,-50.1 v 0 -717.2 l -564.29,-952.4 c -47.49,-80.1 9.63,-182 102.05,-182 h 612.31 612.3 c 92.42,0 149.54,101.9 102.06,182"
         style="fill:#ffffff;fill-opacity:1;fill-rule:nonzero;stroke:none"
         id="path564" /><path
         d="m 8985.06,6292 h -664.27 l -263.34,-444.5 c -39.58,-66.8 8.03,-151.7 85.07,-151.7 h 510.41 510.4 c 77.04,0 124.65,84.9 85.07,151.7 L 8985.06,6292"
         style="fill:#f5a3b7;fill-opacity:1;fill-rule:nonzero;stroke:none"
         id="path566" /><path
         d="m 19402.4,7614.4 h -78.8 c -29.6,0 -53.6,-24 -53.6,-53.6 v -132.4 h 186 v 132.4 c 0,29.6 -24,53.6 -53.6,53.6"
         style="fill:#f37a50;fill-opacity:1;fill-rule:nonzero;stroke:none"
         id="path568" /><path
         d="m 19514.5,7438.4 h -303 c -29.4,0 -53.4,-24.1 -53.4,-53.5 v -31.2 c 0,-29.3 24,-53.4 53.4,-53.4 h 24.5 V 5942.5 c 0,-70.7 57.4,-128.1 128.1,-128.1 70.8,0 128.1,57.4 128.1,128.1 v 1357.8 h 22.3 c 29.4,0 53.4,24.1 53.4,53.4 v 31.2 c 0,29.4 -24,53.5 -53.4,53.5"
         style="fill:#ffffff;fill-opacity:1;fill-rule:nonzero;stroke:none"
         id="path570" /><path
         d="m 19265,6557.1 v -606.2 c 0,-54.2 43.9,-98.1 98,-98.1 54.1,0 98,43.9 98,98.1 v 606.2 h -196"
         style="fill:#2bbf86;fill-opacity:1;fill-rule:nonzero;stroke:none"
         id="path572" /><path
         d="m 20475.7,7614.4 h -78.8 c -29.6,0 -53.6,-24 -53.6,-53.6 v -132.4 h 186 v 132.4 c 0,29.6 -24,53.6 -53.6,53.6"
         style="fill:#f37a50;fill-opacity:1;fill-rule:nonzero;stroke:none"
         id="path574" /><path
         d="m 20597.1,7438.4 h -302.9 c -29.4,0 -53.5,-24.1 -53.5,-53.5 v -31.2 c 0,-29.3 24.1,-53.4 53.5,-53.4 h 24.5 V 5942.5 c 0,-70.7 57.3,-128.1 128.1,-128.1 70.7,0 128.1,57.4 128.1,128.1 v 1357.8 h 22.2 c 29.5,0 53.5,24.1 53.5,53.4 v 31.2 c 0,29.4 -24,53.5 -53.5,53.5"
         style="fill:#ffffff;fill-opacity:1;fill-rule:nonzero;stroke:none"
         id="path576" /><path
         d="m 20345.4,6656.5 2.2,-705.6 c 0,-54.2 43.9,-98.1 98.1,-98.1 54.1,0 98,43.9 98,98.1 l -2.2,705.6 h -196.1"
         style="fill:#2bbf86;fill-opacity:1;fill-rule:nonzero;stroke:none"
         id="path578" /><path
         d="m 20055.8,7438.4 h -302.9 c -29.5,0 -53.5,-24.1 -53.5,-53.5 v -31.2 c 0,-29.3 24,-53.4 53.5,-53.4 h 24.5 V 5942.5 c 0,-70.7 57.3,-128.1 128,-128.1 70.8,0 128.1,57.4 128.1,128.1 v 1357.8 h 22.3 c 29.4,0 53.5,24.1 53.5,53.4 v 31.2 c 0,29.4 -24.1,53.5 -53.5,53.5"
         style="fill:#ffffff;fill-opacity:1;fill-rule:nonzero;stroke:none"
         id="path580" /><path
         d="m 19808.5,6862.1 -2.2,-911.2 c 0,-54.2 43.9,-98.1 98,-98.1 54.2,0 98.1,43.9 98.1,98.1 l 2.2,911.2 h -196.1"
         style="fill:#ff5566;fill-opacity:1;fill-rule:nonzero;stroke:none"
         id="path582" /><path
         d="m 19944.8,7627.8 h -78.7 c -29.7,0 -53.7,-24.1 -53.7,-53.7 v -132.4 h 186.1 v 132.4 c 0,29.6 -24,53.7 -53.7,53.7"
         style="fill:#f37a50;fill-opacity:1;fill-rule:nonzero;stroke:none"
         id="path584" /><path
         d="m 20957.2,7095.3 h -2160 c -14.8,0 -26.8,12 -26.8,26.8 v 0 c 0,14.7 12,26.7 26.8,26.7 h 2160 c 14.7,0 26.7,-12 26.7,-26.7 v 0 c 0,-14.8 -12,-26.8 -26.7,-26.8"
         style="fill:#201d40;fill-opacity:1;fill-rule:nonzero;stroke:none"
         id="path586" /><path
         d="m 18965.4,5724.2 h -46.8 v 1371.1 h 46.8 V 5724.2"
         style="fill:#201d40;fill-opacity:1;fill-rule:nonzero;stroke:none"
         id="path588" /><path
         d="m 20835.8,5724.2 h -46.8 v 1371.1 h 46.8 V 5724.2"
         style="fill:#201d40;fill-opacity:1;fill-rule:nonzero;stroke:none"
         id="path590" /><path
         d="m 20907.1,5623.9 h -2059.8 c -27.7,0 -50.1,22.5 -50.1,50.2 v 0 c 0,27.7 22.4,50.1 50.1,50.1 h 2059.8 c 27.6,0 50.1,-22.4 50.1,-50.1 v 0 c 0,-27.7 -22.5,-50.2 -50.1,-50.2"
         style="fill:#201d40;fill-opacity:1;fill-rule:nonzero;stroke:none"
         id="path592" /></g></g></svg>
